<?xml version="1.0" standalone="no"?>
<!DOCTYPE svg PUBLIC "-//W3C//DTD SVG 20010904//EN"
 "http://www.w3.org/TR/2001/REC-SVG-20010904/DTD/svg10.dtd">
<svg version="1.0" xmlns="http://www.w3.org/2000/svg"
 width="600.000000pt" height="936.000000pt" viewBox="0 0 600.000000 936.000000"
 preserveAspectRatio="xMidYMid meet">
<metadata>
Created by potrace 1.15, written by Peter Selinger 2001-2017
</metadata>
<g transform="translate(0.000000,936.000000) scale(0.100000,-0.100000)"
fill="#000000" stroke="none">
<path d="M4153 8995 c-3 -9 2 -24 11 -34 9 -10 16 -29 16 -43 0 -31 9 -41 27
-27 19 17 16 63 -8 93 -23 30 -37 33 -46 11z"/>
<path d="M3947 8983 c-14 -13 -6 -41 13 -46 11 -3 24 -17 30 -31 10 -27 34
-35 45 -15 12 18 -16 68 -48 84 -35 17 -32 17 -40 8z"/>
<path d="M4064 8975 c-7 -17 27 -80 42 -79 15 1 17 35 4 60 -16 29 -39 38 -46
19z"/>
<path d="M4264 8946 c-9 -23 0 -79 13 -83 18 -6 35 35 28 68 -7 30 -32 39 -41
15z"/>
<path d="M4367 8934 c-4 -4 -7 -20 -7 -34 0 -15 -7 -33 -15 -40 -8 -7 -15 -19
-15 -26 0 -20 34 -17 54 5 28 31 12 123 -17 95z"/>
<path d="M3863 8914 c-4 -10 6 -26 27 -46 28 -25 34 -28 42 -14 11 19 -5 51
-32 66 -25 13 -30 13 -37 -6z"/>
<path d="M3757 8903 c-13 -12 -7 -24 18 -33 14 -5 30 -21 35 -35 13 -33 40
-33 40 0 0 45 -68 94 -93 68z"/>
<path d="M3694 8836 c-3 -8 3 -23 14 -34 11 -11 21 -25 24 -33 5 -16 38 -5 38
14 0 17 -45 67 -60 67 -6 0 -13 -6 -16 -14z"/>
<path d="M3600 8815 c-8 -10 -4 -20 17 -42 15 -16 33 -37 39 -48 13 -23 34
-12 34 18 -1 28 -21 55 -54 72 -20 11 -27 11 -36 0z"/>
<path d="M4401 8794 c-20 -29 -22 -37 -11 -44 28 -18 76 33 63 68 -9 21 -27
13 -52 -24z"/>
<path d="M4473 8733 c-3 -10 -17 -28 -32 -40 -20 -18 -23 -25 -14 -34 27 -27
101 38 87 75 -8 21 -33 21 -41 -1z"/>
<path d="M3540 8728 c1 -19 47 -68 65 -68 21 0 19 22 -6 54 -21 27 -59 36 -59
14z"/>
<path d="M3460 8704 c0 -9 9 -27 20 -41 11 -14 20 -34 20 -44 0 -23 28 -25 36
-4 9 22 -4 63 -26 85 -24 24 -50 26 -50 4z"/>
<path d="M4140 8643 c-64 -23 -140 -74 -215 -145 -70 -65 -185 -210 -185 -233
0 -7 39 -39 86 -71 117 -79 274 -237 353 -357 35 -53 67 -97 72 -97 18 0 63
213 79 375 8 72 10 170 7 245 -13 247 -70 329 -197 283z m113 -20 c83 -93 88
-446 11 -782 -16 -75 -26 -85 -45 -49 -65 122 -247 321 -373 408 -42 29 -76
60 -76 68 0 25 107 157 184 228 76 69 208 144 256 144 15 0 34 -8 43 -17z"/>
<path d="M4228 7853 c7 -3 16 -2 19 1 4 3 -2 6 -13 5 -11 0 -14 -3 -6 -6z"/>
<path d="M4467 8613 c-37 -19 -33 -49 6 -45 19 2 27 -1 27 -12 0 -16 -26 -46
-41 -46 -5 0 -9 -7 -9 -15 0 -23 44 -18 68 8 22 23 30 77 12 77 -5 0 -9 10 -7
22 3 27 -18 31 -56 11z"/>
<path d="M3384 8609 c-7 -12 44 -69 63 -69 20 0 16 37 -7 60 -22 22 -45 26
-56 9z"/>
<path d="M2673 8595 c-3 -9 1 -23 10 -33 8 -9 17 -30 19 -47 2 -22 8 -30 23
-30 32 0 32 55 0 94 -30 34 -43 39 -52 16z"/>
<path d="M2895 8600 c-3 -6 3 -22 14 -36 12 -15 21 -37 21 -50 0 -28 19 -42
31 -23 15 24 10 65 -12 93 -21 27 -43 33 -54 16z"/>
<path d="M3114 8585 c-4 -8 -1 -22 6 -30 7 -8 16 -30 19 -48 9 -44 35 -42 39
4 4 53 -49 115 -64 74z"/>
<path d="M2805 8580 c-3 -5 -1 -28 5 -50 8 -31 16 -40 28 -38 12 3 17 13 15
36 -2 46 -32 79 -48 52z"/>
<path d="M2440 8567 c0 -7 6 -22 14 -33 8 -11 16 -31 18 -44 2 -17 9 -25 23
-25 29 0 32 53 5 88 -22 28 -60 37 -60 14z"/>
<path d="M3020 8565 c0 -8 4 -23 9 -33 5 -9 12 -25 15 -35 3 -10 12 -17 19
-15 19 7 20 46 3 74 -18 27 -46 32 -46 9z"/>
<path d="M3310 8560 c0 -10 7 -23 15 -28 9 -4 19 -21 24 -38 11 -42 35 -37 39
7 3 30 -2 41 -24 58 -33 26 -54 27 -54 1z"/>
<path d="M2576 8561 c-9 -14 5 -69 20 -82 32 -26 47 28 18 69 -16 23 -29 28
-38 13z"/>
<path d="M3226 8551 c-9 -14 20 -86 35 -86 20 0 23 42 5 71 -17 25 -31 30 -40
15z"/>
<path d="M2225 8540 c-3 -5 1 -20 10 -33 9 -14 18 -35 20 -48 12 -60 50 -47
42 15 -7 51 -54 95 -72 66z"/>
<path d="M2345 8531 c-11 -18 19 -91 37 -91 27 0 27 53 1 83 -18 19 -29 22
-38 8z"/>
<path d="M843 8512 c-24 -15 -42 -74 -30 -99 5 -13 13 -23 17 -23 14 0 32 29
25 40 -4 6 0 22 9 35 28 42 15 70 -21 47z"/>
<path d="M1022 8487 c-29 -31 -30 -87 -2 -87 13 0 20 7 20 19 0 11 11 28 25
39 14 11 25 27 25 36 0 24 -43 20 -68 -7z"/>
<path d="M1252 8499 c-26 -10 -55 -70 -46 -94 9 -23 37 -14 44 15 3 14 16 29
28 35 41 18 16 60 -26 44z"/>
<path d="M2024 8495 c-3 -8 1 -24 10 -37 9 -12 16 -35 16 -50 0 -31 20 -37 40
-13 15 18 5 66 -21 94 -23 25 -37 27 -45 6z"/>
<path d="M916 8484 c-3 -9 -6 -31 -6 -50 0 -27 4 -34 19 -34 14 0 20 10 25 41
4 22 4 44 1 50 -10 14 -32 11 -39 -7z"/>
<path d="M2130 8493 c1 -25 30 -88 42 -88 17 0 22 48 8 75 -10 19 -50 29 -50
13z"/>
<path d="M1110 8463 c-22 -28 -24 -64 -4 -70 15 -5 57 66 50 83 -8 21 -22 17
-46 -13z"/>
<path d="M1409 8461 c-22 -22 -29 -38 -27 -58 4 -38 35 -43 44 -8 3 14 15 32
26 39 21 15 21 47 1 53 -7 3 -27 -9 -44 -26z"/>
<path d="M1302 8448 c-20 -40 -19 -63 3 -66 15 -2 25 7 38 33 10 20 15 41 12
46 -11 17 -42 9 -53 -13z"/>
<path d="M4488 8439 c-28 -20 -38 -49 -18 -49 25 0 71 32 68 47 -5 24 -20 25
-50 2z"/>
<path d="M727 8443 c-14 -14 -6 -61 13 -78 31 -28 44 -8 28 44 -12 38 -26 50
-41 34z"/>
<path d="M1586 8425 c-34 -31 -38 -95 -6 -95 14 0 20 7 20 22 0 12 12 32 27
44 17 14 24 26 20 37 -9 24 -30 21 -61 -8z"/>
<path d="M1940 8438 c0 -25 21 -88 29 -88 17 0 30 27 24 51 -8 31 -22 49 -39
49 -8 0 -14 -6 -14 -12z"/>
<path d="M1480 8408 c-22 -36 -21 -51 2 -56 17 -3 62 64 53 79 -12 18 -36 8
-55 -23z"/>
<path d="M1823 8425 c-3 -9 2 -24 11 -34 9 -10 16 -26 16 -37 0 -29 16 -48 34
-41 30 12 15 85 -23 114 -21 17 -30 16 -38 -2z"/>
<path d="M660 8380 c-6 -11 -8 -29 -5 -40 9 -29 45 -70 61 -70 24 0 28 30 6
53 -11 12 -22 33 -24 46 -4 32 -24 38 -38 11z"/>
<path d="M1674 8388 c-25 -11 -42 -45 -36 -70 6 -29 30 -21 47 16 22 46 17 67
-11 54z"/>
<path d="M1767 8369 c-25 -15 -49 -67 -42 -90 8 -24 26 -20 41 10 6 12 20 32
31 44 33 35 12 60 -30 36z"/>
<path d="M4530 8335 c-7 -8 -25 -15 -41 -15 -19 0 -29 -5 -29 -15 0 -8 6 -16
13 -17 6 0 19 -2 27 -3 33 -3 80 33 80 61 0 11 -39 2 -50 -11z"/>
<path d="M647 8254 c-16 -17 -5 -45 24 -59 58 -31 82 6 26 40 -44 27 -42 26
-50 19z"/>
<path d="M4488 8233 c-16 -3 -28 -11 -28 -19 0 -23 84 -15 88 9 4 17 -3 19
-60 10z"/>
<path d="M4532 8169 c-8 -12 -24 -19 -42 -19 -20 0 -30 -5 -30 -15 0 -10 10
-15 33 -15 36 0 77 24 77 44 0 22 -26 25 -38 5z"/>
<path d="M621 8156 c-8 -10 -6 -19 10 -40 11 -14 27 -26 35 -26 19 0 18 -16
-1 -24 -44 -17 11 -62 61 -50 37 9 32 44 -6 44 -36 0 -40 15 -5 24 16 4 25 13
25 26 0 16 -7 20 -33 20 -21 0 -36 7 -45 20 -14 23 -25 25 -41 6z"/>
<path d="M870 8120 c-24 -24 -25 -40 -4 -111 26 -88 152 -385 210 -494 85
-159 98 -171 117 -110 21 67 81 222 99 260 44 90 45 87 -44 186 -91 101 -232
230 -278 254 -66 34 -79 36 -100 15z m68 -27 c21 -10 42 -22 48 -28 6 -5 33
-29 60 -52 59 -49 130 -118 203 -195 l53 -57 -38 -88 c-21 -48 -50 -124 -65
-168 -15 -43 -31 -81 -36 -82 -13 -5 -156 288 -219 448 -56 142 -78 239 -54
239 6 0 28 -8 48 -17z"/>
<path d="M4487 8063 c-37 -6 -29 -27 11 -31 52 -5 34 -52 -20 -52 -30 0 -38
-17 -13 -26 8 -4 31 -3 50 0 40 8 60 36 46 63 -5 10 -12 26 -15 36 -3 9 -11
16 -18 16 -7 -1 -26 -4 -41 -6z"/>
<path d="M646 7983 c-24 -24 17 -63 65 -63 29 0 59 18 59 35 0 11 -12 15 -41
15 -22 0 -48 4 -58 10 -10 5 -21 6 -25 3z"/>
<path d="M4496 7903 c-4 -4 -18 -8 -29 -8 -35 0 -29 -39 6 -43 48 -6 28 -42
-23 -42 -25 0 -36 -20 -19 -31 8 -5 26 -9 40 -9 32 0 83 45 72 63 -4 6 -7 25
-8 42 0 29 -22 45 -39 28z"/>
<path d="M693 7874 c-8 -22 7 -34 41 -34 33 0 56 15 56 36 0 17 -90 15 -97 -2z"/>
<path d="M770 7810 c-8 -5 -32 -7 -52 -3 -31 4 -38 2 -38 -10 0 -36 78 -49
118 -21 18 13 21 19 11 30 -13 16 -19 17 -39 4z"/>
<path d="M4448 7723 c-34 -5 -37 -29 -5 -35 32 -6 67 8 67 27 0 15 -9 16 -62
8z"/>
<path d="M788 7713 c-35 -6 -57 -31 -37 -44 20 -13 51 -11 72 5 20 15 23 47 5
45 -7 -1 -25 -4 -40 -6z"/>
<path d="M4477 7640 c-9 -11 -28 -20 -42 -20 -16 0 -25 -6 -25 -15 0 -10 10
-15 34 -15 41 0 82 30 73 53 -8 22 -19 21 -40 -3z"/>
<path d="M830 7620 c-8 -5 -30 -7 -47 -4 -28 5 -33 3 -33 -14 0 -36 72 -45
110 -14 35 28 8 57 -30 32z"/>
<path d="M4470 7545 c-7 -8 -19 -15 -27 -15 -8 0 -13 -6 -10 -12 9 -27 77 -1
77 28 0 19 -24 18 -40 -1z"/>
<path d="M867 7544 c-4 -4 -17 -7 -29 -8 -16 -1 -23 -7 -23 -21 0 -16 6 -20
35 -18 33 1 65 27 54 44 -6 10 -28 12 -37 3z"/>
<path d="M4550 7505 c0 -8 -16 -25 -36 -37 -30 -18 -33 -23 -21 -35 18 -18 57
-4 86 33 25 32 23 48 -7 52 -15 2 -22 -2 -22 -13z"/>
<path d="M810 7442 c0 -42 73 -66 115 -38 33 22 34 56 1 56 -14 0 -28 -5 -31
-10 -4 -6 -16 -8 -28 -5 -12 4 -30 9 -39 11 -13 4 -18 0 -18 -14z"/>
<path d="M4563 7391 c-57 -28 -34 -60 25 -35 21 8 32 20 32 34 0 23 -12 24
-57 1z"/>
<path d="M925 7383 c-45 -7 -59 -35 -25 -53 28 -15 95 13 86 36 -3 8 -6 18 -6
20 0 4 -6 4 -55 -3z"/>
<path d="M4648 7320 c-10 -18 -25 -30 -38 -30 -20 0 -28 -24 -10 -35 5 -3 25
1 45 9 38 16 59 53 43 74 -15 18 -21 15 -40 -18z"/>
<path d="M985 7289 c-5 -7 -21 -9 -47 -5 -30 5 -40 3 -45 -10 -8 -21 21 -44
54 -44 37 0 85 29 81 48 -4 20 -33 28 -43 11z"/>
<path d="M1010 7215 c-41 -15 -48 -30 -21 -44 35 -19 96 14 84 46 -6 15 -16
15 -63 -2z"/>
<path d="M4658 7214 c-36 -19 -27 -49 11 -39 32 8 51 23 51 41 0 17 -27 16
-62 -2z"/>
<path d="M4718 7140 c-9 -17 -24 -30 -33 -30 -8 0 -15 -7 -15 -15 0 -22 43
-19 74 6 15 12 26 30 26 45 0 34 -31 31 -52 -6z"/>
<path d="M1075 7129 c-5 -7 -21 -9 -47 -5 -41 7 -61 -11 -40 -37 6 -7 9 -23 5
-35 -3 -15 0 -24 11 -28 11 -4 14 -13 10 -29 -8 -31 5 -36 49 -21 48 16 51 20
36 44 -11 18 -10 24 5 41 11 12 15 25 10 33 -5 7 -9 19 -9 27 0 18 -21 25 -30
10z"/>
<path d="M3008 7070 c-49 -22 -76 -47 -99 -92 -62 -121 -27 -280 80 -363 100
-79 205 -79 286 -1 92 88 89 256 -5 375 -66 83 -179 118 -262 81z m107 -85
c33 -32 35 -100 4 -139 -16 -21 -29 -26 -62 -26 -48 1 -72 15 -86 52 -13 35 3
99 30 121 31 25 85 22 114 -8z"/>
<path d="M4728 7032 c-32 -20 -37 -42 -9 -42 26 0 66 34 57 48 -9 15 -14 14
-48 -6z"/>
<path d="M4787 6930 c-9 -11 -26 -20 -37 -20 -11 0 -20 -7 -20 -15 0 -25 57
-19 85 10 14 13 25 29 25 35 0 17 -35 11 -53 -10z"/>
<path d="M1009 6911 c-31 -32 -35 -64 -8 -69 8 -1 21 8 28 22 7 13 24 29 38
35 29 13 26 35 -5 39 -14 2 -33 -8 -53 -27z"/>
<path d="M1854 6917 c-40 -23 -70 -52 -94 -92 -22 -36 -25 -51 -25 -151 0
-107 1 -112 30 -154 36 -52 99 -83 167 -84 64 0 123 41 157 109 22 42 26 63
26 136 0 76 -4 93 -30 145 -38 73 -86 104 -160 103 -27 0 -59 -5 -71 -12z
m148 -64 c26 -23 32 -67 13 -102 -27 -53 -102 -54 -130 -1 -19 37 -19 60 1 88
29 41 78 47 116 15z"/>
<path d="M4776 6835 c-10 -8 -24 -16 -30 -18 -8 -3 -8 -8 0 -16 15 -16 84 12
84 33 0 20 -29 20 -54 1z"/>
<path d="M1011 6797 c-57 -29 -28 -57 33 -32 31 13 36 18 26 30 -15 18 -28 19
-59 2z"/>
<path d="M4825 6740 c-10 -11 -29 -20 -42 -20 -15 0 -23 -5 -20 -12 7 -22 79
-13 99 12 15 18 16 25 6 31 -19 12 -23 11 -43 -11z"/>
<path d="M989 6677 c-32 -26 -42 -62 -23 -77 15 -13 34 -5 34 14 0 18 33 46
54 46 12 0 16 5 12 16 -3 9 -6 18 -6 20 0 13 -49 0 -71 -19z"/>
<path d="M4797 6627 c-35 -14 -29 -33 9 -29 33 4 56 20 48 33 -6 11 -21 10
-57 -4z"/>
<path d="M969 6531 c-19 -16 -22 -22 -11 -32 10 -11 20 -10 55 2 23 9 42 22
42 30 0 23 -58 23 -86 0z"/>
<path d="M4774 6519 c-16 -26 48 -46 85 -27 34 18 38 38 9 38 -13 0 -29 -5
-35 -11 -8 -8 -17 -8 -31 0 -15 8 -23 8 -28 0z"/>
<path d="M983 6425 c-35 -15 -59 -54 -50 -79 9 -24 32 -19 45 9 7 14 23 30 37
35 15 6 25 17 25 30 0 23 -13 25 -57 5z"/>
<path d="M2450 6420 c-84 -17 -140 -58 -140 -102 0 -27 62 -91 113 -116 73
-37 109 -31 172 29 56 53 81 103 71 143 -11 45 -115 67 -216 46z m164 -20 c61
-23 13 -146 -74 -190 -36 -18 -43 -19 -79 -6 -53 18 -120 72 -127 103 -14 52
79 102 193 103 34 0 73 -4 87 -10z"/>
<path d="M4763 6408 c2 -8 20 -13 42 -13 22 0 40 5 43 13 2 8 -10 12 -43 12
-33 0 -45 -4 -42 -12z"/>
<path d="M3575 6389 c-33 -4 -86 -10 -118 -14 -139 -15 -469 -127 -445 -151 3
-2 76 1 164 7 262 19 518 1 675 -45 64 -19 69 -20 44 -2 -11 7 -33 16 -50 19
-98 21 -130 27 -177 32 -29 4 -56 9 -60 11 -12 8 -442 6 -471 -1 -14 -4 -28
-2 -31 3 -3 6 30 24 74 41 149 57 342 91 512 91 51 0 88 4 88 10 0 11 -113 10
-205 -1z"/>
<path d="M3853 6383 c9 -2 25 -2 35 0 9 3 1 5 -18 5 -19 0 -27 -2 -17 -5z"/>
<path d="M982 6310 c-25 -11 -39 -37 -26 -50 9 -9 76 8 90 23 9 8 -15 37 -30
36 -6 0 -21 -4 -34 -9z"/>
<path d="M4734 6308 c-7 -11 31 -28 61 -28 29 0 65 16 65 29 0 10 -120 9 -126
-1z"/>
<path d="M4710 6203 c0 -10 11 -13 43 -11 53 4 51 23 -3 24 -28 1 -40 -3 -40
-13z"/>
<path d="M976 6150 c-29 -35 -34 -65 -10 -74 10 -4 21 4 32 24 9 17 27 33 40
36 31 8 24 38 -9 42 -19 2 -33 -5 -53 -28z"/>
<path d="M4750 6130 c-8 -5 -32 -10 -54 -10 -33 0 -37 -2 -26 -15 16 -19 70
-19 96 -1 23 17 8 41 -16 26z"/>
<path d="M1748 6114 c-166 -19 -468 -99 -468 -125 0 -13 2 -13 119 25 138 45
331 84 455 92 118 8 123 -5 14 -31 -40 -10 -80 -22 -88 -26 -8 -4 -44 -17 -80
-29 -126 -43 -350 -165 -350 -191 0 -15 15 -10 56 19 135 96 362 185 607 238
53 11 75 20 69 26 -15 15 -211 16 -334 2z"/>
<path d="M1045 6060 c-42 -17 -60 -71 -23 -70 25 1 69 46 62 63 -7 19 -10 19
-39 7z"/>
<path d="M4620 6034 c0 -6 8 -14 18 -16 23 -6 65 9 58 21 -9 13 -76 9 -76 -5z"/>
<path d="M2526 5989 c-14 -89 -63 -135 -152 -142 -51 -4 -120 19 -145 49 -6 8
-16 14 -22 14 -18 0 27 -41 67 -62 31 -16 54 -19 106 -16 81 4 131 36 151 95
6 21 14 41 16 46 2 4 23 -9 46 -28 108 -93 273 -59 311 63 11 32 -10 27 -24
-7 -49 -119 -243 -122 -312 -5 -11 19 -23 34 -28 34 -4 0 -10 -18 -14 -41z"/>
<path d="M4540 5961 c0 -14 25 -31 60 -41 36 -10 60 -4 60 17 0 11 -7 13 -30
8 -20 -4 -37 -1 -52 9 -25 18 -38 20 -38 7z"/>
<path d="M1060 5917 c-19 -12 -60 -31 -90 -40 -54 -18 -56 -18 -100 1 -68 30
-121 36 -164 18 -42 -17 -76 -68 -76 -113 0 -27 -6 -36 -32 -49 -46 -23 -67
-44 -88 -85 -24 -45 -31 -109 -18 -155 8 -31 6 -39 -10 -58 -103 -112 -50
-287 121 -397 56 -36 175 -81 247 -93 25 -4 68 -34 149 -102 63 -53 131 -108
151 -123 20 -14 83 -61 141 -104 57 -43 126 -92 154 -108 27 -16 57 -34 65
-39 8 -5 45 -27 83 -48 l67 -38 5 -176 c3 -120 0 -201 -9 -254 -7 -44 -14
-104 -15 -134 -1 -30 -5 -58 -9 -62 -4 -3 -35 -16 -68 -27 -184 -61 -421 -210
-562 -351 -105 -106 -231 -250 -293 -335 -33 -44 -62 -84 -67 -90 -80 -106
-217 -334 -305 -510 -67 -134 -69 -142 -58 -183 8 -27 5 -45 -21 -105 -86
-201 -136 -380 -145 -512 l-5 -90 63 -62 c121 -117 218 -189 469 -348 93 -59
262 -152 391 -216 110 -54 194 -86 287 -109 114 -28 206 -63 288 -107 140 -77
280 -128 469 -173 298 -71 563 -95 935 -87 269 7 380 17 560 53 41 9 107 25
145 37 77 24 205 27 475 10 121 -7 240 -3 340 12 176 27 314 61 470 117 208
75 441 194 587 301 156 115 269 231 256 263 -4 12 -13 6 -37 -22 -72 -88 -141
-147 -278 -239 -256 -172 -582 -308 -878 -366 -180 -36 -234 -38 -680 -28
l-185 4 -150 -37 c-448 -111 -1072 -102 -1580 22 -170 41 -271 79 -415 153
-112 57 -299 127 -342 127 -38 0 -306 122 -493 225 -59 33 -230 139 -286 179
-9 6 -50 34 -90 62 -92 64 -147 109 -227 187 l-63 61 6 66 c16 171 126 510
165 510 4 0 31 -40 60 -90 29 -49 55 -90 59 -90 4 0 14 -12 23 -27 28 -46 129
-147 200 -201 271 -204 660 -304 1116 -288 l183 7 57 -55 c184 -177 372 -270
634 -316 152 -26 418 -22 591 9 228 41 524 129 650 192 35 18 41 19 95 4 32
-8 121 -24 198 -35 536 -80 999 57 1372 404 29 27 78 80 108 118 31 37 62 68
69 68 8 0 21 -33 34 -87 21 -93 67 -334 75 -393 2 -19 3 21 1 90 -2 97 -9 155
-34 263 -17 75 -36 148 -40 160 -7 18 -2 35 26 80 34 56 35 59 23 110 -6 28
-16 63 -21 77 -5 14 -11 34 -13 46 -2 11 -18 62 -35 113 -122 365 -347 739
-598 996 -53 54 -188 181 -219 205 -53 42 -232 170 -238 170 -4 0 -28 14 -53
31 -25 17 -77 47 -117 67 -39 19 -72 36 -74 38 -2 1 4 24 13 51 10 26 21 62
25 78 5 17 17 62 28 100 58 202 81 386 77 595 -9 384 -144 623 -435 771 -46
23 -99 74 -100 96 0 17 -73 39 -78 24 -2 -6 -10 -18 -19 -26 -13 -13 -11 -15
14 -15 102 0 169 -153 105 -239 -93 -126 -282 -72 -282 80 0 46 2 49 25 49 26
0 33 14 14 26 -6 3 -9 14 -7 23 4 12 -3 16 -26 18 -28 1 -31 -2 -32 -29 -1
-16 -8 -36 -17 -45 -14 -14 -18 -13 -42 11 -32 32 -43 33 -47 4 -2 -17 -11
-24 -32 -26 -16 -2 -33 1 -39 7 -15 15 -27 14 -27 -4 0 -8 -19 -24 -42 -36
-37 -19 -42 -19 -50 -5 -19 34 -29 16 -23 -38 5 -37 3 -56 -5 -61 -15 -9 -58
31 -62 59 -4 27 -34 33 -40 8 -6 -20 -70 -38 -76 -21 -5 12 -32 12 -32 0 0 -4
-18 -20 -40 -35 -37 -25 -40 -25 -40 -7 0 24 -18 37 -32 23 -7 -7 -5 -20 6
-42 11 -24 13 -37 5 -51 -5 -10 -12 -19 -16 -19 -17 0 -73 54 -73 71 0 22 -25
26 -34 4 -6 -17 -61 -21 -71 -5 -6 10 -48 -15 -97 -58 -31 -28 -52 -21 -45 15
3 15 -1 27 -10 30 -22 9 -27 0 -32 -61 -1 -5 -9 -2 -18 6 -10 8 -26 18 -35 21
-10 4 -18 11 -18 17 0 16 -27 12 -34 -5 -7 -20 -56 -19 -71 1 -10 15 -16 13
-55 -15 -45 -32 -61 -33 -53 -2 6 23 -25 38 -33 16 -8 -21 -70 -20 -82 2 -13
22 -40 10 -48 -23 -8 -32 19 -94 41 -94 18 0 19 23 3 50 -10 15 -10 22 0 32
24 24 72 -55 72 -118 0 -95 -105 -178 -195 -153 -107 30 -148 155 -80 244 29
39 43 43 52 18 8 -21 24 -34 35 -27 8 5 3 82 -6 91 -3 3 -13 2 -23 -2 -10 -5
-23 -9 -29 -10 -6 -2 -22 -6 -34 -10 -19 -6 -21 -4 -15 14 8 25 -18 39 -39 22
-10 -8 -11 -22 -5 -55 31 -167 -183 -261 -283 -125 -44 58 -29 160 28 202 23
18 24 17 24 -3 0 -29 31 -80 48 -80 10 0 12 6 7 23 -4 12 -7 39 -7 59 2 41
-11 56 -33 38 -9 -7 -20 -8 -32 -2 -10 5 -24 7 -30 5 -8 -3 -13 5 -13 21 0 20
-5 26 -21 26 -19 0 -21 -5 -17 -46 3 -41 1 -45 -17 -40 -11 3 -23 6 -27 6 -18
0 -39 62 -32 95 5 28 3 35 -10 35 -18 0 -36 -30 -36 -59 0 -25 -11 -26 -50 -6
-31 16 -38 31 -20 37 7 2 8 19 4 46 -5 32 -11 42 -23 40 -12 -3 -16 -15 -15
-46 0 -23 -1 -42 -4 -42 -2 0 -21 10 -42 21 -43 24 -55 62 -34 101 19 33 17
48 -7 48 -15 0 -25 -11 -36 -40 -9 -22 -19 -40 -23 -40 -4 0 -24 16 -46 35
-35 31 -37 34 -16 35 12 0 25 8 28 18 3 9 11 27 17 40 8 16 8 25 -1 34 -14 14
-40 -5 -54 -42 -10 -24 -12 -22 -30 35 -13 43 -16 65 -8 77 15 26 12 36 -11
40 -14 2 -28 19 -43 55 -21 49 -40 72 -95 113 l-25 17 23 12 c18 10 20 15 10
27 -16 19 -29 18 -69 -9z m-176 -88 c24 -12 50 -19 57 -15 8 4 25 13 39 21 66
38 145 4 189 -81 42 -80 66 -148 81 -226 10 -52 16 -61 63 -99 67 -53 261
-168 355 -209 l72 -33 -6 -34 c-4 -20 1 -83 11 -142 l18 -107 -31 -65 c-34
-70 -49 -145 -58 -296 -3 -54 -9 -101 -13 -106 -27 -28 -469 282 -701 492 -25
23 -63 45 -85 51 -184 47 -260 83 -332 155 -93 94 -99 211 -16 281 24 21 25
22 9 67 -11 34 -13 58 -7 91 14 74 44 106 121 129 11 3 17 19 18 47 7 115 83
143 216 79z m3334 -488 c127 -83 210 -183 268 -324 56 -137 69 -218 68 -412
-1 -245 -41 -463 -133 -730 -25 -71 -36 -117 -31 -130 12 -31 12 -185 0 -244
-36 -192 -164 -300 -285 -241 l-45 22 -30 -25 c-33 -28 -124 -51 -162 -42 -26
7 -71 44 -86 72 -9 15 -14 15 -37 5 -47 -22 -93 -15 -127 18 -29 30 -30 32
-26 118 l3 88 -36 36 c-38 37 -51 81 -42 133 8 39 138 168 221 219 34 21 69
50 77 65 39 76 111 338 119 434 2 23 6 49 9 57 11 31 56 324 51 332 -10 16
-23 7 -29 -22 -9 -40 -20 -38 -33 8 -7 21 -21 47 -32 57 -27 24 -26 36 16 151
20 54 41 113 46 131 7 20 19 34 35 38 76 19 133 95 133 179 0 57 8 58 88 7z
m-505 -37 c54 -36 81 -101 66 -157 -23 -85 -75 -127 -157 -127 -40 0 -57 6
-84 27 -48 40 -56 53 -64 100 -8 53 2 83 28 83 16 0 19 5 14 24 -9 35 35 69
79 60 19 -3 35 -1 39 5 11 18 39 13 79 -15z m-313 -103 c37 -30 52 -69 54
-136 1 -80 -86 -154 -168 -141 -86 14 -136 72 -136 159 0 45 28 99 62 121 13
8 22 5 41 -12 24 -22 47 -29 47 -13 0 5 -7 14 -15 21 -20 16 -19 27 3 33 32
10 77 -3 112 -32z m493 -43 c20 -7 37 -16 37 -21 0 -11 -68 -204 -79 -226 -10
-18 -13 -18 -63 -3 -45 13 -70 13 -158 4 -58 -6 -107 -9 -109 -6 -3 3 2 24 10
47 11 33 19 41 34 38 54 -9 113 -4 149 13 48 24 91 83 100 137 5 33 10 40 24
36 9 -4 34 -12 55 -19z m-839 -28 c120 -81 67 -264 -81 -277 -59 -5 -108 18
-140 66 -43 64 -22 174 41 212 28 17 31 17 49 2 17 -16 18 -16 24 5 8 32 52
28 107 -8z m-400 -5 c13 -20 22 -24 41 -19 31 8 59 -23 73 -79 24 -93 -57
-197 -155 -197 -48 0 -112 39 -133 81 -32 63 -21 151 25 189 16 13 20 12 41
-15 18 -23 26 -27 36 -17 9 9 9 15 0 24 -18 18 -15 46 6 51 37 10 50 6 66 -18z
m856 -108 c0 -29 -33 -108 -49 -116 -20 -10 -81 -12 -81 -2 0 4 16 15 35 24
24 11 42 31 57 62 22 44 38 58 38 32z m-1423 -68 c16 -42 10 -49 -35 -37 -54
14 -57 23 -20 46 43 27 42 27 55 -9z m-264 -4 c1 -5 -6 -11 -15 -13 -11 -2
-18 3 -18 13 0 17 30 18 33 0z m1361 -14 c10 -11 28 -21 40 -23 11 -2 21 -10
21 -18 0 -11 -17 -17 -65 -22 -71 -8 -80 -5 -62 20 7 9 16 27 22 40 12 27 22
28 44 3z m-1159 -46 c66 -14 142 -33 168 -42 31 -10 67 -14 100 -10 52 5 246
-15 265 -27 11 -6 585 20 627 29 23 5 81 11 245 25 63 6 138 13 165 17 162 24
256 -2 294 -80 19 -39 21 -61 21 -203 0 -186 -18 -297 -81 -490 -51 -156 -61
-165 -230 -195 -329 -57 -667 -90 -864 -83 -287 10 -596 69 -883 168 -128 44
-138 50 -147 83 -4 16 -7 118 -7 228 1 365 37 532 126 586 40 25 58 24 201 -6z
m423 13 c21 -21 13 -38 -18 -38 -18 0 -30 5 -30 13 0 13 19 37 30 37 3 0 11
-5 18 -12z m376 -21 c13 -20 4 -29 -29 -29 -36 0 -41 8 -20 32 21 23 33 22 49
-3z m-919 -938 c327 -103 646 -151 955 -144 102 3 204 7 228 10 143 16 420 53
477 64 27 5 52 8 54 5 2 -2 -24 -33 -57 -69 -80 -85 -93 -128 -66 -222 5 -18
1 -25 -22 -34 -27 -10 -217 -51 -294 -63 -184 -29 -554 -27 -760 3 -129 19
-179 30 -325 73 -138 40 -340 131 -395 177 l-34 28 13 104 c18 146 16 144 99
112 37 -14 94 -34 127 -44z m2815 -320 c428 -290 749 -694 943 -1189 53 -138
105 -294 117 -358 10 -55 3 -72 -77 -181 -210 -290 -514 -495 -858 -579 -71
-18 -109 -25 -205 -38 -14 -2 -90 -4 -170 -4 -143 0 -291 15 -421 44 -105 23
-138 27 -157 16 -64 -36 -290 -114 -430 -150 -232 -58 -365 -75 -587 -75 -166
0 -290 19 -425 65 -64 21 -212 87 -220 98 -3 4 -30 24 -61 44 -31 20 -93 71
-138 112 -76 72 -83 76 -118 71 -21 -3 -112 -7 -203 -9 -188 -5 -399 17 -545
56 -258 69 -436 164 -600 319 -83 79 -147 170 -205 291 -62 129 -62 136 5 269
337 668 768 1119 1219 1275 l68 24 92 -49 c189 -101 397 -171 621 -210 206
-36 555 -43 765 -16 69 9 185 30 258 46 73 17 140 29 150 27 14 -3 17 -16 17
-88 0 -67 4 -92 20 -120 29 -50 77 -72 141 -65 43 5 53 3 69 -16 31 -34 70
-49 125 -49 52 0 112 19 141 46 14 13 20 12 55 -2 52 -22 132 -15 177 16 44
30 91 99 119 175 19 51 23 82 24 210 1 83 2 153 3 158 2 12 169 -81 291 -164z"/>
<path d="M1580 3249 c-52 -24 -86 -52 -170 -139 l-106 -109 -39 10 c-22 6 -74
17 -115 25 -41 7 -81 16 -88 19 -25 9 -174 -24 -208 -47 -66 -45 -74 -118 -25
-224 25 -54 52 -88 135 -168 l103 -101 -13 -37 c-49 -141 -56 -317 -16 -399
73 -151 254 -86 459 165 l33 40 87 -22 c121 -31 274 -31 338 -1 108 51 118
138 34 280 -35 59 -137 167 -198 209 l-21 15 19 61 c11 34 24 104 30 157 22
193 -28 297 -141 297 -18 0 -62 -14 -98 -31z m179 -18 c15 -16 32 -50 38 -77
14 -66 6 -202 -17 -296 -27 -103 -26 -113 13 -137 67 -42 185 -181 218 -259
77 -178 -111 -255 -426 -175 l-60 15 -40 -48 c-62 -75 -171 -176 -223 -206
-68 -39 -148 -39 -184 0 -37 39 -48 83 -48 185 0 63 8 120 26 194 l27 105 -34
26 c-51 38 -150 141 -183 190 -16 23 -37 66 -46 95 -16 46 -16 56 -3 87 25 62
75 87 195 97 49 4 91 0 155 -15 162 -38 139 -43 221 47 78 87 168 160 223 184
19 9 54 16 77 16 36 1 49 -4 71 -28z"/>
<path d="M4360 3266 c-73 -40 -102 -192 -74 -383 l17 -118 -29 -20 c-121 -87
-244 -222 -263 -290 -12 -46 5 -109 39 -144 41 -41 118 -61 235 -61 55 0 118
4 140 9 76 20 86 16 138 -53 63 -84 162 -178 215 -205 50 -25 133 -31 157 -11
9 7 28 34 43 59 24 42 27 57 31 164 2 65 -2 137 -8 160 -26 104 -26 103 21
144 179 157 256 265 245 345 -6 44 -27 81 -60 102 -60 40 -210 57 -307 35 -25
-5 -65 -12 -90 -15 l-45 -5 -40 61 c-48 74 -154 176 -219 213 -53 30 -106 34
-146 13z m142 -32 c68 -34 137 -101 209 -200 l59 -82 47 14 c69 21 228 29 295
15 109 -23 159 -84 136 -168 -21 -80 -118 -193 -236 -277 -36 -26 -51 -43 -48
-55 16 -51 36 -204 36 -270 -2 -185 -83 -258 -217 -195 -66 32 -169 132 -224
219 -19 30 -41 56 -49 58 -8 2 -37 -3 -65 -10 -79 -20 -249 -20 -318 0 -76 23
-100 57 -94 139 2 42 11 67 33 99 39 57 126 142 197 191 31 23 57 48 57 57 -1
9 -7 45 -15 81 -18 81 -19 234 -2 297 6 26 26 62 43 80 39 42 84 44 156 7z"/>
<path d="M2915 2968 c-43 -23 -88 -76 -119 -138 -28 -56 -78 -211 -88 -275 -3
-16 -21 -25 -83 -43 -179 -51 -277 -103 -320 -171 -25 -40 -35 -114 -17 -125
5 -3 9 12 9 33 0 97 123 189 323 242 88 23 110 38 110 75 0 35 48 192 78 253
31 65 91 127 130 136 54 11 137 -48 179 -128 25 -49 71 -188 78 -240 8 -55 13
-59 80 -68 79 -11 133 -27 209 -63 93 -44 144 -96 152 -158 6 -46 6 -48 -45
-101 -62 -65 -145 -108 -271 -140 -49 -13 -93 -26 -96 -30 -3 -3 -14 -43 -24
-89 -36 -164 -105 -299 -167 -327 -117 -53 -219 61 -286 319 l-23 85 -39 8
c-174 36 -271 77 -349 146 -22 21 -34 27 -28 16 23 -41 39 -54 119 -98 62 -34
105 -49 183 -65 56 -11 103 -22 104 -24 1 -2 10 -37 20 -78 27 -109 53 -173
94 -235 52 -76 94 -105 154 -105 41 0 54 5 90 38 51 45 111 167 134 273 26
118 20 111 138 151 120 41 240 105 275 150 13 16 28 50 32 76 8 37 6 53 -11
84 -20 40 -70 90 -105 106 -73 35 -161 63 -228 73 -44 7 -80 17 -82 23 -2 6
-15 52 -29 102 -46 168 -114 278 -192 310 -40 17 -62 17 -89 2z"/>
<path d="M4480 5880 c0 -18 69 -45 81 -33 9 9 2 16 -26 27 -44 19 -55 20 -55
6z"/>
<path d="M4400 5807 c0 -7 13 -20 29 -30 36 -21 81 -23 81 -2 0 11 -11 15 -35
15 -22 0 -38 6 -41 15 -7 18 -34 20 -34 2z"/>
<path d="M4320 5751 c0 -14 41 -41 62 -41 30 0 20 19 -18 35 -43 18 -44 18
-44 6z"/>
<path d="M4230 5681 c0 -26 82 -51 109 -32 23 15 3 30 -33 24 -19 -3 -36 -1
-40 6 -8 13 -36 15 -36 2z"/>
<path d="M4150 5631 c0 -6 5 -13 10 -16 17 -10 11 -34 -10 -45 -16 -8 -27 -7
-50 7 -16 9 -32 14 -36 11 -19 -19 54 -61 90 -52 15 3 26 14 28 27 2 15 10 22
25 22 34 0 30 18 -8 37 -40 20 -49 21 -49 9z"/>
<path d="M3860 5477 c0 -22 45 -58 75 -60 40 -3 44 22 6 29 -18 4 -36 15 -42
25 -11 22 -39 26 -39 6z"/>
<path d="M1971 5213 c3 -48 17 -67 35 -52 8 6 11 16 7 22 -4 6 -6 24 -5 39 2
22 -2 28 -19 28 -18 0 -20 -5 -18 -37z"/>
</g>
</svg>
