<?xml version="1.0" standalone="no"?>
<!DOCTYPE svg PUBLIC "-//W3C//DTD SVG 20010904//EN"
 "http://www.w3.org/TR/2001/REC-SVG-20010904/DTD/svg10.dtd">
<svg version="1.0" xmlns="http://www.w3.org/2000/svg"
 width="600.000000pt" height="940.000000pt" viewBox="0 0 600.000000 940.000000"
 preserveAspectRatio="xMidYMid meet">
<metadata>
Created by potrace 1.15, written by Peter Selinger 2001-2017
</metadata>
<style type="text/css" >
    <![CDATA[
        rect.rectClass {
            stroke: #000066;
            fill:   #00cc00;
        }
        path {
            stroke: #006600;
            fill:   #cc0000;
        }
    ]]>
</style>
<g transform="translate(0.000000,940.000000) scale(0.100000,-0.100000)"
fill="#000000" stroke="none">
<path d="M3413 9179 c-108 -18 -247 -88 -325 -163 -52 -51 -76 -56 -104 -25
-38 42 -130 104 -198 131 -115 47 -232 57 -416 34 -25 -3 -67 -8 -94 -11 -102
-12 -111 -38 -28 -80 31 -15 71 -36 89 -44 17 -9 33 -20 35 -25 2 -6 -66 -9
-167 -8 -150 1 -231 -4 -341 -23 -25 -4 -31 -10 -27 -23 3 -14 12 -17 33 -14
19 3 27 9 23 18 -3 10 2 14 18 13 13 0 69 0 124 0 55 1 154 -1 220 -4 66 -3
130 -6 142 -6 12 1 25 -4 28 -9 11 -17 62 -12 69 7 4 10 4 14 0 10 -4 -3 -19
4 -34 16 -16 12 -67 44 -114 71 -116 66 -115 75 17 83 151 11 254 7 297 -10
14 -5 40 -11 58 -12 19 -2 42 -11 51 -19 10 -9 20 -14 23 -11 3 3 11 -1 18
-10 7 -8 19 -15 26 -15 8 0 14 -5 14 -11 0 -6 7 -9 14 -6 13 5 60 -31 134
-100 22 -21 13 -37 -9 -17 -22 19 -22 19 -10 -3 14 -27 10 -28 -57 -8 l-51 15
15 35 c8 19 12 36 9 36 -17 4 -26 7 -32 9 -5 1 -12 2 -17 1 -4 -1 -15 6 -23
16 -13 16 -14 16 -9 1 3 -12 1 -15 -9 -12 -8 3 -11 12 -8 21 5 13 3 13 -15 2
-16 -10 -31 -10 -76 0 -31 7 -61 9 -68 5 -13 -8 -69 -7 -103 2 -15 4 -16 3 -5
-4 8 -5 43 -15 78 -22 34 -7 65 -17 68 -21 3 -5 18 -9 34 -9 20 0 33 -7 41
-22 9 -19 9 -21 -2 -10 -15 14 -29 16 -29 3 0 -16 55 -32 93 -27 37 5 51 -6
22 -18 -31 -12 -13 -26 34 -26 30 0 57 -6 72 -17 13 -10 41 -27 62 -37 20 -11
37 -25 37 -32 0 -17 28 -25 64 -19 20 4 38 1 51 -9 19 -13 16 -15 -43 -22 -66
-7 -73 -22 -12 -24 19 -1 69 3 110 9 62 8 78 7 90 -5 12 -12 12 -14 -7 -14
-11 0 -24 -7 -27 -16 -4 -11 -1 -14 13 -9 10 3 52 8 93 10 40 2 80 6 88 10 9
3 33 -1 55 -9 27 -10 33 -15 19 -15 -12 -1 -27 -8 -34 -16 -7 -8 -27 -19 -44
-23 -31 -9 -30 -9 17 -16 32 -5 53 -4 62 4 18 15 67 9 73 -9 3 -8 0 -11 -5 -8
-6 4 -18 -2 -28 -13 -23 -25 -9 -43 33 -42 18 0 33 -7 41 -20 12 -20 11 -21
-26 -16 -44 6 -91 -16 -60 -28 25 -9 21 -23 -8 -30 -15 -4 -25 -13 -25 -24 0
-15 6 -18 30 -15 16 2 32 0 35 -6 4 -5 10 -7 15 -4 5 3 12 0 16 -6 4 -8 -3 -9
-24 -4 -16 3 -33 2 -36 -3 -3 -6 2 -8 13 -5 22 6 37 -13 23 -30 -6 -7 -12 -23
-14 -37 -4 -34 -29 -36 -66 -5 -35 30 -118 44 -148 26 -16 -9 -13 -10 16 -5
l35 5 -35 -20 c-46 -26 -67 -26 -81 2 -18 33 -28 37 -101 37 -67 0 -68 0 -111
-46 -52 -54 -78 -53 -104 0 -8 18 -27 40 -42 49 -36 21 -112 32 -121 17 -4 -7
-23 -15 -41 -19 -20 -4 -34 -13 -34 -21 0 -8 -8 -14 -18 -14 -9 1 -15 -2 -12
-6 5 -9 -28 -50 -41 -50 -5 0 -29 14 -53 30 -24 17 -54 30 -66 30 -39 0 -82
-20 -93 -45 -10 -23 -11 -23 -46 -7 -27 12 -37 24 -42 48 -12 67 -99 114 -174
94 -44 -12 -114 -74 -130 -115 -12 -32 -35 -32 -64 0 -32 34 -55 33 -52 -2 2
-15 9 -29 17 -31 11 -3 10 -1 -1 7 -9 7 -10 11 -3 11 6 0 14 -4 18 -10 3 -5
11 -8 18 -6 7 1 9 1 5 -1 -5 -3 -3 -13 2 -24 10 -17 7 -19 -29 -19 -22 0 -47
-3 -57 -7 -11 -4 -15 -3 -11 4 5 7 -1 9 -15 5 -20 -5 -20 -6 -4 -12 16 -5 12
-12 -27 -44 -25 -21 -49 -47 -53 -59 -3 -12 -16 -29 -27 -39 -18 -13 -19 -19
-8 -32 7 -8 11 -30 10 -48 -2 -18 1 -39 5 -46 13 -22 -2 -27 -23 -8 -14 13
-24 15 -38 8 -10 -5 -25 -7 -33 -4 -9 3 -11 1 -7 -4 5 -5 19 -9 30 -9 15 0 22
-6 20 -19 -1 -13 2 -15 10 -7 7 7 6 15 -3 26 -9 11 -9 15 -1 15 6 0 14 -7 18
-16 4 -10 13 -14 29 -10 12 3 29 0 36 -6 7 -7 20 -14 28 -16 8 -2 17 -8 18
-13 2 -5 13 -9 24 -9 12 0 17 -5 14 -12 -3 -7 -9 -21 -12 -30 -4 -10 -11 -18
-16 -18 -5 0 -8 -5 -6 -12 4 -12 -36 -60 -48 -58 -4 1 -11 -4 -15 -12 -5 -7
-9 -8 -9 -2 0 6 -13 9 -30 6 -22 -3 -30 0 -30 11 0 11 8 15 29 12 18 -2 31 1
35 10 3 10 -1 12 -17 9 -12 -3 -26 -6 -32 -7 -5 -2 -16 -6 -23 -11 -9 -6 -11
0 -7 22 4 23 1 31 -14 35 -21 5 -19 36 3 67 6 8 1 6 -12 -4 -13 -12 -22 -14
-22 -7 0 7 -5 9 -11 5 -8 -4 -7 -9 2 -15 8 -4 14 -14 15 -21 3 -33 5 -38 17
-38 8 0 14 -7 14 -15 0 -8 -2 -15 -3 -15 -10 0 -64 62 -64 73 0 8 -7 20 -14
27 -11 8 -12 18 -6 36 6 15 6 24 0 24 -6 0 -10 -9 -10 -20 0 -11 -7 -20 -15
-20 -17 0 -20 -16 -5 -25 6 -4 8 -11 4 -16 -3 -5 0 -8 7 -7 7 2 18 -14 24 -37
8 -28 18 -41 35 -45 13 -3 26 -12 28 -19 3 -9 0 -11 -8 -6 -9 5 -11 4 -6 -4 6
-9 11 -9 21 -1 10 8 16 7 23 -6 10 -18 50 -24 95 -12 26 6 28 4 40 -39 8 -30
24 -56 49 -79 21 -19 38 -38 38 -43 0 -14 63 -23 71 -10 10 17 54 3 85 -27 20
-21 23 -29 12 -35 -10 -7 -9 -9 4 -9 9 0 32 -21 50 -47 38 -57 35 -52 96 -128
27 -33 56 -72 66 -87 31 -47 62 -30 71 37 1 6 10 28 20 50 43 96 66 166 58
178 -4 6 -1 7 7 2 10 -6 12 -4 7 8 -3 10 -3 17 1 17 5 0 7 14 6 30 -2 27 1 30
26 30 30 0 49 -15 28 -22 -9 -3 -8 -9 5 -22 9 -10 15 -22 12 -27 -4 -5 -2 -9
4 -9 5 0 33 -48 62 -107 29 -60 63 -121 75 -138 12 -16 32 -52 44 -80 21 -46
35 -64 51 -65 7 0 9 4 37 100 28 93 91 263 102 274 11 11 107 -37 128 -62 6
-9 12 -27 12 -40 0 -13 6 -36 14 -50 21 -39 61 -131 77 -174 15 -43 29 -48 45
-15 27 56 138 266 160 302 13 22 29 50 34 63 5 12 14 22 19 22 22 0 69 -53 86
-97 10 -26 28 -70 40 -98 12 -27 31 -69 41 -92 10 -24 23 -43 29 -43 6 0 27
21 45 48 19 26 37 49 40 52 3 3 38 49 78 103 79 106 105 121 115 65 3 -18 13
-76 22 -128 8 -52 21 -106 27 -120 6 -14 11 -47 9 -75 -2 -55 10 -107 25 -112
6 -2 17 9 24 24 8 16 26 44 40 63 14 19 39 61 55 93 31 60 62 89 69 65 8 -25
26 -224 31 -343 7 -145 13 -195 27 -195 7 0 8 36 3 113 -4 61 -9 150 -10 197
-6 149 -17 260 -26 260 -5 0 -4 9 3 19 9 15 9 23 0 33 -9 11 -9 17 0 26 8 8 7
13 -6 18 -20 8 -51 -27 -34 -37 7 -4 6 -13 -1 -27 -7 -14 -8 -23 -1 -27 17
-11 0 -25 -23 -20 -17 4 -27 -3 -47 -32 -41 -64 -61 -103 -50 -103 5 0 10 -7
10 -15 0 -18 -11 -19 -29 -2 -8 6 -11 7 -8 2 3 -6 1 -17 -4 -25 -7 -12 -10
-11 -15 8 -4 12 -10 22 -14 22 -4 0 -5 22 -2 48 2 30 -4 81 -16 133 -12 46
-23 103 -25 127 -3 24 -10 49 -16 55 -20 20 -13 47 13 47 13 0 40 7 59 15 27
11 35 19 30 32 -5 12 -2 15 10 10 19 -7 38 14 39 45 1 63 4 67 62 67 32 0 68
7 87 17 32 16 34 16 44 -1 55 -93 101 -125 183 -125 31 0 52 4 52 11 0 6 7 9
15 5 9 -3 29 3 45 12 33 21 77 72 61 72 -6 0 -11 5 -11 10 0 6 7 10 15 10 17
0 21 35 5 45 -12 7 -13 65 -2 65 5 0 30 -6 55 -14 29 -9 47 -10 47 -4 0 6 8 7
18 3 45 -18 126 -35 131 -27 11 17 74 33 81 21 4 -6 10 2 13 18 4 15 15 39 25
52 l19 23 50 -26 c28 -14 57 -32 65 -39 8 -8 34 -25 59 -37 24 -12 48 -29 52
-36 4 -8 14 -14 21 -14 15 0 96 -61 147 -110 68 -67 149 -183 136 -196 -2 -2
-30 -9 -63 -14 -89 -16 -104 -20 -104 -28 0 -4 33 -5 73 -1 39 4 82 5 93 2 32
-7 36 10 18 64 -35 104 -172 251 -331 356 -63 42 -76 57 -47 57 35 0 120 51
142 85 31 49 30 125 -3 187 l-25 46 29 7 c35 7 75 48 95 97 22 51 20 78 -8
141 -31 71 -72 100 -148 105 l-58 4 0 57 c0 71 -23 110 -86 147 -37 22 -60 28
-108 28 -66 1 -78 -5 -146 -68 -44 -41 -51 -42 -84 -21 -14 10 -47 16 -82 16
-33 0 -81 9 -109 19 -72 26 -187 49 -285 58 -47 4 -85 11 -85 17 0 5 36 23 79
40 44 17 81 36 84 43 5 17 -86 57 -193 84 -79 19 -116 22 -297 23 -129 0 -207
4 -205 10 2 5 34 26 71 46 37 20 75 43 83 52 39 38 -90 67 -292 66 -66 -1
-143 -5 -172 -10z m244 -45 c-3 -3 -12 -4 -19 -1 -8 3 -5 6 6 6 11 1 17 -2 13
-5z m-269 -21 c-16 -2 -28 -9 -28 -14 0 -5 -6 -9 -14 -9 -7 0 -19 -7 -26 -15
-7 -8 -25 -15 -40 -15 -34 0 -110 -39 -110 -56 0 -6 -8 -14 -17 -18 -10 -3
-26 -11 -35 -18 -9 -7 -20 -9 -24 -5 -26 25 214 157 281 155 30 -1 33 -2 13
-5z m337 -3 c3 -5 1 -10 -4 -10 -6 0 -11 5 -11 10 0 6 2 10 4 10 3 0 8 -4 11
-10z m-85 -49 c0 -5 -7 -14 -15 -21 -12 -10 -15 -10 -15 2 0 8 3 18 7 21 9 10
23 9 23 -2z m-990 -41 c0 -5 -5 -10 -11 -10 -5 0 -7 5 -4 10 3 6 8 10 11 10 2
0 4 -4 4 -10z m914 -31 c-18 -20 -18 -21 -1 -34 10 -7 27 -11 37 -8 24 6 27
-12 4 -21 -21 -8 -74 30 -74 53 0 10 10 23 23 28 30 14 34 7 11 -18z m496 -23
c14 -2 30 -5 35 -6 6 -1 -3 -6 -20 -10 -46 -12 -170 -11 -182 1 -7 7 -23 7
-54 -1 -32 -9 -44 -9 -47 -1 -3 8 -8 8 -15 3 -29 -23 -117 -24 -117 -2 0 18
315 31 400 16z m-994 -43 c-10 -10 -19 5 -10 18 6 11 8 11 12 0 2 -7 1 -15 -2
-18z m224 -13 c12 -8 11 -10 -7 -10 -13 0 -23 5 -23 10 0 13 11 13 30 0z m142
-21 c63 -13 85 -29 41 -29 -18 0 -35 5 -38 10 -3 6 -22 10 -41 10 -19 0 -34 5
-34 10 0 13 7 13 72 -1z m-212 -15 c0 -9 -5 -14 -12 -12 -18 6 -21 28 -4 28 9
0 16 -7 16 -16z m973 7 c14 -2 -4 -22 -26 -32 -12 -5 -32 -16 -44 -25 -22 -16
-23 -16 -23 9 0 27 40 56 70 51 8 -1 19 -3 23 -3z m-873 -81 c0 -5 -10 -6 -22
-2 -16 4 -20 2 -15 -10 4 -12 -1 -15 -26 -12 -18 1 -36 3 -41 3 -16 1 3 15 37
26 33 11 67 9 67 -5z m920 -35 c0 -14 -43 -46 -58 -43 -9 1 -23 -1 -29 -5 -8
-5 -13 -4 -13 2 0 6 5 11 10 11 6 0 10 5 10 10 0 6 -9 10 -20 10 -12 0 -20 -7
-20 -17 0 -15 -2 -16 -10 -3 -8 12 -10 12 -10 1 0 -8 -3 -11 -7 -7 -17 16 41
43 94 45 29 0 53 -1 53 -4z m-852 -22 c2 -9 -8 -13 -32 -13 -38 0 -57 16 -29
23 29 8 56 3 61 -10z m1050 3 c93 -15 160 -32 175 -46 4 -4 -3 -15 -17 -24
-25 -16 -26 -16 -26 4 0 18 -6 20 -85 20 -66 0 -85 3 -85 14 0 17 -22 26 -65
26 -19 0 -37 5 -40 10 -8 14 32 12 143 -4z m-148 -116 c0 -5 -11 -12 -25 -16
-14 -3 -25 -11 -25 -17 0 -6 -3 -7 -7 -4 -8 9 27 47 44 47 7 0 13 -4 13 -10z
m-460 -30 c0 -5 -10 -10 -22 -10 -19 0 -20 2 -8 10 19 13 30 13 30 0z m722
-25 c-2 -14 -10 -25 -17 -25 -18 0 -28 32 -13 42 24 15 35 9 30 -17z m-344
-14 c2 -1 0 -6 -3 -11 -5 -8 -11 -8 -19 -1 -7 6 -17 7 -21 3 -5 -4 -5 -2 -2 5
6 9 18 10 45 4z m-201 -62 c11 -10 10 -14 -3 -24 -10 -6 -14 -17 -10 -23 9
-15 -15 -21 -43 -10 -20 7 -29 4 -45 -13 -16 -17 -16 -19 -3 -9 13 10 20 11
25 2 4 -6 20 -9 34 -8 15 2 25 -1 22 -5 -3 -5 -11 -9 -19 -9 -8 0 -11 -7 -8
-19 3 -13 -1 -21 -14 -24 -15 -4 -14 -5 5 -6 30 -1 28 -21 -2 -21 -16 0 -27 7
-31 19 -9 30 -44 70 -75 86 -33 17 -85 21 -150 11 -42 -6 -44 -6 -26 9 11 8
36 15 56 15 44 0 54 8 37 29 -10 14 -10 14 3 4 10 -8 34 -10 65 -6 28 3 60 6
72 7 12 0 25 5 30 9 10 10 61 1 80 -14z m53 -29 c0 -5 -4 -10 -10 -10 -5 0
-10 5 -10 10 0 6 5 10 10 10 6 0 10 -4 10 -10z m124 -36 c9 -23 8 -24 -13 -24
-25 0 -38 20 -20 31 20 12 26 11 33 -7z m-147 0 c-3 -3 -12 -4 -19 -1 -8 3 -5
6 6 6 11 1 17 -2 13 -5z m-2047 -114 c0 -5 -2 -10 -4 -10 -3 0 -8 5 -11 10 -3
6 -1 10 4 10 6 0 11 -4 11 -10z m310 -261 c0 -6 10 -10 23 -9 42 4 48 0 64
-37 25 -59 27 -107 7 -138 -20 -30 -69 -55 -109 -55 -37 0 -112 46 -118 73 -8
35 1 117 14 133 28 34 119 59 119 33z m761 -29 c10 -6 19 -21 19 -35 0 -13 5
-25 11 -27 19 -6 17 -62 -4 -108 -26 -57 -31 -60 -93 -60 -58 0 -109 30 -101
59 2 9 -2 22 -10 29 -7 7 -10 18 -6 25 4 6 6 25 5 42 -3 36 20 61 64 75 41 12
92 12 115 0z m464 0 c3 -5 1 -10 -4 -10 -6 0 -11 5 -11 10 0 6 2 10 4 10 3 0
8 -4 11 -10z m206 -21 c10 -16 -18 -42 -38 -35 -7 3 -13 1 -13 -4 0 -6 8 -11
18 -11 16 -1 16 -2 0 -6 -29 -7 -21 -23 11 -23 16 0 36 7 45 15 8 8 19 15 25
15 15 0 14 -30 -1 -30 -7 0 -5 -5 5 -11 9 -6 15 -15 11 -20 -3 -6 -12 -5 -22
3 -13 11 -15 10 -10 -10 5 -18 3 -22 -11 -17 -9 2 -31 1 -48 -4 -26 -8 -31 -7
-26 6 8 21 -17 34 -54 27 -39 -7 -44 7 -11 30 15 11 18 16 8 16 -13 0 -13 1 0
9 8 6 18 7 22 5 4 -3 8 5 8 18 0 13 5 29 11 35 14 14 59 9 70 -8z m662 7 c4
-10 0 -12 -14 -9 -22 6 -26 23 -5 23 8 0 16 -6 19 -14z m-676 -171 c0 -10 -10
-15 -29 -15 -44 0 -32 27 13 29 9 1 16 -6 16 -14z m263 -40 c0 -1 -8 -5 -18
-7 -11 -3 -19 0 -19 7 0 7 8 10 19 7 10 -2 18 -6 18 -7z m33 -46 c15 0 25 -4
22 -9 -3 -5 0 -18 7 -30 9 -14 10 -25 2 -37 -16 -25 -27 -25 -54 0 -38 35 -65
39 -89 13 -19 -20 -19 -24 -6 -42 31 -41 7 -47 -32 -8 -29 29 -41 76 -17 67 8
-3 14 0 14 6 0 6 -4 11 -9 11 -5 0 -11 6 -14 13 -3 9 6 14 26 15 17 2 33 5 36
8 3 3 24 3 46 0 22 -4 53 -7 68 -7z m-438 -37 c-8 -8 -25 10 -19 20 4 6 9 5
15 -3 4 -7 6 -15 4 -17z m-1037 7 c-2 -6 -8 -10 -13 -10 -5 0 -11 4 -13 10 -2
6 4 11 13 11 9 0 15 -5 13 -11z m877 -19 c17 -7 15 -9 -12 -9 -17 -1 -35 4
-38 9 -7 12 22 12 50 0z m-838 -30 c33 -20 63 -74 63 -114 0 -17 2 -18 10 -6
10 17 25 7 25 -18 0 -22 57 -59 103 -67 37 -6 56 -1 116 32 23 12 30 13 37 2
6 -11 9 -10 15 4 3 9 10 14 15 11 16 -10 9 -24 -17 -34 -14 -6 -23 -14 -20
-18 3 -5 -1 -21 -9 -36 -8 -14 -10 -24 -5 -21 5 3 11 1 15 -5 3 -5 -1 -10 -9
-10 -9 0 -21 -18 -30 -47 -42 -132 -48 -144 -70 -141 -15 2 -34 29 -70 100
-37 71 -53 95 -65 91 -12 -3 -13 -2 -4 4 10 7 6 21 -15 61 -15 28 -33 52 -41
52 -7 0 -11 6 -7 15 3 8 -5 25 -19 39 -14 14 -25 23 -25 21 0 -3 -9 4 -20 15
-11 11 -24 20 -29 20 -5 0 -11 13 -13 30 -4 28 -1 31 32 39 3 0 20 -8 37 -19z
m884 0 c15 0 10 -27 -6 -34 -8 -3 -15 -18 -15 -34 0 -24 -70 -170 -150 -312
-10 -19 -24 -47 -31 -62 -6 -16 -17 -28 -24 -28 -18 0 -42 41 -51 86 -3 21
-10 44 -14 49 -4 6 -14 29 -23 51 l-16 42 43 12 c24 6 62 29 86 49 44 37 44
38 44 105 l1 67 35 -5 c21 -4 45 0 60 9 14 8 31 12 38 10 8 -3 18 -5 23 -5z
m97 -17 c-3 -25 0 -28 22 -25 47 6 85 10 119 11 29 1 32 3 20 17 -11 14 -10
15 11 12 17 -2 24 -10 25 -27 2 -31 -15 -91 -27 -91 -4 0 -8 -7 -8 -15 0 -18
-27 -33 -76 -40 -32 -5 -47 -1 -85 23 -43 28 -47 34 -51 79 -4 39 -1 51 15 66
28 24 39 21 35 -10z m446 -28 c-6 -16 -54 -21 -54 -7 0 15 12 22 36 22 17 0
22 -4 18 -15z m-1825 -25 c4 0 13 -21 20 -47 17 -67 74 -108 147 -107 30 0 62
7 76 16 15 10 30 13 38 8 13 -8 11 -19 -20 -95 -5 -11 -16 -41 -26 -67 -9 -27
-22 -48 -29 -48 -7 0 -28 19 -47 42 -18 23 -45 55 -60 71 -16 16 -28 31 -28
34 0 18 -45 63 -62 63 -12 0 -19 3 -15 6 3 4 -7 26 -23 50 -17 23 -30 49 -30
57 0 17 19 27 38 21 8 -2 17 -4 21 -4z m1670 -16 c17 -14 31 -29 31 -33 0 -5
-11 -25 -25 -46 -17 -23 -23 -44 -19 -57 4 -15 2 -19 -12 -16 -20 3 -124 -135
-124 -165 0 -11 -5 -16 -12 -13 -7 3 -20 9 -30 12 -9 3 -19 18 -23 32 -4 15
-15 45 -26 69 -10 23 -19 46 -19 51 0 6 -7 12 -15 16 -8 3 -15 10 -15 16 0 11
48 8 67 -3 19 -12 92 4 125 27 18 11 38 37 45 56 13 33 12 34 -3 15 -15 -19
-16 -18 -9 15 12 60 19 62 64 24z m-109 -73 c0 -12 -20 -25 -27 -18 -7 7 6 27
18 27 5 0 9 -4 9 -9z m-1310 -31 c0 -5 -2 -10 -4 -10 -3 0 -8 5 -11 10 -3 6
-1 10 4 10 6 0 11 -4 11 -10z m385 -309 c3 -5 1 -12 -5 -16 -5 -3 -10 1 -10 9
0 18 6 21 15 7z"/>
<path d="M2260 8020 c0 -5 9 -10 21 -10 11 0 17 5 14 10 -3 6 -13 10 -21 10
-8 0 -14 -4 -14 -10z"/>
<path d="M3696 7618 c19 -21 19 -21 -4 -15 -30 7 -41 -19 -16 -38 20 -14 38
-10 29 6 -4 5 -1 9 4 9 6 0 11 9 11 20 0 11 -5 20 -11 20 -5 0 -7 5 -4 10 3 6
-2 10 -11 10 -16 0 -15 -2 2 -22z"/>
<path d="M2140 7576 c0 -2 7 -9 15 -16 9 -7 15 -8 15 -2 0 5 -7 12 -15 16 -8
3 -15 4 -15 2z"/>
<path d="M2755 9040 c-3 -5 1 -10 9 -10 9 0 16 5 16 10 0 6 -4 10 -9 10 -6 0
-13 -4 -16 -10z"/>
<path d="M2906 8972 c-3 -5 1 -9 9 -9 8 0 12 4 9 9 -3 4 -7 8 -9 8 -2 0 -6 -4
-9 -8z"/>
<path d="M1755 8930 c-3 -5 -1 -10 4 -10 6 0 11 5 11 10 0 6 -2 10 -4 10 -3 0
-8 -4 -11 -10z"/>
<path d="M1691 8899 c-19 -11 -30 -24 -25 -29 5 -4 39 -17 77 -29 112 -34 135
-54 75 -64 -48 -8 -105 -25 -90 -27 6 -1 28 -2 47 -2 118 0 155 3 155 12 0 6
-7 10 -15 10 -8 0 -15 8 -15 17 0 9 -3 14 -6 10 -7 -7 -117 45 -138 65 -9 9
-21 18 -28 20 -10 4 -10 8 1 21 18 23 3 21 -38 -4z"/>
<path d="M2645 8810 c3 -5 10 -10 16 -10 5 0 9 5 9 10 0 6 -7 10 -16 10 -8 0
-12 -4 -9 -10z"/>
<path d="M879 8750 c-20 -11 -39 -26 -43 -35 -5 -14 -3 -14 24 0 41 21 127 19
170 -5 19 -11 31 -19 26 -20 -5 0 -3 -7 5 -16 7 -9 15 -48 19 -87 l5 -72 28
53 c33 63 75 92 135 92 77 0 137 -50 149 -125 l6 -35 -56 0 c-59 0 -147 -33
-147 -55 0 -7 -9 -20 -19 -29 -12 -11 -17 -25 -14 -37 5 -19 7 -18 20 8 21 43
60 66 119 71 50 4 54 3 98 -39 27 -24 45 -48 41 -56 -7 -18 -13 -40 -8 -31 7
13 41 -15 36 -29 -3 -7 0 -13 6 -13 7 0 14 7 17 15 5 13 9 13 23 3 13 -10 13
-9 -1 8 -21 24 -23 35 -5 28 8 -3 13 3 13 15 0 11 -3 19 -6 19 -30 -3 -50 43
-29 68 6 8 15 29 18 47 4 17 10 30 13 27 4 -3 17 5 31 18 38 36 85 39 144 9
32 -17 53 -34 56 -49 5 -19 8 -20 19 -9 10 11 10 14 1 18 -7 3 -13 12 -13 21
-1 42 -95 74 -170 59 -44 -9 -100 -53 -100 -78 0 -7 -10 -9 -25 -7 -14 3 -25
0 -26 -6 -1 -20 -18 28 -18 54 -1 14 -11 40 -24 59 -12 19 -26 42 -32 50 -6 9
-23 16 -42 16 -18 -1 -33 3 -33 7 0 11 -71 7 -95 -5 -11 -5 -28 -18 -38 -28
-32 -34 -60 -24 -84 31 -37 84 -115 112 -194 70z"/>
<path d="M1640 8756 c0 -2 11 -6 25 -8 14 -3 25 -1 25 3 0 5 -11 9 -25 9 -14
0 -25 -2 -25 -4z"/>
<path d="M1478 8713 c7 -3 16 -2 19 1 4 3 -2 6 -13 5 -11 0 -14 -3 -6 -6z"/>
<path d="M2986 8711 c-9 -14 21 -21 57 -14 31 7 31 7 7 14 -36 10 -58 10 -64
0z"/>
<path d="M3560 8540 c0 -5 5 -10 10 -10 6 0 10 5 10 10 0 6 -4 10 -10 10 -5 0
-10 -4 -10 -10z"/>
<path d="M776 8533 c-4 -5 -35 -8 -69 -9 -36 0 -71 -6 -84 -14 -28 -18 -31
-35 -4 -20 48 25 159 5 199 -36 26 -27 38 -30 45 -11 3 7 -13 32 -34 55 -43
46 -42 45 -53 35z"/>
<path d="M1690 8515 c0 -8 2 -15 4 -15 2 0 6 7 10 15 3 8 1 15 -4 15 -6 0 -10
-7 -10 -15z"/>
<path d="M1570 8491 c0 -3 4 -12 9 -19 6 -11 9 -9 13 5 3 12 0 20 -8 20 -8 0
-14 -3 -14 -6z"/>
<path d="M1532 8455 c-9 -19 -9 -23 2 -19 15 6 29 44 17 44 -4 0 -13 -11 -19
-25z"/>
<path d="M569 8453 c-13 -16 -12 -17 4 -4 9 7 17 15 17 17 0 8 -8 3 -21 -13z"/>
<path d="M1761 8454 c0 -11 3 -14 6 -6 3 7 2 16 -1 19 -3 4 -6 -2 -5 -13z"/>
<path d="M1670 8451 c0 -6 4 -13 10 -16 6 -3 7 1 4 9 -7 18 -14 21 -14 7z"/>
<path d="M1345 8440 c3 -5 8 -10 11 -10 2 0 4 5 4 10 0 6 -5 10 -11 10 -5 0
-7 -4 -4 -10z"/>
<path d="M3482 8431 c-30 -25 -28 -31 13 -31 20 0 35 -5 35 -12 0 -6 2 -9 5
-7 6 7 -17 69 -26 69 -3 0 -16 -8 -27 -19z"/>
<path d="M954 8425 c-18 -15 -15 -15 31 -10 42 5 58 2 98 -19 55 -30 59 -26
15 15 -26 23 -42 29 -78 29 -27 0 -54 -7 -66 -15z"/>
<path d="M1726 8414 c-4 -9 -4 -19 -1 -22 2 -3 7 3 11 12 4 9 4 19 1 22 -2 3
-7 -3 -11 -12z"/>
<path d="M1563 8413 c-15 -5 -17 -23 -4 -23 5 0 11 7 15 15 3 8 4 15 3 14 -1
0 -8 -3 -14 -6z"/>
<path d="M1648 8413 c6 -3 12 -12 12 -21 0 -15 2 -15 10 -2 14 22 12 26 -12
27 -13 0 -17 -1 -10 -4z"/>
<path d="M1291 8403 c-1 -7 -7 -11 -13 -9 -7 1 -9 1 -5 -2 4 -2 2 -11 -5 -20
-9 -12 -6 -11 10 2 22 19 22 19 22 0 0 -16 2 -17 10 -4 12 19 13 33 1 26 -5
-4 -12 0 -14 6 -4 10 -6 10 -6 1z"/>
<path d="M1595 8400 c3 -5 10 -10 16 -10 5 0 9 5 9 10 0 6 -7 10 -16 10 -8 0
-12 -4 -9 -10z"/>
<path d="M1345 8389 c-4 -6 -1 -17 7 -25 12 -12 14 -11 15 6 2 23 -13 35 -22
19z"/>
<path d="M1395 8390 c3 -5 8 -10 11 -10 2 0 4 5 4 10 0 6 -5 10 -11 10 -5 0
-7 -4 -4 -10z"/>
<path d="M1732 8363 c-10 -21 -17 -45 -15 -54 3 -13 -2 -17 -21 -15 -13 0 -22
4 -20 8 2 4 -1 10 -7 14 -7 4 -9 3 -5 -4 3 -5 0 -12 -6 -15 -7 -2 -1 -8 15
-12 15 -4 27 -11 27 -16 0 -13 28 -11 36 3 5 7 3 8 -6 3 -9 -5 -11 -4 -6 3 4
7 15 12 25 12 10 0 21 9 24 20 3 13 10 18 21 14 10 -4 18 0 22 10 6 15 8 15
30 1 21 -14 27 -14 44 -2 11 8 17 17 13 20 -3 4 4 7 16 7 17 0 21 -4 17 -15
-3 -8 -1 -15 3 -15 15 0 22 33 9 41 -7 5 -42 8 -78 8 -36 0 -71 1 -79 3 -7 1
-21 -12 -30 -29 -9 -18 -19 -33 -23 -33 -13 0 -9 24 8 48 9 13 14 26 11 29 -3
3 -14 -12 -25 -34z m150 -10 c-6 -3 -10 -9 -6 -14 8 -14 -12 -11 -24 4 -8 9
-4 12 16 13 15 1 21 -1 14 -3z"/>
<path d="M1210 8375 c-11 -13 -10 -14 4 -9 9 3 16 10 16 15 0 13 -6 11 -20 -6z"/>
<path d="M3572 8378 c-7 -7 -12 -16 -12 -21 0 -5 7 -1 16 8 9 9 14 18 12 20
-2 3 -10 -1 -16 -7z"/>
<path d="M1550 8348 c0 -4 6 -8 14 -8 8 0 17 4 20 8 2 4 -4 8 -15 8 -10 0 -19
-4 -19 -8z"/>
<path d="M1208 8343 c7 -3 16 -2 19 1 4 3 -2 6 -13 5 -11 0 -14 -3 -6 -6z"/>
<path d="M1610 8346 c0 -2 7 -7 16 -10 8 -3 12 -2 9 4 -6 10 -25 14 -25 6z"/>
<path d="M1141 8324 c0 -11 3 -14 6 -6 3 7 2 16 -1 19 -3 4 -6 -2 -5 -13z"/>
<path d="M541 8319 c-2 -30 44 -84 89 -107 49 -24 53 -43 19 -75 -10 -10 -19
-22 -19 -28 0 -5 14 6 30 25 17 19 55 45 85 57 81 33 71 44 -40 44 -91 0 -96
2 -120 28 -14 14 -30 37 -35 49 -6 15 -9 17 -9 7z"/>
<path d="M1904 8315 c-4 -8 -14 -15 -24 -15 -11 0 -22 -4 -25 -10 -3 -5 -1
-10 6 -10 7 0 5 -6 -5 -13 -17 -13 -18 -14 -2 -20 10 -4 15 -3 11 3 -3 6 1 13
9 16 9 3 14 10 11 14 -8 12 20 19 36 9 11 -7 10 -9 -6 -9 -16 0 -17 -2 -5 -10
20 -13 34 12 15 26 -18 13 -20 28 -3 18 7 -4 8 -3 4 4 -10 16 -15 15 -22 -3z"/>
<path d="M1173 8299 c2 -17 8 -26 22 -27 11 0 15 2 9 6 -6 4 -16 16 -21 27
-10 18 -11 17 -10 -6z"/>
<path d="M1198 8313 c7 -3 16 -2 19 1 4 3 -2 6 -13 5 -11 0 -14 -3 -6 -6z"/>
<path d="M1433 8310 c-13 -5 -23 -12 -23 -15 0 -9 16 -5 36 10 22 16 19 18
-13 5z"/>
<path d="M1390 8291 c0 -10 19 -25 25 -20 1 2 -3 10 -11 17 -8 7 -14 8 -14 3z"/>
<path d="M1141 8264 c0 -11 3 -14 6 -6 3 7 2 16 -1 19 -3 4 -6 -2 -5 -13z"/>
<path d="M1360 8272 c0 -5 7 -15 15 -22 8 -7 15 -9 15 -6 0 4 -7 14 -15 22 -8
9 -15 11 -15 6z"/>
<path d="M1811 8264 c0 -11 3 -14 6 -6 3 7 2 16 -1 19 -3 4 -6 -2 -5 -13z"/>
<path d="M1985 8260 c3 -5 11 -10 16 -10 6 0 7 5 4 10 -3 6 -11 10 -16 10 -6
0 -7 -4 -4 -10z"/>
<path d="M1180 8245 c-7 -9 -19 -14 -27 -11 -7 3 -13 -1 -13 -8 0 -7 19 -21
43 -30 l42 -17 -48 -25 c-65 -34 -87 -72 -87 -154 0 -52 5 -73 25 -105 13 -22
25 -44 25 -49 0 -4 -27 -6 -60 -4 -45 3 -66 10 -85 28 -33 31 -48 91 -42 160
3 30 3 46 0 35 -3 -11 -10 -27 -17 -35 -7 -8 -18 -27 -25 -42 -35 -70 -106
-94 -185 -64 -64 25 -89 56 -90 115 -1 52 -16 61 -16 10 0 -68 61 -150 125
-168 43 -12 100 1 129 28 12 12 34 21 49 21 24 0 26 -2 17 -26 -12 -30 -4 -48
16 -40 8 3 13 0 11 -6 -1 -6 18 -22 43 -35 51 -28 108 -31 161 -9 19 8 46 12
60 9 17 -3 30 1 40 13 12 16 12 17 -3 12 -22 -9 -88 12 -88 28 0 6 -7 14 -15
18 -8 3 -15 12 -15 21 0 8 -5 14 -11 13 -6 -2 -14 3 -17 11 -2 8 -1 11 4 8 5
-3 9 5 9 17 0 13 -5 23 -12 23 -6 0 -9 -7 -6 -16 3 -12 2 -12 -7 1 -26 41 47
169 87 154 7 -3 24 -1 36 3 18 7 26 5 35 -10 7 -10 18 -19 25 -19 6 0 4 5 -5
11 -28 16 -21 24 19 24 54 0 56 27 4 45 -22 7 -38 18 -34 23 3 6 1 7 -6 3 -14
-9 -83 32 -75 45 9 15 -2 10 -16 -6z"/>
<path d="M1776 8244 c-9 -23 -7 -46 3 -40 12 8 21 45 11 51 -4 3 -11 -2 -14
-11z"/>
<path d="M1474 8224 c-18 -14 -18 -14 6 -3 31 14 36 19 24 19 -6 0 -19 -7 -30
-16z"/>
<path d="M1658 8203 c23 -21 42 -46 42 -55 0 -9 5 -20 11 -23 5 -4 8 -21 5
-38 -4 -27 -3 -26 6 6 9 28 17 37 34 37 14 0 25 8 29 20 7 22 -1 40 -17 40 -7
0 -6 -5 2 -15 15 -18 5 -35 -22 -35 -14 0 -18 5 -14 15 3 9 0 15 -9 15 -8 0
-15 6 -15 13 0 7 -17 22 -37 32 -59 30 -61 29 -15 -12z"/>
<path d="M1405 8220 c-3 -5 -1 -10 4 -10 6 0 11 5 11 10 0 6 -2 10 -4 10 -3 0
-8 -4 -11 -10z"/>
<path d="M1851 8207 c-1 -21 21 -18 27 4 3 12 2 12 -6 0 -8 -11 -10 -11 -15 0
-4 10 -6 8 -6 -4z"/>
<path d="M1368 8203 c6 -2 10 -9 6 -14 -11 -18 -13 -69 -3 -69 6 0 8 4 4 9 -3
5 0 13 6 17 8 5 8 8 -1 14 -8 5 -7 11 4 23 14 14 14 16 0 21 -9 3 -19 6 -22 5
-4 0 -1 -3 6 -6z"/>
<path d="M1318 8193 c6 -2 18 -2 25 0 6 3 1 5 -13 5 -14 0 -19 -2 -12 -5z"/>
<path d="M900 8180 c0 -23 55 -45 111 -45 47 0 62 5 83 24 34 32 28 35 -19 11
-49 -25 -78 -25 -132 0 -24 10 -43 15 -43 10z"/>
<path d="M1811 8174 c0 -11 3 -14 6 -6 3 7 2 16 -1 19 -3 4 -6 -2 -5 -13z"/>
<path d="M1417 8119 c-8 -28 -3 -34 11 -16 6 7 7 19 3 26 -6 9 -10 6 -14 -10z"/>
<path d="M1166 8105 c-28 -22 -49 -66 -36 -79 8 -8 9 -6 5 7 -4 10 -2 17 4 17
6 0 11 8 11 18 0 9 12 25 28 34 15 10 23 17 17 17 -5 0 -18 -6 -29 -14z"/>
<path d="M1245 8089 c-11 -16 -1 -19 13 -3 7 8 8 14 3 14 -5 0 -13 -5 -16 -11z"/>
<path d="M1210 8070 c0 -5 5 -10 10 -10 6 0 10 5 10 10 0 6 -4 10 -10 10 -5 0
-10 -4 -10 -10z"/>
<path d="M1270 8070 c0 -5 7 -7 15 -4 8 4 15 8 15 10 0 2 -7 4 -15 4 -8 0 -15
-4 -15 -10z"/>
<path d="M1420 8071 c0 -6 4 -13 10 -16 6 -3 7 1 4 9 -7 18 -14 21 -14 7z"/>
<path d="M1360 8060 c-13 -8 -12 -10 3 -10 9 0 17 5 17 10 0 12 -1 12 -20 0z"/>
<path d="M1205 8040 c-3 -5 -13 -7 -23 -4 -13 5 -14 4 -3 -4 11 -8 10 -11 -5
-15 -14 -3 -15 -5 -3 -6 9 0 24 8 34 19 10 11 15 20 12 20 -3 0 -8 -4 -12 -10z"/>
<path d="M1665 8030 c-10 -11 -37 -29 -61 -41 -24 -11 -44 -25 -44 -30 0 -12
46 -1 93 22 21 10 45 19 55 20 10 0 12 3 5 6 -7 2 -13 13 -13 24 0 24 -12 24
-35 -1z"/>
<path d="M1363 8015 c-6 -14 -8 -23 -3 -20 13 8 19 -22 7 -36 -10 -11 -9 -11
4 -1 16 12 29 7 29 -10 0 -5 -4 -7 -9 -4 -4 3 -19 -6 -32 -21 -13 -14 -18 -23
-11 -19 11 7 11 4 0 -13 -7 -12 -21 -24 -30 -27 -27 -8 -22 -18 16 -35 30 -14
33 -14 28 -1 -4 11 -1 14 12 9 9 -4 15 -3 11 2 -8 14 6 42 18 34 7 -4 8 0 4
11 -6 14 -3 17 9 12 12 -4 15 -2 10 9 -3 8 -1 15 4 15 16 0 11 27 -6 34 -8 3
-13 10 -10 15 3 5 -2 8 -12 7 -9 0 -16 5 -14 12 1 6 -3 12 -8 12 -7 0 -7 6 0
20 6 11 7 20 3 20 -4 0 -13 -11 -20 -25z m27 -95 c0 -5 -4 -10 -10 -10 -5 0
-10 5 -10 10 0 6 5 10 10 10 6 0 10 -4 10 -10z"/>
<path d="M1240 8020 c20 -13 33 -13 25 0 -3 6 -14 10 -23 10 -15 0 -15 -2 -2
-10z"/>
<path d="M1735 8010 c-3 -5 -1 -10 4 -10 6 0 11 5 11 10 0 6 -2 10 -4 10 -3 0
-8 -4 -11 -10z"/>
<path d="M1181 7986 c-9 -11 -9 -16 1 -22 7 -4 10 -4 6 1 -4 4 -3 14 3 22 6 7
9 13 6 13 -2 0 -10 -6 -16 -14z"/>
<path d="M1435 7970 c-3 -6 1 -7 9 -4 18 7 21 14 7 14 -6 0 -13 -4 -16 -10z"/>
<path d="M1291 7963 c-1 -7 -7 -10 -15 -7 -7 3 -16 -2 -19 -10 -4 -9 -2 -16 3
-16 6 0 10 4 10 9 0 10 32 7 49 -3 11 -7 36 22 27 31 -4 4 -15 2 -26 -5 -14
-9 -20 -9 -23 1 -4 9 -6 9 -6 0z m49 -7 c0 -3 -4 -8 -10 -11 -5 -3 -10 -1 -10
4 0 6 5 11 10 11 6 0 10 -2 10 -4z"/>
<path d="M1517 7953 c22 -17 30 -16 30 1 0 8 -10 13 -24 12 -21 -1 -22 -2 -6
-13z"/>
<path d="M1195 7950 c-3 -5 -1 -10 4 -10 6 0 11 5 11 10 0 6 -2 10 -4 10 -3 0
-8 -4 -11 -10z"/>
<path d="M1674 7939 c-4 -7 -3 -9 4 -5 5 3 12 0 15 -6 2 -7 7 -10 11 -7 4 3 0
12 -8 18 -11 9 -16 9 -22 0z"/>
<path d="M1457 7923 c4 -9 2 -14 -3 -10 -5 3 -10 -2 -10 -12 0 -10 6 -18 12
-18 7 0 10 7 6 15 -4 12 2 14 31 10 19 -2 33 0 31 4 -3 4 -16 8 -30 8 -13 0
-24 5 -24 10 0 6 -4 10 -10 10 -5 0 -6 -7 -3 -17z"/>
<path d="M1570 7920 c0 -5 5 -10 11 -10 5 0 7 5 4 10 -3 6 -8 10 -11 10 -2 0
-4 -4 -4 -10z"/>
<path d="M1800 7900 c-6 -11 -7 -20 -2 -20 6 0 12 9 15 20 3 11 3 20 1 20 -2
0 -8 -9 -14 -20z"/>
<path d="M1750 7896 c0 -2 7 -7 16 -10 8 -3 12 -2 9 4 -6 10 -25 14 -25 6z"/>
<path d="M1826 7892 c-3 -5 1 -9 9 -9 8 0 12 4 9 9 -3 4 -7 8 -9 8 -2 0 -6 -4
-9 -8z"/>
<path d="M1414 7825 c-3 -8 -4 -20 -2 -27 3 -7 7 -1 10 15 6 29 1 36 -8 12z"/>
<path d="M1631 7808 c-1 -23 -7 -41 -18 -48 -15 -9 -15 -11 -2 -7 9 3 21 1 26
-4 5 -5 8 6 5 29 -5 58 -10 70 -11 30z"/>
<path d="M5096 7828 c3 -4 12 -8 20 -8 8 0 14 4 14 8 0 4 -9 8 -19 8 -11 0
-17 -4 -15 -8z"/>
<path d="M1471 7806 c-10 -12 -8 -13 8 -9 12 3 21 9 21 14 0 14 -16 11 -29 -5z"/>
<path d="M5035 7811 c3 -5 -1 -12 -7 -14 -10 -4 -10 -6 0 -6 24 -2 12 -21 -13
-21 -22 0 -25 -4 -23 -28 1 -15 -1 -33 -6 -40 -5 -9 10 -11 63 -10 39 1 71 6
71 9 0 4 -7 15 -16 24 -9 8 -13 22 -10 30 3 8 -3 16 -15 20 -10 4 -19 12 -19
20 0 7 -7 16 -16 19 -8 3 -13 2 -9 -3z m20 -101 c4 -6 -7 -10 -24 -10 -17 0
-31 5 -31 10 0 6 11 10 24 10 14 0 28 -4 31 -10z"/>
<path d="M1371 7783 c-12 -13 -11 -14 10 -9 22 6 21 5 -3 -9 -31 -18 -37 -28
-10 -18 16 6 16 5 0 -13 -17 -19 -16 -22 20 -62 29 -32 47 -43 80 -48 28 -4
42 -3 42 5 0 6 8 11 18 11 10 0 27 7 38 15 18 14 17 14 -10 5 -31 -12 -129 -2
-120 11 3 5 -1 7 -8 4 -7 -3 -24 4 -37 14 -22 17 -23 19 -7 49 16 31 46 44 46
21 0 -6 7 -9 15 -5 8 3 15 1 15 -5 0 -5 14 -3 30 6 17 9 30 21 30 28 0 8 -3 7
-9 -2 -10 -16 -71 -24 -71 -10 0 5 -8 9 -18 9 -10 0 -22 4 -27 9 -6 6 -15 3
-24 -6z"/>
<path d="M1840 7780 c-9 -6 -10 -10 -3 -10 6 0 15 5 18 10 8 12 4 12 -15 0z"/>
<path d="M1670 7754 c0 -8 5 -12 10 -9 6 4 8 11 5 16 -9 14 -15 11 -15 -7z"/>
<path d="M1627 7729 c7 -9 10 -18 7 -22 -3 -3 3 -3 15 0 12 3 21 10 21 15 0 5
-5 6 -10 3 -6 -4 -19 -1 -28 7 -15 11 -15 11 -5 -3z"/>
<path d="M1437 7710 c4 -16 13 -20 47 -18 37 1 38 2 8 5 -18 3 -36 11 -39 19
-8 22 -22 17 -16 -6z"/>
<path d="M1600 7721 c0 -6 -7 -11 -15 -11 -8 0 -15 -4 -15 -10 0 -14 11 -12
33 4 12 9 14 16 8 21 -6 3 -11 1 -11 -4z"/>
<path d="M1390 7706 c0 -2 7 -6 15 -10 8 -3 15 -1 15 4 0 6 -7 10 -15 10 -8 0
-15 -2 -15 -4z"/>
<path d="M1530 7701 c0 -5 7 -11 14 -14 10 -4 13 -1 9 9 -6 15 -23 19 -23 5z"/>
<path d="M1620 7681 c0 -6 4 -13 10 -16 6 -3 7 1 4 9 -7 18 -14 21 -14 7z"/>
<path d="M5100 7670 c0 -5 5 -10 10 -10 6 0 10 5 10 10 0 6 -4 10 -10 10 -5 0
-10 -4 -10 -10z"/>
<path d="M4998 7663 c6 -2 18 -2 25 0 6 3 1 5 -13 5 -14 0 -19 -2 -12 -5z"/>
<path d="M4984 7615 c-2 -29 2 -31 21 -11 10 10 11 16 2 25 -17 17 -22 14 -23
-14z"/>
<path d="M2091 7530 c-1 -3 -3 -21 -5 -41 -2 -20 -16 -111 -32 -203 -26 -151
-31 -166 -49 -166 -26 0 -55 33 -55 64 0 27 -82 166 -105 179 -8 4 -15 15 -15
23 0 8 -4 12 -10 9 -16 -10 -12 -45 7 -63 16 -16 15 -17 -1 -20 -15 -3 -18
-11 -13 -48 2 -24 1 -44 -3 -46 -4 -2 -13 -83 -19 -180 -7 -107 -17 -191 -26
-212 -11 -25 -12 -42 -6 -59 6 -14 7 -28 4 -31 -16 -16 -34 0 -79 67 -30 45
-55 72 -63 69 -8 -3 -12 1 -9 9 5 14 -15 40 -29 39 -4 -1 -10 8 -13 19 -3 12
-10 17 -16 13 -12 -7 -10 -39 24 -349 21 -196 20 -197 -83 -93 -38 39 -77 70
-85 70 -9 0 -22 6 -29 13 -11 10 -13 9 -8 -5 4 -10 3 -18 -2 -18 -15 0 15
-298 39 -395 22 -83 57 -165 71 -165 6 0 8 -4 4 -9 -13 -23 115 -231 151 -245
8 -3 12 -10 9 -16 -3 -5 0 -10 8 -10 17 0 49 -34 40 -43 -17 -18 -83 -3 -83
19 0 8 -4 14 -10 14 -5 0 -10 6 -10 14 0 19 -73 116 -87 116 -7 0 -13 6 -13
14 0 21 -47 47 -99 54 l-46 7 -68 135 c-99 197 -99 197 -70 289 34 105 34 184
-2 245 -15 25 -32 49 -38 53 -20 13 -111 32 -122 25 -5 -4 -17 -5 -26 -4 -10
2 -19 -6 -22 -19 -3 -11 -10 -18 -15 -15 -11 6 -32 -59 -32 -98 0 -18 5 -26
13 -23 7 2 11 17 9 36 -5 43 43 91 90 91 80 -1 134 -58 144 -152 5 -53 3 -72
-15 -110 -11 -26 -21 -52 -21 -58 0 -5 -5 -19 -12 -29 -9 -16 -6 -31 20 -85
18 -37 32 -69 32 -71 0 -12 102 -215 110 -220 19 -12 10 -40 -24 -76 -19 -20
-43 -50 -53 -66 -16 -27 -75 -98 -155 -188 -15 -16 -68 -79 -118 -138 -51 -59
-103 -112 -117 -118 -14 -5 -27 -8 -28 -7 -1 2 -10 26 -19 53 -18 50 -76 192
-101 250 -8 17 -20 46 -28 65 -20 48 -113 340 -133 419 -9 36 -31 100 -50 142
-39 88 -43 140 -15 168 31 31 12 33 -20 3 -24 -22 -29 -34 -27 -65 1 -21 6
-41 10 -43 4 -3 8 -14 8 -25 0 -11 11 -41 24 -67 13 -26 31 -74 40 -107 9 -33
25 -89 35 -125 10 -36 24 -87 30 -115 7 -27 22 -70 33 -95 27 -58 35 -79 44
-110 3 -14 15 -45 26 -70 10 -25 23 -54 27 -65 31 -73 57 -125 63 -125 4 0 12
-9 18 -20 8 -16 8 -24 -4 -35 -8 -8 -19 -15 -25 -15 -17 0 -29 -33 -27 -75 2
-40 57 -143 73 -138 4 2 8 -7 8 -20 0 -13 8 -23 18 -25 16 -3 21 -13 18 -38
-1 -7 6 -15 15 -18 9 -3 14 -13 10 -21 -3 -8 0 -14 7 -12 7 1 12 -7 12 -17 0
-11 6 -21 13 -24 6 -2 10 -8 6 -13 -3 -5 -2 -9 3 -9 4 0 14 -13 21 -30 8 -16
20 -30 28 -30 9 0 12 -5 8 -11 -3 -6 5 -21 20 -34 14 -12 23 -25 20 -28 -9 -8
66 -97 79 -94 6 1 11 -5 12 -13 0 -8 10 -19 22 -26 13 -6 20 -14 16 -18 -10
-9 98 -105 120 -106 9 0 17 -4 17 -10 0 -5 6 -10 14 -10 8 0 16 -7 19 -15 9
-23 103 -65 179 -80 38 -7 72 -15 75 -18 11 -12 -20 -137 -34 -137 -8 0 -11
-5 -8 -10 4 -6 0 -24 -9 -40 -8 -17 -10 -28 -5 -25 5 4 12 -1 16 -10 3 -10 1
-20 -5 -24 -5 -3 -15 -26 -22 -51 -7 -25 -15 -49 -18 -55 -4 -5 -8 -19 -9 -30
-2 -11 -7 -29 -12 -40 -18 -45 -30 -88 -25 -96 3 -5 0 -9 -5 -9 -22 0 -10 -41
20 -69 20 -20 28 -34 23 -43 -5 -7 -7 -20 -6 -28 1 -9 -28 -46 -65 -82 -37
-37 -79 -80 -92 -95 -160 -186 -177 -203 -202 -203 -15 0 -29 7 -33 15 -3 8
-1 15 4 15 12 0 -10 42 -27 53 -7 4 -13 16 -13 26 0 10 -8 25 -17 32 -15 12
-16 12 -11 -6 4 -11 23 -58 44 -104 24 -55 34 -89 28 -97 -61 -86 -154 -224
-154 -229 0 -4 -20 -37 -43 -74 -47 -72 -164 -307 -212 -426 -39 -96 -97 -283
-115 -371 -23 -113 -40 -222 -40 -262 0 -30 -10 -62 -30 -99 -36 -65 -100
-216 -124 -291 -16 -52 -16 -54 6 -94 45 -79 150 -102 244 -52 27 14 57 33 66
41 33 30 52 13 61 -55 14 -112 60 -208 122 -250 33 -23 104 -30 147 -13 42 16
124 99 149 150 28 61 60 70 77 22 9 -25 7 -32 -15 -53 -118 -109 -144 -299
-54 -380 81 -73 311 -103 716 -93 154 3 312 10 350 15 97 12 241 36 312 53 65
15 102 8 110 -21 6 -24 58 -58 127 -82 65 -22 211 -38 366 -41 105 -1 472 17
513 26 12 2 51 7 87 10 36 3 123 15 195 26 121 18 186 32 355 74 36 9 85 21
110 26 74 15 183 73 229 120 42 44 81 108 81 134 0 7 25 37 56 66 34 33 66 77
85 116 35 74 46 74 89 -2 33 -57 96 -120 136 -135 40 -16 102 -12 142 9 69 35
115 109 131 210 16 98 24 101 82 37 72 -79 186 -87 273 -19 51 40 52 41 32 68
-8 11 -19 56 -26 100 -6 44 -24 139 -40 210 -16 72 -32 153 -35 180 -15 140
-74 401 -119 534 -15 41 -26 82 -26 90 0 9 -7 27 -14 41 -19 33 -86 171 -86
176 0 10 -126 223 -156 265 -39 54 -42 69 -14 69 43 0 120 45 120 70 0 5 -11
-2 -25 -16 -15 -15 -33 -23 -43 -20 -9 2 -38 7 -64 11 -40 5 -48 4 -48 -10 0
-9 -7 -23 -15 -32 -8 -8 -13 -18 -11 -22 3 -4 -6 -20 -19 -35 -18 -21 -36 -30
-68 -33 -27 -3 -47 -1 -51 6 -4 6 -16 11 -26 11 -10 0 -28 12 -40 27 -17 22
-23 25 -30 13 -6 -8 -10 -18 -10 -21 0 -15 -51 -27 -91 -22 -97 12 -154 91
-147 206 l3 61 -33 7 c-63 13 -122 90 -122 160 0 61 82 199 118 199 7 0 15 6
18 14 3 8 25 19 49 26 24 7 45 19 47 29 7 25 -19 159 -48 251 -23 75 -75 189
-96 215 -5 5 -19 25 -32 43 -28 38 -45 26 -22 -15 8 -16 31 -64 51 -108 20
-44 41 -88 46 -99 6 -10 12 -26 15 -35 2 -9 15 -54 29 -100 33 -111 33 -133
-4 -149 -16 -7 -41 -24 -56 -37 -21 -21 -30 -23 -47 -14 -13 7 -18 17 -15 30
4 14 0 19 -15 19 -15 0 -19 -5 -15 -20 3 -13 0 -20 -9 -20 -7 0 -23 -8 -34
-17 -20 -18 -50 -28 -180 -64 -260 -71 -470 -120 -620 -145 -47 -7 -125 -21
-175 -29 -135 -24 -346 -45 -360 -37 -14 9 -85 87 -85 94 0 3 41 13 90 23 50
10 90 21 90 26 0 5 15 8 33 7 44 -3 247 43 247 56 1 27 16 36 48 26 60 -17
126 29 93 65 -5 6 -11 33 -14 62 l-6 51 72 12 c95 15 374 79 469 106 26 8 60
14 75 14 16 0 37 6 48 14 28 19 123 46 140 40 8 -3 19 -21 25 -39 7 -23 18
-34 35 -38 27 -5 34 7 10 17 -8 3 -15 18 -15 33 -1 15 -10 39 -21 53 -19 23
-21 23 -31 7 -9 -16 -19 -17 -89 -11 -64 5 -83 4 -97 -8 -36 -32 -130 -33
-118 -1 3 8 1 11 -4 8 -6 -3 -10 -2 -10 4 0 5 8 11 17 13 15 3 15 4 -1 21 -10
10 -16 21 -12 24 8 8 -14 34 -24 28 -4 -3 -8 11 -7 30 1 19 5 35 11 35 5 0 2
8 -7 18 -19 21 -26 50 -31 147 -2 39 -5 71 -6 73 -7 7 -5 70 2 85 8 16 12 14
32 -15 14 -21 30 -33 46 -34 14 -1 34 -5 44 -9 17 -7 16 -4 -5 26 -13 18 -34
41 -45 51 -23 18 -40 91 -27 111 4 7 8 16 8 22 0 5 8 11 19 13 11 3 16 0 12
-7 -4 -6 -2 -11 4 -11 7 0 10 6 7 14 -3 8 -1 17 6 20 7 3 1 3 -12 0 -16 -4
-21 -3 -17 5 4 6 2 11 -3 11 -6 0 -11 9 -11 19 0 21 -22 33 -47 25 -12 -3 -10
0 4 8 19 12 20 15 7 32 -12 18 -14 18 -14 3 0 -15 -2 -16 -14 -5 -8 7 -13 15
-11 16 7 7 -30 42 -45 42 -13 1 -13 2 1 13 22 17 20 47 -3 47 -11 0 -17 4 -13
9 3 5 1 12 -5 16 -5 3 -10 1 -10 -4 0 -6 -5 -11 -11 -11 -6 0 -9 9 -6 20 3 11
1 22 -4 25 -12 8 0 36 30 67 18 18 30 23 37 17 8 -6 36 -6 78 1 54 8 73 8 99
-4 36 -16 127 -28 127 -16 0 15 -26 28 -72 35 -37 6 -45 10 -40 23 4 10 7 12
10 4 6 -18 49 -15 56 4 9 24 7 28 -9 14 -12 -10 -15 -10 -15 4 0 9 -5 16 -12
16 -6 0 -4 7 5 18 10 10 14 22 10 25 -3 4 0 7 7 7 11 0 11 3 2 12 -9 9 -7 14
6 24 14 12 15 15 3 23 -12 8 -12 14 4 38 33 49 85 86 109 77 9 -3 16 -1 16 5
0 6 16 19 35 28 19 9 35 19 35 23 0 14 59 8 81 -8 13 -11 41 -22 61 -25 46 -7
98 -44 98 -70 0 -10 47 -65 108 -126 112 -112 222 -247 222 -274 0 -9 5 -19
10 -22 8 -5 8 -11 0 -20 -6 -8 -7 -16 -2 -19 15 -9 11 -57 -4 -63 -8 -3 -14
-11 -14 -18 0 -14 -74 -57 -84 -49 -3 2 -4 1 -1 -3 3 -3 -5 -11 -18 -18 -129
-70 -180 -95 -188 -95 -5 0 -22 -11 -37 -26 -32 -30 -230 -130 -239 -120 -3 3
1 6 9 6 9 0 19 7 22 16 5 12 2 15 -10 10 -10 -4 -25 1 -35 10 -13 11 -19 13
-19 5 0 -8 -8 -10 -22 -6 -16 6 -20 4 -15 -8 3 -9 1 -17 -4 -19 -7 -2 -7 -13
1 -32 9 -24 7 -31 -11 -47 -23 -20 -51 -23 -84 -9 -16 7 -12 9 19 9 54 1 42 9
-25 15 l-55 5 -11 -40 c-6 -22 -7 -42 -3 -44 5 -3 10 0 12 6 3 9 10 9 27 0 12
-7 47 -13 77 -14 43 -1 57 3 68 18 13 18 19 18 58 8 40 -10 41 -10 21 4 -32
21 -30 53 2 53 14 0 25 4 25 10 0 5 20 18 44 28 24 11 104 56 177 99 74 44
153 90 176 101 23 12 59 37 80 57 21 19 43 35 48 35 20 0 55 -31 55 -49 0 -23
59 -155 71 -159 5 -2 9 -11 9 -21 0 -34 32 -111 43 -104 6 4 8 0 4 -9 -3 -9 1
-24 8 -35 7 -10 18 -35 23 -54 l10 -34 1 35 c0 20 -10 53 -24 78 -14 24 -23
47 -20 52 9 14 -47 150 -63 150 -9 0 -12 6 -8 16 7 17 -19 74 -34 74 -6 0 -10
7 -10 15 0 8 -8 23 -18 33 -18 18 -18 20 4 62 32 60 24 121 -23 168 -21 20
-32 40 -29 49 4 9 -1 17 -14 20 -11 3 -20 14 -20 24 0 11 -7 19 -16 19 -8 0
-21 15 -29 33 -17 38 -49 77 -63 77 -6 0 -42 34 -80 76 -74 80 -212 191 -249
201 -14 3 -23 13 -23 25 0 45 -31 78 -125 134 -102 60 -131 74 -150 74 -8 0
-15 -4 -15 -10 0 -20 -182 -108 -235 -114 -11 -1 -26 -5 -32 -9 -5 -3 -25 -8
-44 -11 -19 -2 -77 -14 -129 -26 -345 -77 -757 -108 -1070 -80 -261 24 -641
96 -796 152 -240 86 -430 287 -505 533 -16 55 -34 114 -40 131 -5 17 -11 73
-14 125 -3 52 -8 108 -10 126 -3 30 -2 31 20 23 13 -5 58 -45 101 -89 42 -45
84 -81 93 -81 18 0 18 1 -13 330 -7 80 -12 147 -10 148 10 13 114 -112 153
-187 7 -11 21 -21 31 -21 16 0 20 7 21 38 4 123 8 192 18 322 6 80 14 182 18
226 5 73 8 81 24 77 11 -3 31 -28 45 -57 14 -28 31 -58 39 -66 7 -8 20 -30 29
-48 10 -19 22 -30 28 -26 6 4 9 1 6 -7 -6 -16 9 -49 21 -49 11 0 28 68 52 210
11 63 25 148 32 188 7 39 10 72 6 72 -4 0 -10 8 -12 18 -3 9 -5 15 -6 12z
m-645 -1686 c18 -15 18 -15 -5 -8 -16 4 -21 3 -17 -5 4 -6 1 -11 -8 -11 -10 0
-13 6 -9 16 4 12 0 14 -22 8 -20 -5 -26 -4 -21 5 10 16 59 14 82 -5z m14 -66
c0 -12 -35 -9 -48 4 -21 21 -13 27 18 15 17 -6 30 -15 30 -19z m-105 2 c3 -5
15 -10 26 -10 10 0 19 -4 19 -10 0 -5 -4 -10 -8 -10 -15 0 -62 25 -62 33 0 10
18 9 25 -3z m145 -42 c-16 -13 -18 -18 -7 -18 9 0 31 -13 49 -30 28 -26 30
-30 13 -31 -20 0 -20 -1 0 -9 19 -8 19 -9 1 -9 -15 -1 -16 -4 -6 -16 7 -8 19
-15 27 -15 9 0 13 -6 10 -14 -3 -7 0 -19 6 -25 8 -8 7 -11 -3 -11 -9 0 -8 -6
6 -21 16 -18 19 -38 20 -123 1 -118 9 -161 35 -187 23 -23 25 -55 4 -75 -8 -9
-15 -25 -14 -37 0 -20 1 -20 8 -4 5 15 13 6 34 -43 l26 -62 -28 -29 c-20 -20
-31 -25 -35 -16 -3 6 -3 2 -1 -10 3 -12 1 -24 -5 -28 -5 -3 -10 -13 -10 -22 0
-9 -7 -25 -17 -35 -9 -10 -11 -18 -5 -18 15 0 4 -61 -13 -75 -6 -5 -10 -15 -8
-22 3 -7 0 -20 -6 -30 -10 -17 -10 -17 -11 2 0 15 -2 17 -9 6 -6 -9 -10 -10
-16 -2 -5 9 -10 9 -20 1 -7 -6 -17 -9 -21 -8 -9 3 -14 -5 -14 -21 0 -5 20 -14
44 -20 42 -10 44 -13 44 -46 0 -19 -4 -35 -9 -35 -5 0 -9 -7 -9 -15 0 -9 -6
-18 -14 -21 -10 -4 -8 -12 12 -31 22 -22 24 -27 10 -37 -8 -6 -17 -15 -19 -21
-2 -5 -8 -9 -14 -8 -69 11 -112 24 -136 42 -15 12 -31 21 -34 21 -32 0 -305
243 -305 271 0 8 -20 36 -47 64 -7 8 -13 20 -13 28 0 7 -11 19 -24 26 -16 9
-22 19 -19 32 3 11 -1 21 -11 25 -8 3 -25 21 -37 40 -11 19 -26 40 -33 47 -7
6 -13 15 -14 20 -1 4 -8 20 -16 35 -8 15 -17 44 -21 65 -6 30 -4 37 9 37 9 0
16 -7 16 -16 0 -8 5 -12 10 -9 6 4 8 11 5 16 -4 5 1 9 10 9 8 0 18 7 21 15 4
8 12 15 19 15 7 0 18 7 25 15 11 13 10 18 -6 31 -19 14 -19 15 1 13 11 -1 27
-1 35 0 13 1 13 2 0 11 -12 8 -11 10 7 10 30 0 39 18 17 36 -14 11 -15 17 -6
20 6 3 12 12 12 20 0 8 7 14 15 14 8 0 15 5 15 10 0 6 7 10 15 10 8 0 15 9 15
19 0 11 11 28 24 38 13 10 26 28 30 40 4 11 14 23 24 25 9 3 24 18 32 34 22
42 35 53 70 61 22 4 28 9 21 16 -6 6 -11 16 -11 21 0 6 4 6 11 -1 12 -12 71
-2 76 13 2 7 -5 14 -17 17 -11 3 -20 12 -20 21 0 14 3 14 23 4 12 -7 24 -15
27 -18 8 -8 84 -9 90 -1 13 17 57 38 69 33 11 -4 9 -10 -9 -24z m593 -261 c-2
-4 -8 -5 -12 -3 -4 3 -8 -1 -8 -9 0 -15 15 -19 49 -16 12 2 16 -3 12 -12 -3
-8 1 -17 9 -20 10 -4 12 3 9 24 -5 35 -8 35 125 7 94 -20 130 -36 86 -39 -17
-1 -17 -2 0 -6 29 -8 19 -24 -10 -17 -36 9 -40 13 -24 23 17 11 -8 21 -50 21
-17 0 -38 4 -47 9 -9 4 -30 11 -46 15 -26 6 -28 5 -17 -8 8 -9 22 -16 32 -16
20 0 49 -15 80 -39 24 -19 109 -51 137 -51 13 0 22 -6 22 -15 0 -9 -9 -15 -22
-15 -26 0 -21 -5 13 -13 30 -8 33 10 10 51 -10 19 -18 22 -38 17 -24 -6 -24
-5 -9 10 15 16 20 16 56 1 51 -20 152 -22 144 -3 -8 21 166 11 182 -10 11 -17
39 -9 28 8 -3 6 17 7 53 2 91 -12 309 -4 500 17 117 13 156 13 148 0 -3 -5 1
-10 9 -10 9 0 16 5 16 11 0 5 4 8 9 5 8 -5 90 33 137 63 27 18 85 7 101 -18
10 -16 9 -28 -3 -63 -8 -23 -12 -48 -10 -55 3 -8 -2 -20 -12 -28 -79 -68 -101
-85 -108 -85 -5 0 -35 -18 -68 -41 -32 -22 -69 -42 -82 -43 -32 -4 -94 -38
-94 -52 0 -7 -5 -14 -10 -16 -6 -2 -11 -26 -11 -53 -1 -59 -13 -87 -34 -79 -8
4 -26 -1 -40 -10 -28 -18 -87 -21 -117 -5 -11 6 -32 8 -46 4 -25 -7 -26 -8 -7
-15 13 -6 -3 -9 -50 -10 -170 -4 -269 -11 -281 -21 -16 -13 -71 3 -108 32 -15
12 -31 17 -38 13 -7 -4 -5 2 5 13 17 19 16 20 -13 20 -18 0 -30 -6 -30 -13 0
-10 -21 -12 -87 -10 -48 2 -99 0 -113 -4 -14 -3 -36 -3 -50 0 -21 6 -22 8 -8
15 10 4 15 12 11 18 -4 6 4 8 22 3 15 -4 41 -9 59 -12 l31 -6 -29 16 c-15 9
-33 16 -39 16 -6 0 -19 7 -29 16 -12 12 -21 14 -30 7 -8 -6 -22 -7 -33 -2 -19
7 -18 8 4 8 15 1 21 6 18 14 -3 8 -1 20 3 27 7 11 14 12 36 1 22 -10 29 -10
35 1 5 7 6 19 4 27 -4 11 4 13 42 8 70 -9 31 8 -52 23 -38 7 -83 19 -100 26
-16 6 -48 15 -69 18 -22 4 -45 11 -52 17 -7 6 -19 7 -25 3 -8 -4 -9 -3 -5 4 4
7 3 12 -3 12 -5 0 -17 3 -27 7 -12 4 -15 3 -10 -5 4 -7 3 -12 -3 -12 -5 0 -13
5 -16 10 -4 6 -14 10 -23 9 -10 -1 -22 -1 -29 0 -13 1 -28 38 -24 62 1 9 -11
30 -28 46 -23 23 -31 42 -36 87 -8 65 -2 75 50 77 17 0 24 3 18 6 -7 2 -13 11
-13 19 0 7 -11 16 -25 20 -14 3 -25 10 -25 14 0 5 29 -1 64 -13 35 -12 62 -25
59 -30z m27 -341 c0 -9 -13 -7 -29 3 -7 5 -10 14 -7 20 5 8 11 7 22 -3 8 -8
14 -17 14 -20z m163 -32 c-4 -10 0 -12 13 -8 18 5 18 5 2 -8 -19 -16 -19 -38
1 -62 11 -13 11 -17 -3 -21 -9 -3 -23 -7 -32 -10 -8 -3 -12 -10 -8 -16 10 -17
-60 -2 -108 22 -25 13 -36 24 -32 34 4 8 1 15 -4 15 -6 0 -10 9 -9 20 1 11 5
20 10 20 5 0 7 6 4 13 -3 9 18 12 83 13 71 1 87 -1 83 -12z m1904 -30 c-3 -3
-12 -4 -19 -1 -8 3 -5 6 6 6 11 1 17 -2 13 -5z m-2097 -34 c0 -5 -5 -10 -11
-10 -5 0 -7 5 -4 10 3 6 8 10 11 10 2 0 4 -4 4 -10z m30 -60 c13 -9 13 -10 0
-9 -8 0 -24 4 -35 9 l-20 9 20 0 c11 0 27 -4 35 -9z m85 -20 c3 -5 -1 -10 -9
-10 -9 0 -16 5 -16 10 0 6 4 10 9 10 6 0 13 -4 16 -10z m95 -20 c24 -8 24 -8
-7 -9 -17 -1 -35 4 -38 9 -7 11 9 11 45 0z m233 -37 c-7 -2 -19 -2 -25 0 -7 3
-2 5 12 5 14 0 19 -2 13 -5z m1605 -218 c-3 -3 -13 -2 -22 1 -14 5 -15 9 -4
15 13 8 36 -6 26 -16z m-2461 -474 c17 -16 32 -33 34 -38 9 -24 185 -147 304
-213 72 -40 133 -74 137 -77 5 -2 -2 -23 -14 -46 -12 -23 -23 -48 -24 -56 -2
-8 -5 -25 -9 -38 -4 -16 -1 -23 10 -23 10 0 17 14 21 40 4 22 11 40 16 40 6 0
7 7 4 16 -8 21 22 64 40 57 9 -3 14 0 12 8 -2 10 9 14 42 13 25 -1 37 1 27 3
-9 3 -15 9 -12 14 4 5 15 4 27 -2 12 -6 46 -11 75 -10 30 0 52 -3 49 -7 -3 -5
34 -9 82 -10 48 -1 92 -1 98 -2 7 0 15 -8 18 -17 3 -10 13 -29 21 -43 11 -19
11 -26 2 -32 -9 -6 -9 -8 0 -8 21 0 53 -69 53 -116 0 -25 5 -44 11 -44 7 0 9
19 4 58 -16 138 -17 131 29 142 345 89 534 161 692 266 29 20 61 34 69 32 19
-4 55 -84 85 -188 11 -41 25 -88 30 -105 4 -16 11 -53 15 -81 l6 -50 -38 -12
c-194 -61 -387 -100 -663 -136 -194 -26 -218 -27 -226 -15 -9 15 -24 -9 -24
-40 0 -26 -13 -26 213 -1 l109 13 55 -54 c30 -30 107 -115 171 -189 64 -74
133 -153 153 -175 131 -145 308 -377 309 -406 0 -9 -30 -44 -67 -78 -38 -34
-78 -70 -89 -81 -12 -11 -43 -31 -70 -45 -27 -14 -56 -31 -65 -37 -25 -17 -42
-5 -106 73 -101 126 -385 505 -423 564 -16 25 -34 52 -144 210 -82 118 -78
113 -83 97 -6 -15 -90 -55 -101 -48 -5 3 -30 6 -58 7 -27 1 -54 6 -60 10 -6 5
-26 4 -44 -1 -24 -7 -52 -5 -99 5 -105 24 -149 43 -153 67 -3 21 -4 20 -30 -8
-28 -31 -97 -113 -136 -161 -13 -15 -49 -59 -80 -98 -31 -38 -107 -119 -168
-180 -61 -60 -130 -137 -154 -170 -94 -129 -85 -132 -232 82 -31 45 -69 103
-84 128 -24 41 -25 48 -11 63 100 112 406 402 425 402 6 0 16 8 21 18 11 19
60 69 106 108 35 29 30 29 185 -24 63 -21 121 -37 128 -34 11 4 11 6 0 14 -10
7 -10 11 0 15 6 2 12 14 11 26 0 18 -2 19 -7 5 -6 -16 -17 -14 -117 21 -61 21
-145 52 -188 70 -43 17 -80 31 -83 31 -2 0 -4 -11 -4 -24 0 -17 9 -27 30 -36
17 -7 29 -18 27 -24 -5 -15 -69 -26 -84 -14 -7 5 -22 7 -34 3 -13 -5 -19 -3
-15 3 3 5 -11 17 -32 27 -99 44 -112 54 -112 85 0 36 3 36 60 6 44 -23 47 -23
68 -7 23 17 22 17 -58 56 -45 22 -85 44 -90 50 -8 10 6 75 28 128 7 16 12 34
12 42 0 8 5 17 10 20 6 4 8 14 5 24 -3 10 4 26 15 39 11 11 20 26 20 33 0 10
25 60 44 87 14 20 41 14 73 -17z m108 -8 c36 -17 46 -33 21 -33 -15 0 -77 49
-64 50 4 0 23 -8 43 -17z m2315 -63 c0 -5 -2 -10 -4 -10 -3 0 -8 5 -11 10 -3
6 -1 10 4 10 6 0 11 -4 11 -10z m-2182 -49 c3 -10 0 -10 -16 -2 -30 16 -38 33
-11 22 13 -4 25 -14 27 -20z m2179 -3 c-3 -7 -5 -2 -5 12 0 14 2 19 5 13 2 -7
2 -19 0 -25z m36 0 c3 -12 2 -29 -3 -37 -8 -14 -9 -14 -10 -1 0 13 -1 13 -10
0 -5 -8 -12 -11 -17 -7 -4 5 -2 12 5 16 7 4 14 18 15 29 2 28 13 28 20 0z
m-2183 2 c0 -5 -5 -10 -11 -10 -5 0 -7 5 -4 10 3 6 8 10 11 10 2 0 4 -4 4 -10z
m1327 -26 c-3 -3 -12 -4 -19 -1 -8 3 -5 6 6 6 11 1 17 -2 13 -5z m-1126 -87
c8 -7 24 -20 37 -29 39 -26 9 -29 -44 -3 -64 31 -99 59 -90 74 7 11 70 -15 97
-42z m1963 7 c4 -10 1 -14 -6 -12 -15 5 -23 28 -10 28 5 0 13 -7 16 -16z
m-1144 -24 c0 -5 -7 -10 -15 -10 -8 0 -15 5 -15 10 0 6 7 10 15 10 8 0 15 -4
15 -10z m-23 -26 c-3 -3 -12 -4 -19 -1 -8 3 -5 6 6 6 11 1 17 -2 13 -5z m-123
-23 c3 -5 -16 -14 -42 -21 -26 -6 -55 -16 -64 -21 -23 -12 -58 -12 -58 1 0 6
10 10 23 11 12 0 45 9 72 19 60 22 62 22 69 11z m-1419 -341 c-3 -5 -12 -10
-18 -10 -7 0 -6 4 3 10 19 12 23 12 15 0z m1293 -932 c-3 -7 -11 -13 -19 -13
-8 0 -17 -8 -21 -17 -4 -10 -14 -18 -23 -18 -19 0 -55 -31 -55 -47 0 -7 5 -13
12 -13 6 0 9 -2 7 -5 -3 -2 -21 0 -39 5 -22 6 -38 6 -44 0 -6 -6 -17 -10 -25
-10 -22 0 15 37 45 44 13 4 24 11 24 16 0 6 11 10 25 10 16 0 25 6 25 15 0 8
5 15 11 15 6 0 17 7 25 15 19 18 57 20 52 3z m-233 -128 c-3 -5 -12 -10 -20
-10 -8 0 -17 5 -20 10 -4 6 5 10 20 10 15 0 24 -4 20 -10z m-35 -30 c0 -10
-32 -30 -49 -30 -15 0 -14 27 2 33 21 9 47 7 47 -3z m-455 -210 c-3 -5 -11
-10 -16 -10 -6 0 -7 5 -4 10 3 6 11 10 16 10 6 0 7 -4 4 -10z m-76 -24 l23
-13 -22 -6 c-14 -4 -21 -11 -17 -20 4 -11 -7 -16 -45 -20 -28 -4 -58 -13 -68
-22 -9 -8 -23 -15 -31 -15 -8 0 -19 -4 -24 -9 -18 -17 -95 -17 -95 -1 0 6 8
13 18 16 9 3 26 9 37 14 11 4 35 14 53 20 25 10 30 15 20 22 -9 7 -8 8 5 4 33
-11 99 5 104 25 6 22 10 23 42 5z m-291 -124 c18 -12 4 -42 -16 -35 -11 5 -14
2 -9 -10 3 -9 3 -17 -2 -17 -5 0 -24 -2 -42 -6 l-34 -5 28 16 c15 9 25 21 21
26 -3 6 3 13 15 16 11 3 18 9 15 14 -7 11 7 11 24 1z m-104 -97 c-25 -19 -34
-19 -34 0 0 10 10 15 27 15 26 0 26 -1 7 -15z m-169 -66 c4 -6 5 -12 2 -15 -7
-7 -37 7 -37 17 0 13 27 11 35 -2z m3990 -318 c8 -14 -13 -24 -33 -16 -14 5
-14 7 -2 15 19 12 27 12 35 1z m-1310 -329 c5 -12 13 -22 17 -22 4 0 5 -7 2
-15 -4 -10 0 -15 11 -15 9 0 14 -4 11 -8 -3 -5 6 -15 19 -22 14 -7 25 -17 25
-20 0 -8 41 -25 83 -34 15 -4 27 -2 27 3 0 4 23 12 52 15 40 6 49 10 38 17
-12 8 -10 10 8 6 18 -4 22 -2 18 9 -3 8 3 20 14 26 11 7 20 17 20 23 1 5 11
23 24 39 20 24 27 26 44 17 20 -11 37 -55 27 -71 -3 -5 3 -15 14 -22 11 -8 25
-26 32 -41 15 -33 75 -65 142 -75 48 -7 52 -10 50 -35 -1 -14 -11 -36 -22 -49
-12 -12 -21 -24 -21 -28 0 -10 -100 -83 -107 -77 -3 4 -18 0 -33 -8 -16 -8
-72 -26 -126 -40 -54 -14 -101 -29 -104 -33 -3 -4 -27 -8 -54 -9 -27 -1 -53
-6 -59 -12 -6 -6 -26 -11 -43 -11 -18 0 -36 -5 -39 -11 -4 -6 -13 -8 -21 -5
-8 3 -22 2 -32 -3 -9 -5 -102 -19 -207 -31 -236 -26 -260 -28 -260 -29 -1 -7
-338 -9 -355 -3 -53 20 -66 188 -20 252 24 33 21 47 -6 36 -9 -4 -14 -9 -10
-13 3 -3 0 -13 -7 -22 -20 -24 -36 -92 -30 -127 3 -18 0 -35 -6 -38 -7 -4 -5
-20 4 -47 13 -35 13 -41 -1 -46 -25 -9 -208 7 -220 20 -7 7 -18 38 -26 71 -12
50 -12 66 0 115 8 31 18 60 23 65 12 13 11 26 -1 26 -5 0 -10 -6 -10 -14 0 -8
-6 -16 -14 -19 -31 -12 -40 -154 -13 -210 l18 -38 -28 7 c-125 28 -164 48
-189 96 -22 42 -14 130 16 181 l22 37 82 -6 c44 -4 78 -3 74 1 -9 9 52 44 67
38 6 -2 22 9 35 24 18 20 19 23 4 10 -11 -9 -24 -17 -28 -17 -13 0 38 59 51
59 7 1 10 7 7 15 -7 19 23 76 41 76 14 0 45 -26 45 -39 0 -4 -5 -12 -11 -18
-6 -6 -8 -20 -5 -31 7 -19 86 -77 139 -100 34 -15 89 -16 103 -2 5 5 25 12 43
14 36 4 47 12 65 48 7 12 19 22 28 22 11 -1 14 4 11 14 -4 9 -2 13 4 9 7 -5 9
0 6 14 -5 16 -2 20 13 17 11 -2 20 4 22 16 2 11 0 16 -7 12 -6 -4 -11 -2 -11
3 0 6 15 11 34 11 37 0 69 -30 60 -55 -6 -15 46 -57 91 -76 30 -12 141 -22
131 -11 -10 9 54 43 67 36 7 -4 9 -4 5 1 -5 5 4 23 18 42 14 18 36 58 50 89
26 60 50 69 69 26z m-1895 -2 c17 -9 35 -53 31 -77 -1 -7 2 -13 7 -13 5 0 15
-15 22 -32 30 -74 82 -108 167 -107 50 0 123 16 85 18 -7 1 -11 5 -7 11 3 5
13 6 22 3 12 -5 15 -2 10 10 -3 9 -2 17 3 17 6 0 10 -5 10 -11 0 -6 7 -3 16 5
8 9 12 20 9 26 -4 6 -1 9 7 8 7 -2 12 3 10 10 -1 7 9 33 24 57 34 60 71 59 86
0 3 -11 9 -29 14 -39 6 -15 4 -18 -7 -12 -9 5 -9 3 2 -6 8 -7 18 -21 22 -31 4
-11 16 -21 27 -24 22 -6 27 -23 8 -23 -7 0 -25 -30 -40 -68 -38 -96 -38 -99
-22 -112 26 -23 15 -47 -20 -41 -5 1 -16 -1 -25 -5 -9 -3 -35 -8 -57 -10 -23
-2 -75 -10 -115 -19 -112 -24 -261 -36 -511 -42 l-226 -5 -17 26 c-19 29 -22
87 -6 129 6 16 11 46 11 67 0 24 5 40 15 44 8 3 12 12 9 21 -10 24 -24 17 -36
-17 -7 -18 -10 -33 -8 -33 1 0 -6 -15 -17 -32 -17 -29 -19 -41 -10 -95 5 -35
12 -65 16 -68 3 -3 7 -13 9 -23 3 -17 -2 -18 -65 -12 -142 15 -262 34 -285 46
-12 7 -24 11 -26 10 -1 -1 -25 10 -53 25 -31 17 -52 36 -55 51 -4 13 -10 23
-16 23 -5 0 -6 19 -2 48 4 26 8 54 9 62 6 55 75 150 109 150 11 0 41 -20 66
-44 56 -55 106 -71 156 -50 20 8 44 12 54 9 18 -6 33 7 36 33 1 6 13 25 26 41
12 17 31 41 41 55 22 32 62 36 52 6 -8 -25 10 -50 36 -50 10 0 24 -8 31 -18
36 -49 151 -79 178 -47 7 8 18 15 24 15 17 0 79 60 109 108 30 46 30 46 57 32z
m2985 -108 c-3 -3 -11 0 -18 7 -9 10 -8 11 6 5 10 -3 15 -9 12 -12z"/>
<path d="M1279 5654 c-11 -14 -10 -15 11 -12 13 1 25 9 28 16 5 17 -23 15 -39
-4z"/>
<path d="M1340 5666 c0 -2 7 -7 16 -10 8 -3 12 -2 9 4 -6 10 -25 14 -25 6z"/>
<path d="M1548 5553 c7 -3 16 -2 19 1 4 3 -2 6 -13 5 -11 0 -14 -3 -6 -6z"/>
<path d="M1047 5411 c3 -12 11 -17 19 -14 11 4 12 9 3 19 -16 20 -28 17 -22
-5z"/>
<path d="M1220 5291 c0 -5 8 -11 18 -15 9 -3 23 -9 30 -12 6 -3 12 -1 12 5 0
6 -7 11 -15 11 -8 0 -15 5 -15 10 0 6 -7 10 -15 10 -8 0 -15 -4 -15 -9z"/>
<path d="M1231 5246 c2 -2 22 -6 44 -9 28 -5 34 -4 20 3 -19 8 -73 14 -64 6z"/>
<path d="M1548 5233 c6 -2 18 -2 25 0 6 3 1 5 -13 5 -14 0 -19 -2 -12 -5z"/>
<path d="M1535 5210 c3 -5 11 -10 16 -10 6 0 7 5 4 10 -3 6 -11 10 -16 10 -6
0 -7 -4 -4 -10z"/>
<path d="M1483 5163 c9 -2 23 -2 30 0 6 3 -1 5 -18 5 -16 0 -22 -2 -12 -5z"/>
<path d="M1430 5129 c0 -5 4 -8 9 -4 5 3 12 1 16 -5 9 -15 25 -12 25 5 0 9 -9
15 -25 15 -14 0 -25 -5 -25 -11z"/>
<path d="M1570 5125 c0 -9 -7 -18 -15 -21 -22 -9 -18 -23 5 -17 13 3 20 14 20
29 0 13 -2 24 -5 24 -3 0 -5 -7 -5 -15z"/>
<path d="M1610 5030 c0 -5 5 -10 10 -10 6 0 10 5 10 10 0 6 -4 10 -10 10 -5 0
-10 -4 -10 -10z"/>
<path d="M2655 5360 c28 -12 85 -12 85 0 0 6 -24 10 -52 9 -39 0 -48 -3 -33
-9z"/>
<path d="M3458 5363 c7 -3 16 -2 19 1 4 3 -2 6 -13 5 -11 0 -14 -3 -6 -6z"/>
<path d="M2828 5343 c12 -2 30 -2 40 0 9 3 -1 5 -23 4 -22 0 -30 -2 -17 -4z"/>
<path d="M3055 5340 c-3 -5 1 -10 10 -10 9 0 13 5 10 10 -3 6 -8 10 -10 10 -2
0 -7 -4 -10 -10z"/>
<path d="M2360 5320 c8 -5 20 -10 25 -10 6 0 3 5 -5 10 -8 5 -19 10 -25 10 -5
0 -3 -5 5 -10z"/>
<path d="M2550 5082 l-35 -4 51 -18 c29 -10 61 -27 73 -39 13 -13 27 -19 34
-14 8 5 7 9 -5 11 -32 6 -19 18 23 21 22 1 38 -2 36 -6 -3 -5 11 -7 30 -5 l36
5 -49 18 c-69 27 -135 37 -194 31z"/>
<path d="M2820 5007 c0 -5 11 -6 24 -3 13 3 27 1 29 -4 3 -6 4 -5 3 2 -3 15
-56 19 -56 5z"/>
<path d="M2630 4981 c0 -6 4 -13 10 -16 6 -3 7 1 4 9 -7 18 -14 21 -14 7z"/>
<path d="M3144 4958 c-10 -16 8 -28 34 -22 43 10 46 21 7 26 -20 2 -38 0 -41
-4z"/>
<path d="M2901 4934 c0 -11 3 -14 6 -6 3 7 2 16 -1 19 -3 4 -6 -2 -5 -13z"/>
<path d="M2930 4924 c0 -2 9 -8 20 -14 11 -6 20 -7 20 -2 0 6 -9 12 -20 15
-11 3 -20 3 -20 1z"/>
<path d="M2276 3845 c10 -8 26 -14 34 -15 8 0 2 7 -14 15 -36 19 -45 19 -20 0z"/>
<path d="M2190 3840 c0 -5 5 -10 10 -10 6 0 10 5 10 10 0 6 -4 10 -10 10 -5 0
-10 -4 -10 -10z"/>
<path d="M2233 3833 c11 -3 16 -11 13 -18 -3 -9 0 -12 9 -9 21 8 6 34 -19 33
-18 -1 -18 -2 -3 -6z"/>
<path d="M2592 3831 c-11 -6 -9 -9 6 -13 15 -4 19 -2 15 8 -6 16 -4 16 -21 5z"/>
<path d="M2550 3820 c-13 -8 -12 -10 3 -10 9 0 17 5 17 10 0 12 -1 12 -20 0z"/>
<path d="M2502 3789 c-9 -13 -19 -18 -30 -14 -9 3 -13 3 -9 -1 4 -4 2 -13 -4
-21 -9 -9 -8 -13 0 -13 6 0 11 5 11 10 0 6 3 9 8 8 7 -3 52 38 52 47 0 12 -16
3 -28 -16z"/>
<path d="M2611 3788 c-1 -19 -21 -26 -21 -8 0 6 -7 10 -15 10 -9 0 -15 -9 -14
-22 0 -21 1 -22 8 -3 7 18 8 18 18 1 8 -15 11 -16 22 -2 7 8 11 21 8 28 -4 8
-6 7 -6 -4z"/>
<path d="M2426 3757 c3 -10 9 -15 12 -12 3 3 0 11 -7 18 -10 9 -11 8 -5 -6z"/>
<path d="M2621 3739 c-21 -28 -21 -30 -3 -20 11 6 21 9 23 6 2 -2 4 8 4 21 0
13 0 24 -1 24 0 0 -11 -14 -23 -31z"/>
<path d="M2407 3725 c6 -32 11 -41 17 -34 2 2 -2 18 -10 34 l-13 30 6 -30z"/>
<path d="M2480 3737 c0 -3 10 -11 23 -20 21 -14 23 -13 24 7 1 11 -1 15 -4 9
-3 -9 -10 -10 -24 -3 -10 6 -19 9 -19 7z"/>
<path d="M2549 3738 c-5 -17 -2 -68 4 -68 4 0 7 16 5 35 -2 29 -6 43 -9 33z"/>
<path d="M2570 3731 c0 -6 4 -12 8 -15 5 -3 9 1 9 9 0 8 -4 15 -9 15 -4 0 -8
-4 -8 -9z"/>
<path d="M2251 3704 c0 -11 3 -14 6 -6 3 7 2 16 -1 19 -3 4 -6 -2 -5 -13z"/>
<path d="M2286 3712 c-2 -4 4 -8 15 -8 10 0 19 4 19 8 0 4 -6 8 -14 8 -8 0
-17 -4 -20 -8z"/>
<path d="M2116 3685 c-3 -9 -6 -26 -5 -38 1 -14 4 -9 9 13 9 37 7 52 -4 25z"/>
<path d="M2460 3691 c0 -6 4 -13 10 -16 6 -3 7 1 4 9 -7 18 -14 21 -14 7z"/>
<path d="M2441 3674 c0 -11 3 -14 6 -6 3 7 2 16 -1 19 -3 4 -6 -2 -5 -13z"/>
<path d="M2632 3676 c7 -8 15 -12 17 -11 5 6 -10 25 -20 25 -5 0 -4 -6 3 -14z"/>
<path d="M2400 3672 c0 -5 7 -9 15 -9 8 0 15 4 15 9 0 4 -7 8 -15 8 -8 0 -15
-4 -15 -8z"/>
<path d="M2270 3661 c0 -10 19 -25 25 -20 1 2 -3 10 -11 17 -8 7 -14 8 -14 3z"/>
<path d="M2435 3640 c-3 -5 -1 -10 4 -10 6 0 11 5 11 10 0 6 -2 10 -4 10 -3 0
-8 -4 -11 -10z"/>
<path d="M2636 3642 c-3 -5 1 -17 8 -27 12 -17 13 -17 11 3 -2 26 -11 37 -19
24z"/>
<path d="M2531 3614 c0 -11 3 -14 6 -6 3 7 2 16 -1 19 -3 4 -6 -2 -5 -13z"/>
<path d="M2550 3615 c0 -8 2 -15 4 -15 2 0 6 7 10 15 3 8 1 15 -4 15 -6 0 -10
-7 -10 -15z"/>
<path d="M2589 3628 c-6 -15 -3 -58 4 -58 5 0 6 11 3 25 -6 24 7 35 17 15 3
-6 4 -5 3 2 -2 11 -24 24 -27 16z"/>
<path d="M2131 3588 c-1 -20 3 -26 14 -22 8 4 15 10 15 16 0 5 -4 7 -9 3 -5
-3 -12 3 -14 12 -3 11 -5 8 -6 -9z"/>
<path d="M2295 3559 c-4 -11 -4 -23 -1 -26 3 -4 6 1 6 10 0 10 5 17 10 17 6 0
10 5 10 10 0 18 -19 10 -25 -11z"/>
<path d="M2335 3570 c-4 -6 3 -10 14 -10 25 0 27 6 6 13 -8 4 -17 2 -20 -3z"/>
<path d="M2673 3556 c-2 -19 -1 -19 8 -3 6 9 16 14 22 11 7 -4 8 -3 4 1 -15
17 -33 12 -34 -9z"/>
<path d="M2388 3553 c7 -3 16 -2 19 1 4 3 -2 6 -13 5 -11 0 -14 -3 -6 -6z"/>
<path d="M2188 3543 c6 -2 18 -2 25 0 6 3 1 5 -13 5 -14 0 -19 -2 -12 -5z"/>
<path d="M2620 3540 c0 -5 5 -10 11 -10 5 0 7 5 4 10 -3 6 -8 10 -11 10 -2 0
-4 -4 -4 -10z"/>
<path d="M2390 3525 c-14 -8 -20 -14 -14 -15 5 0 19 7 30 15 24 18 16 19 -16
0z"/>
<path d="M2434 3529 c-4 -8 -3 -9 5 -5 6 4 19 2 28 -6 14 -11 15 -11 11 2 -6
19 -34 25 -44 9z"/>
<path d="M2110 3523 c0 -4 5 -15 10 -23 8 -13 10 -13 10 2 0 9 -4 20 -10 23
-5 3 -10 3 -10 -2z"/>
<path d="M2220 3515 c-7 -9 -8 -15 -2 -15 5 0 12 7 16 15 3 8 4 15 2 15 -2 0
-9 -7 -16 -15z"/>
<path d="M2170 3510 c0 -5 7 -10 16 -10 8 0 12 5 9 10 -3 6 -10 10 -16 10 -5
0 -9 -4 -9 -10z"/>
<path d="M2604 3504 c3 -9 6 -18 6 -20 0 -2 8 -4 18 -3 10 0 12 3 5 6 -7 2
-13 11 -13 19 0 8 -5 14 -11 14 -6 0 -8 -7 -5 -16z"/>
<path d="M2350 3490 c-9 -6 -10 -10 -3 -10 6 0 15 5 18 10 8 12 4 12 -15 0z"/>
<path d="M2410 3490 c0 -6 7 -10 15 -10 8 0 15 2 15 4 0 2 -7 6 -15 10 -8 3
-15 1 -15 -4z"/>
<path d="M2465 3490 c-3 -5 -1 -10 4 -10 6 0 11 5 11 10 0 6 -2 10 -4 10 -3 0
-8 -4 -11 -10z"/>
<path d="M2586 3477 c3 -10 9 -15 12 -12 3 3 0 11 -7 18 -10 9 -11 8 -5 -6z"/>
<path d="M2570 3441 c0 -9 30 -24 36 -18 2 1 -6 8 -16 15 -11 7 -20 8 -20 3z"/>
<path d="M2610 3446 c0 -2 7 -7 16 -10 8 -3 12 -2 9 4 -6 10 -25 14 -25 6z"/>
<path d="M2354 3385 c16 -10 32 -13 37 -8 5 5 1 9 -9 9 -9 1 -26 4 -37 8 -11
4 -7 0 9 -9z"/>
<path d="M2420 3390 c8 -5 20 -10 25 -10 6 0 3 5 -5 10 -8 5 -19 10 -25 10 -5
0 -3 -5 5 -10z"/>
<path d="M2270 3375 c14 -8 34 -14 45 -14 11 0 2 6 -20 14 -50 18 -57 18 -25
0z"/>
<path d="M2568 3363 c7 -3 16 -2 19 1 4 3 -2 6 -13 5 -11 0 -14 -3 -6 -6z"/>
<path d="M2530 1199 c0 -5 5 -7 10 -4 6 3 10 8 10 11 0 2 -4 4 -10 4 -5 0 -10
-5 -10 -11z"/>
<path d="M1380 1101 c0 -5 -8 -17 -17 -27 -31 -31 -25 -224 7 -224 12 0 12 23
0 78 -8 31 -7 55 1 85 7 23 13 47 15 52 1 6 5 18 9 28 4 10 3 17 -4 17 -6 0
-11 -4 -11 -9z"/>
<path d="M463 7424 c-29 -13 -9 -24 41 -24 30 0 87 -7 127 -15 71 -15 98 -13
69 5 -16 10 -50 14 -87 11 -13 -1 -23 2 -23 6 0 5 -8 9 -17 10 -10 1 -36 4
-58 7 -22 3 -46 3 -52 0z"/>
<path d="M5360 7413 c-35 -13 -41 -25 -24 -44 10 -11 14 -22 11 -26 -4 -3 3
-11 16 -17 12 -7 22 -18 23 -26 2 -25 16 -50 24 -45 5 3 21 -12 36 -32 15 -21
33 -42 39 -48 7 -5 19 -25 29 -42 9 -18 21 -33 26 -33 15 0 12 14 -8 36 -10
10 -21 27 -24 36 -4 9 -39 60 -77 112 -39 53 -71 100 -71 104 0 5 10 14 23 20
23 11 4 15 -23 5z"/>
<path d="M4155 7330 c-8 -13 -1 -24 14 -19 6 3 7 10 2 18 -6 10 -10 10 -16 1z"/>
<path d="M5560 7072 c0 -4 15 -30 34 -58 19 -28 53 -86 76 -130 23 -43 51 -91
61 -106 11 -14 19 -31 19 -36 0 -5 7 -23 15 -38 23 -45 20 -65 -10 -60 -55 10
-33 -29 23 -40 25 -5 32 -3 32 10 0 23 -86 216 -121 270 -16 26 -29 49 -29 51
0 3 -15 28 -32 57 -33 53 -68 95 -68 80z"/>
<path d="M2389 7035 c-48 -17 -73 -40 -110 -96 -39 -61 -48 -132 -24 -180 34
-64 56 -87 101 -99 38 -11 51 -10 89 4 48 19 100 71 121 122 8 19 14 59 14 91
-1 53 -2 56 -15 39 -8 -10 -12 -23 -9 -27 10 -17 -44 -41 -78 -34 -74 16 -115
61 -102 112 8 31 78 56 122 44 51 -15 51 -7 -1 18 -50 24 -58 25 -108 6z"/>
<path d="M3588 7033 c-31 -8 -19 -23 17 -23 75 0 115 -95 59 -139 -15 -12 -35
-21 -45 -21 -9 0 -19 -5 -21 -11 -3 -8 -9 -6 -20 4 -8 9 -18 13 -22 10 -10
-10 -44 26 -51 55 l-7 27 -10 -25 c-20 -52 12 -170 59 -212 35 -32 93 -50 135
-43 58 10 114 69 123 129 9 60 -1 113 -23 119 -16 4 -16 5 0 6 37 2 -29 91
-68 91 -23 0 -48 22 -37 33 7 8 -62 7 -89 0z m212 -197 c0 -3 -4 -8 -10 -11
-5 -3 -10 -1 -10 4 0 6 5 11 10 11 6 0 10 -2 10 -4z"/>
<path d="M4458 6933 c9 -4 7 -13 -8 -38 -20 -32 -20 -33 -1 -38 22 -5 31 10
31 54 0 21 -5 29 -17 28 -11 0 -13 -3 -5 -6z"/>
<path d="M4363 6798 c-43 -69 -31 -95 14 -28 21 32 31 55 26 64 -6 10 -17 0
-40 -36z"/>
<path d="M4463 6798 c-9 -15 -8 -9 -16 -78 -14 -119 -17 -190 -7 -190 5 0 11
6 12 13 1 14 4 40 12 117 3 30 8 76 12 103 6 47 2 58 -13 35z"/>
<path d="M830 6771 c0 -11 25 -21 55 -21 29 0 41 16 19 24 -24 9 -74 7 -74 -3z"/>
<path d="M927 6743 c-3 -3 -3 -11 0 -19 6 -15 29 -19 37 -6 6 9 -29 33 -37 25z"/>
<path d="M711 6714 c-6 -13 -17 -24 -26 -24 -21 0 -19 -17 3 -24 9 -3 -2 -3
-25 -1 -24 3 -45 0 -48 -6 -4 -6 -14 -8 -23 -4 -9 3 -13 3 -9 -2 5 -4 33 -8
64 -9 54 -2 55 -2 70 35 8 20 20 39 25 42 5 4 3 9 -5 12 -9 3 -19 -4 -26 -19z"/>
<path d="M4302 6718 c-7 -7 -12 -9 -12 -5 0 4 -9 -2 -20 -13 -20 -20 -26 -84
-7 -77 20 6 71 87 61 97 -7 7 -14 6 -22 -2z"/>
<path d="M950 6694 c0 -5 7 -18 15 -28 12 -16 15 -17 15 -4 0 8 -7 21 -15 28
-8 7 -15 9 -15 4z"/>
<path d="M400 6638 c-30 -4 -75 -10 -100 -14 -41 -5 -81 -27 -69 -38 6 -6 113
16 119 24 3 4 29 4 58 0 36 -4 56 -3 62 5 18 22 -12 31 -70 23z"/>
<path d="M5575 6640 c-3 -5 3 -26 14 -47 11 -21 20 -32 21 -25 0 7 -5 22 -11
33 -8 17 -7 23 8 35 17 13 17 13 -4 14 -12 0 -25 -4 -28 -10z"/>
<path d="M5638 6638 c9 -9 15 -9 24 0 9 9 7 12 -12 12 -19 0 -21 -3 -12 -12z"/>
<path d="M551 6624 c0 -11 3 -14 6 -6 3 7 2 16 -1 19 -3 4 -6 -2 -5 -13z"/>
<path d="M4620 6563 c-13 -12 -31 -23 -38 -23 -7 0 -10 -5 -7 -10 3 -6 0 -13
-8 -16 -8 -3 -17 -14 -20 -26 -5 -19 -5 -19 16 -1 12 10 28 26 36 37 8 11 16
14 20 8 11 -19 33 4 29 30 l-3 25 -25 -24z"/>
<path d="M543 6564 c-3 -8 -2 -19 3 -24 5 -5 9 1 9 16 0 28 -3 30 -12 8z"/>
<path d="M3280 6552 c0 -5 11 -14 24 -20 14 -6 44 -28 68 -49 33 -30 38 -32
21 -10 -34 44 -113 99 -113 79z"/>
<path d="M5620 6544 c0 -15 51 -126 56 -121 2 2 -9 33 -25 68 -17 35 -30 59
-31 53z"/>
<path d="M2975 6506 c-29 -13 -28 -13 21 -8 61 5 104 -13 152 -66 l33 -37 -20
41 c-15 30 -32 48 -64 63 -49 24 -79 26 -122 7z"/>
<path d="M4426 6494 c-9 -22 -8 -24 9 -18 8 4 15 12 15 20 0 19 -16 18 -24 -2z"/>
<path d="M542 6464 c-7 -8 -8 -14 -3 -14 10 0 25 19 20 25 -2 1 -10 -3 -17
-11z"/>
<path d="M4490 6452 c-19 -9 -38 -20 -41 -25 -4 -5 -12 -1 -18 9 -10 18 -10
18 -11 -1 -1 -11 -3 -35 -6 -53 -5 -38 14 -40 32 -4 6 12 13 20 16 17 2 -3 20
11 38 30 18 19 32 37 29 39 -2 3 -20 -3 -39 -12z"/>
<path d="M1967 6430 c6 -7 122 -36 257 -65 135 -28 248 -54 251 -57 6 -5 -53
-13 -325 -43 -182 -20 -196 -23 -183 -36 11 -11 132 1 428 41 77 10 149 18
160 17 32 -3 23 26 -10 35 -83 21 -499 109 -542 114 -38 5 -46 4 -36 -6z"/>
<path d="M3945 6414 c-203 -47 -391 -87 -440 -93 l-50 -6 25 -17 c18 -12 88
-25 240 -43 118 -14 242 -30 275 -35 36 -6 63 -6 69 0 12 12 -2 15 -259 45
-121 15 -229 29 -240 32 -17 5 -16 7 10 15 50 15 474 108 490 108 8 0 15 5 15
10 0 14 -19 11 -135 -16z"/>
<path d="M4622 6317 c-33 -192 -80 -318 -165 -444 -29 -43 -32 -53 -19 -53 20
0 86 98 119 175 68 160 80 207 99 383 12 110 -11 68 -34 -61z"/>
<path d="M54 6298 l-19 -23 23 19 c12 11 22 21 22 23 0 8 -8 2 -26 -19z"/>
<path d="M5720 6292 c0 -12 28 -48 33 -42 8 8 -11 50 -23 50 -5 0 -10 -4 -10
-8z"/>
<path d="M2890 6240 c24 -45 139 -77 180 -50 11 7 0 10 -38 10 -54 0 -98 16
-121 44 -19 23 -34 20 -21 -4z"/>
<path d="M5790 6123 c11 -21 20 -49 20 -63 0 -14 5 -32 11 -40 8 -11 9 -5 4
24 -8 46 -36 116 -47 116 -5 0 1 -17 12 -37z"/>
<path d="M2467 6074 c11 -67 112 -213 188 -272 138 -106 354 -139 555 -86 68
17 154 56 178 80 7 8 17 14 22 14 12 0 54 60 47 67 -4 3 -28 -14 -54 -37 -104
-92 -249 -137 -403 -127 -164 11 -276 56 -377 150 -60 57 -113 142 -132 216
-12 41 -31 38 -24 -5z"/>
<path d="M5534 5929 c-7 -12 15 -79 27 -79 5 0 4 11 -1 25 -12 32 -11 32 151
-7 110 -26 132 -29 140 -17 16 25 10 29 -43 28 -30 0 -76 8 -105 19 -29 11
-62 18 -73 15 -11 -3 -26 -1 -33 4 -19 15 -56 22 -63 12z"/>
<path d="M3472 5918 c-14 -14 -16 -28 -2 -28 5 0 14 9 20 20 12 22 1 27 -18 8z"/>
<path d="M430 5904 c-25 -8 -58 -15 -74 -17 -16 -1 -31 -8 -34 -15 -4 -14 28
-10 81 10 30 11 57 -2 57 -29 0 -25 23 -8 38 28 8 19 11 31 6 27 -4 -4 -12 -4
-18 1 -6 5 -30 3 -56 -5z"/>
<path d="M270 5874 c-19 -7 -45 -13 -57 -13 -12 -1 -24 -5 -28 -10 -11 -18 16
-22 70 -10 42 9 55 16 55 31 0 10 -1 17 -2 17 -2 -1 -19 -7 -38 -15z"/>
<path d="M4361 5756 c-28 -28 -49 -55 -45 -59 9 -8 70 39 95 74 34 49 4 40
-50 -15z"/>
<path d="M361 5554 c0 -11 3 -14 6 -6 3 7 2 16 -1 19 -3 4 -6 -2 -5 -13z"/>
<path d="M5710 5396 c0 -8 4 -17 9 -20 5 -4 7 3 4 14 -6 23 -13 26 -13 6z"/>
<path d="M5726 5323 c-3 -3 -1 -14 5 -24 11 -22 49 -26 49 -6 0 15 -44 39 -54
30z"/>
<path d="M126 5285 c-3 -9 -6 -19 -6 -21 0 -6 109 4 120 11 5 3 15 -4 23 -15
14 -21 15 -21 19 3 3 13 0 24 -6 25 -6 1 -41 4 -77 8 -56 5 -67 3 -73 -11z"/>
<path d="M4413 5273 c-20 -8 -15 -23 8 -23 11 0 29 -4 39 -10 23 -12 77 5 77
25 0 19 -21 19 -40 1 -12 -13 -18 -13 -42 0 -15 8 -28 14 -29 13 0 0 -7 -3
-13 -6z"/>
<path d="M575 5131 c-3 -6 -17 -11 -29 -11 -13 0 -29 -7 -36 -15 -7 -8 -18
-15 -25 -15 -7 0 -18 -7 -25 -15 -17 -21 -1 -19 39 6 55 33 115 17 92 -26 -3
-5 -6 -30 -7 -55 l-1 -45 14 55 c13 51 21 86 26 114 3 14 -39 20 -48 7z"/>
<path d="M5391 5127 c7 -7 20 -13 30 -13 10 0 21 6 23 13 4 9 -5 13 -30 13
-28 0 -32 -3 -23 -13z"/>
<path d="M5460 5118 c0 -7 18 -20 39 -29 l40 -17 -11 23 c-6 14 -16 21 -24 18
-8 -3 -14 0 -14 6 0 6 -7 11 -15 11 -8 0 -15 -6 -15 -12z"/>
<path d="M4320 5080 c0 -5 9 -10 21 -10 11 0 17 5 14 10 -3 6 -13 10 -21 10
-8 0 -14 -4 -14 -10z"/>
<path d="M5564 5055 c11 -8 22 -12 25 -9 6 6 -19 24 -34 24 -5 -1 -1 -7 9 -15z"/>
<path d="M354 5003 c-41 -37 -70 -53 -93 -53 -13 0 -18 -7 -18 -25 0 -17 3
-23 11 -17 103 80 146 115 146 118 0 11 -18 1 -46 -23z"/>
<path d="M5620 5020 c0 -5 5 -10 11 -10 5 0 7 5 4 10 -3 6 -8 10 -11 10 -2 0
-4 -4 -4 -10z"/>
<path d="M4210 4989 c0 -5 5 -7 10 -4 6 3 10 8 10 11 0 2 -4 4 -10 4 -5 0 -10
-5 -10 -11z"/>
<path d="M5720 4940 c44 -37 50 -37 50 0 0 29 -2 30 -42 30 l-42 0 34 -30z"/>
<path d="M4197 4943 c-4 -3 -7 -11 -7 -17 0 -6 5 -5 12 2 6 6 9 14 7 17 -3 3
-9 2 -12 -2z"/>
<path d="M4235 4910 c3 -5 -2 -10 -11 -10 -21 0 -16 -7 10 -12 12 -2 20 3 21
15 2 9 -3 17 -11 17 -9 0 -12 -4 -9 -10z"/>
<path d="M4075 4880 c3 -5 8 -10 11 -10 2 0 4 5 4 10 0 6 -5 10 -11 10 -5 0
-7 -4 -4 -10z"/>
<path d="M4428 4753 c7 -3 16 -2 19 1 4 3 -2 6 -13 5 -11 0 -14 -3 -6 -6z"/>
<path d="M5450 4745 c0 -8 4 -15 8 -15 5 0 9 7 9 15 0 8 -4 15 -9 15 -4 0 -8
-7 -8 -15z"/>
<path d="M4420 4720 c0 -5 9 -10 20 -10 11 0 20 5 20 10 0 6 -9 10 -20 10 -11
0 -20 -4 -20 -10z"/>
<path d="M530 4680 c0 -22 2 -40 4 -40 2 0 6 18 8 40 2 22 0 40 -4 40 -5 0 -8
-18 -8 -40z"/>
<path d="M4350 4711 c0 -15 16 -22 34 -15 25 9 19 24 -9 24 -14 0 -25 -4 -25
-9z"/>
<path d="M520 4422 c0 -23 4 -42 9 -42 6 0 7 17 4 38 -8 51 -13 53 -13 4z"/>
<path d="M4148 4313 c7 -3 16 -2 19 1 4 3 -2 6 -13 5 -11 0 -14 -3 -6 -6z"/>
<path d="M4405 4239 c1 -16 2 -42 3 -58 2 -22 8 -30 28 -34 19 -3 24 -1 20 10
-3 8 -6 32 -6 52 0 30 -5 40 -23 48 -22 10 -24 9 -22 -18z"/>
<path d="M5281 4244 c0 -11 3 -14 6 -6 3 7 2 16 -1 19 -3 4 -6 -2 -5 -13z"/>
<path d="M542 4225 c0 -16 2 -22 5 -12 2 9 2 23 0 30 -3 6 -5 -1 -5 -18z"/>
<path d="M887 4175 c-20 -25 -24 -35 -13 -35 8 0 21 -3 30 -6 11 -4 16 -1 16
10 0 9 4 16 9 16 4 0 6 11 3 25 -6 33 -12 32 -45 -10z"/>
<path d="M4145 4185 c0 -12 5 -22 12 -22 7 0 10 4 7 8 -2 4 3 9 13 11 13 2 12
5 -8 14 -21 10 -24 9 -24 -11z"/>
<path d="M5290 4203 c0 -4 5 -15 10 -23 8 -13 10 -13 10 2 0 9 -4 20 -10 23
-5 3 -10 3 -10 -2z"/>
<path d="M551 4108 c1 -7 5 -24 9 -38 8 -24 8 -24 9 7 1 17 -3 35 -9 38 -5 3
-10 0 -9 -7z"/>
<path d="M828 4094 c-6 -16 -21 -37 -32 -46 -12 -10 -16 -18 -9 -18 7 0 10 -7
7 -17 -3 -10 8 8 26 41 17 32 29 61 26 63 -3 3 -11 -7 -18 -23z"/>
<path d="M5430 4060 c0 -13 5 -18 15 -14 8 4 15 12 15 20 0 8 -7 14 -15 14 -8
0 -15 -9 -15 -20z"/>
<path d="M581 3994 c0 -11 3 -14 6 -6 3 7 2 16 -1 19 -3 4 -6 -2 -5 -13z"/>
<path d="M760 3961 c0 -6 5 -13 10 -16 6 -3 10 1 10 9 0 9 -4 16 -10 16 -5 0
-10 -4 -10 -9z"/>
<path d="M5345 3894 c0 -30 4 -54 8 -54 5 0 5 -6 0 -12 -11 -19 -12 -38 -2
-38 5 0 9 7 9 15 0 8 9 29 20 47 18 30 29 90 13 75 -3 -4 -16 -1 -27 7 -20 13
-21 11 -21 -40z"/>
<path d="M595 3930 c3 -5 11 -10 16 -10 6 0 7 5 4 10 -3 6 -11 10 -16 10 -6 0
-7 -4 -4 -10z"/>
<path d="M641 3815 c0 -18 64 -137 74 -139 5 0 11 21 13 48 3 33 0 46 -7 41
-19 -11 -50 5 -66 33 -8 15 -14 23 -14 17z"/>
<path d="M5354 3773 c-14 -5 -3 -85 14 -91 7 -2 12 5 11 20 -2 41 -14 75 -25
71z"/>
<path d="M950 3694 c0 -17 17 -36 24 -26 3 5 -1 15 -9 22 -8 7 -15 9 -15 4z"/>
<path d="M5377 3628 c8 -46 13 -48 13 -5 0 21 -4 37 -10 37 -5 0 -7 -14 -3
-32z"/>
<path d="M978 3625 c2 -14 8 -23 12 -20 10 6 1 45 -10 45 -4 0 -5 -11 -2 -25z"/>
<path d="M991 3560 c14 -31 19 -36 19 -24 0 6 -7 19 -16 30 -14 18 -14 18 -3
-6z"/>
<path d="M5391 3575 c-2 -5 -3 -29 -2 -52 0 -24 -3 -43 -7 -43 -9 0 -9 -127 1
-136 13 -14 18 24 14 132 -1 60 -4 105 -6 99z"/>
<path d="M5381 3294 c0 -11 3 -14 6 -6 3 7 2 16 -1 19 -3 4 -6 -2 -5 -13z"/>
</g>
</svg>
