<?xml version="1.0" standalone="no"?>
<!DOCTYPE svg PUBLIC "-//W3C//DTD SVG 20010904//EN"
 "http://www.w3.org/TR/2001/REC-SVG-20010904/DTD/svg10.dtd">
<svg version="1.0" xmlns="http://www.w3.org/2000/svg"
 width="600.000000pt" height="915.000000pt" viewBox="0 0 600.000000 915.000000"
 preserveAspectRatio="xMidYMid meet">
<metadata>
Created by potrace 1.15, written by Peter Selinger 2001-2017
</metadata>
<style type="text/css" >
    <![CDATA[
        rect.rectClass {
            stroke: #000066;
            fill:   #00cc00;
        }
        path {
            stroke: #006600;
            fill:   #cc0000;
        }
    ]]>
</style>
<g transform="translate(0.000000,915.000000) scale(0.100000,-0.100000)"
fill="#000000" stroke="none">
<path d="M1556 9051 c-50 -96 -86 -313 -86 -516 0 -220 28 -378 95 -540 6 -16
18 -46 26 -65 39 -101 197 -367 286 -483 53 -69 52 -79 -21 -144 -255 -229
-467 -648 -530 -1046 -48 -300 -26 -546 70 -794 29 -77 132 -266 153 -283 4
-3 30 -34 58 -70 92 -116 244 -248 391 -340 40 -24 72 -47 72 -50 -1 -19 -33
-34 -165 -79 -83 -27 -233 -87 -335 -131 -347 -153 -510 -221 -576 -238 l-65
-17 -61 33 c-86 48 -193 82 -260 83 -78 1 -115 -21 -151 -91 -23 -46 -36 -58
-75 -76 -107 -47 -145 -146 -83 -216 25 -29 27 -35 19 -67 -21 -75 19 -160 98
-206 38 -22 44 -30 44 -59 0 -62 69 -134 149 -156 111 -31 275 13 402 106 46
34 56 36 198 54 127 17 391 65 470 87 l24 6 -7 -134 c-9 -174 -16 -335 -16
-380 0 -33 -5 -40 -52 -70 -48 -30 -131 -93 -183 -137 -10 -9 -35 -26 -54 -37
-19 -12 -39 -30 -45 -40 -6 -11 -52 -64 -103 -118 -297 -317 -501 -649 -648
-1057 -40 -110 -103 -340 -120 -440 -62 -360 -70 -482 -34 -572 33 -85 105
-138 187 -138 54 0 99 20 163 74 l54 45 7 -59 c22 -195 171 -299 310 -217 26
15 59 45 75 68 62 90 59 88 73 43 15 -45 67 -113 112 -145 99 -71 225 -24 288
107 12 24 25 44 28 43 4 0 21 -21 37 -47 52 -82 159 -115 242 -75 20 9 52 38
72 64 40 53 51 59 51 29 0 -46 68 -141 124 -172 41 -24 117 -23 164 1 39 20
78 58 108 105 17 26 19 27 31 10 7 -10 13 -23 13 -30 0 -25 63 -106 103 -132
32 -21 52 -27 97 -27 72 0 125 33 177 110 l36 56 29 -53 c53 -96 107 -136 190
-139 76 -3 137 41 209 151 l16 25 16 -31 c37 -72 142 -154 196 -154 76 0 156
61 203 154 l30 60 19 -34 c53 -103 154 -155 248 -130 29 8 54 27 94 72 l55 61
19 -44 c39 -87 113 -139 198 -139 79 0 135 41 213 156 9 14 14 16 18 6 3 -7
24 -35 45 -62 56 -71 105 -101 176 -107 55 -5 60 -3 99 30 27 23 52 60 75 111
18 41 39 75 44 76 6 0 21 -21 34 -46 65 -121 215 -159 303 -76 34 31 58 100
59 166 1 91 6 94 74 40 81 -63 155 -97 187 -85 13 5 30 16 38 26 42 51 -30
335 -129 503 -22 37 -29 65 -35 132 -4 47 -15 137 -26 201 -81 501 -258 946
-506 1279 -35 46 -59 87 -54 90 11 7 -31 48 -52 53 -7 1 -26 18 -43 38 -50 58
-157 155 -240 218 -22 17 -47 36 -55 43 -14 13 -47 32 -137 79 -24 13 -43 30
-43 38 -1 9 -16 147 -34 306 -40 347 -46 329 79 286 96 -32 267 -69 420 -91
39 -5 178 -12 310 -15 347 -8 469 14 523 95 20 29 23 43 18 81 -6 44 -5 48 28
73 19 14 40 41 46 60 6 19 20 38 31 41 19 6 27 45 9 45 -5 0 -10 -4 -10 -10 0
-5 -4 -10 -9 -10 -5 0 -11 18 -15 40 -3 22 -15 49 -26 60 -16 16 -18 25 -10
40 5 10 10 39 10 63 0 89 -82 157 -190 157 -51 0 -57 2 -84 36 -88 111 -243
89 -341 -49 -83 -118 -69 -111 -214 -104 -255 13 -383 61 -626 236 -55 39
-124 87 -152 106 -29 19 -53 38 -53 41 0 4 40 48 88 98 169 175 267 380 307
648 19 124 19 180 -1 320 -35 258 -182 898 -205 898 -4 0 -1 -21 7 -47 22 -73
109 -443 124 -528 5 -27 16 -88 25 -135 58 -309 56 -423 -10 -656 -128 -447
-464 -719 -985 -800 -186 -28 -499 -28 -670 1 -14 2 -68 11 -120 20 -456 77
-826 253 -1101 525 -150 149 -247 296 -316 479 -156 415 -66 1025 218 1472 93
147 277 359 312 359 5 0 6 -17 2 -39 -7 -43 8 -63 24 -32 24 44 12 86 -44 156
-176 219 -383 629 -389 770 -1 22 -4 45 -8 50 -17 26 -27 246 -18 385 9 147
49 341 84 412 21 41 20 48 -4 48 -11 0 -26 -12 -34 -29z m517 -4438 c12 -74
37 -140 92 -238 30 -55 53 -106 50 -113 -2 -7 -20 -19 -39 -27 -34 -14 -39
-13 -115 20 -127 56 -200 46 -255 -36 -41 -61 -59 -127 -89 -339 l-12 -85 -40
-13 c-66 -22 -330 -71 -486 -90 -135 -17 -149 -21 -185 -50 -46 -36 -142 -85
-199 -101 -22 -6 -69 -11 -105 -11 -119 1 -190 55 -190 147 0 38 -3 42 -34 53
-43 14 -102 77 -111 120 -5 22 -2 44 10 70 l17 38 -36 37 c-65 64 -36 133 74
180 46 19 56 28 61 54 16 76 73 117 149 107 65 -9 163 -44 234 -85 58 -34 60
-34 115 -23 74 16 174 56 491 197 266 118 537 224 576 225 17 0 23 -8 27 -37z
m2275 -25 c31 -24 80 -58 107 -77 28 -19 85 -58 127 -88 164 -114 438 -186
631 -168 l68 7 24 49 c52 102 143 169 230 169 53 -1 82 -18 114 -70 l27 -43
65 2 c95 3 136 -18 159 -80 12 -33 11 -40 -10 -77 l-23 -41 31 -32 c17 -17 34
-44 37 -60 9 -40 -21 -96 -67 -127 -32 -20 -38 -30 -33 -46 4 -12 9 -36 12
-54 8 -49 -33 -87 -122 -115 -66 -21 -88 -22 -360 -22 -229 0 -314 4 -402 18
-122 20 -349 75 -428 104 -48 18 -50 20 -58 68 -36 222 -82 388 -119 427 -18
19 -28 44 -33 81 -4 28 -10 57 -14 62 -3 6 -18 39 -32 75 -19 46 -23 67 -15
72 18 12 24 10 84 -34z m-1703 -81 c420 -106 852 -116 1185 -26 63 17 122 33
131 36 19 5 29 -38 29 -124 0 -51 -28 -134 -50 -148 -6 -4 -50 17 -98 46 -125
75 -155 76 -279 13 -92 -47 -98 -49 -176 -48 -45 1 -105 5 -133 11 -37 6 -68
5 -110 -4 -33 -8 -102 -17 -155 -20 l-96 -5 -77 42 c-85 47 -136 54 -181 24
-14 -9 -27 -15 -29 -13 -2 2 -24 36 -48 74 -59 92 -82 141 -74 161 7 19 13 18
161 -19z m1106 -201 c19 -8 59 -31 89 -50 30 -20 62 -39 72 -42 10 -3 18 -12
18 -20 0 -31 -107 -191 -158 -238 -21 -18 -22 -18 -63 17 -67 58 -104 71 -199
72 -69 0 -93 -4 -127 -23 -60 -31 -112 -87 -140 -149 -26 -57 -33 -62 -53 -38
-21 25 -130 82 -191 99 -45 14 -74 33 -155 105 -89 79 -183 179 -193 203 -1 5
5 18 15 29 18 20 78 26 89 9 4 -6 34 -24 68 -40 84 -39 169 -47 267 -24 82 20
165 22 250 6 97 -17 159 -2 294 71 56 31 71 32 117 13z m637 -124 c33 -137 54
-277 92 -612 34 -291 42 -381 37 -394 -5 -13 -73 -30 -166 -42 l-54 -6 7 28
c4 16 14 35 24 42 12 9 13 15 4 24 -17 17 -42 -8 -42 -42 0 -52 -5 -54 -292
-86 -21 -2 -38 -2 -38 1 0 3 11 22 24 43 13 20 29 54 36 75 18 57 9 173 -17
226 -12 24 -20 48 -17 53 3 5 31 21 63 37 76 39 146 98 146 124 0 16 -11 24
-50 36 -27 8 -52 16 -53 17 -2 2 19 30 47 63 105 127 173 273 190 410 15 121
31 122 59 3z m-2324 38 c69 -35 98 -37 151 -10 34 18 40 18 48 5 7 -13 45 -64
119 -160 55 -71 240 -283 345 -395 20 -21 31 -41 27 -50 -17 -41 -15 -46 28
-67 24 -12 55 -25 69 -28 15 -4 51 -31 82 -62 52 -52 55 -57 61 -121 4 -37 15
-81 24 -98 22 -40 78 -102 127 -140 l38 -29 -29 -5 c-16 -3 -71 -4 -121 -2
l-93 4 0 28 c0 31 -34 80 -46 67 -5 -4 -3 -17 4 -27 7 -11 12 -29 12 -41 l0
-22 -172 7 c-236 10 -331 16 -345 21 -9 3 -13 25 -13 61 0 49 -2 55 -15 44 -8
-7 -15 -29 -15 -50 0 -53 -15 -62 -81 -50 -30 5 -72 12 -94 14 -22 3 -80 12
-130 21 -49 9 -117 20 -150 25 -88 15 -159 33 -166 43 -3 5 -5 66 -3 135 10
482 40 727 104 838 51 91 118 103 234 44z m1557 -233 c51 -25 115 -90 122
-124 6 -33 -1 -49 -16 -34 -6 6 -21 11 -33 11 -13 0 -25 4 -29 9 -6 10 -17 9
-158 -10 -48 -7 -90 -16 -93 -21 -8 -13 -44 -9 -44 5 -1 6 -7 0 -15 -14 -12
-22 -74 -69 -91 -69 -9 0 -3 49 13 95 21 62 93 136 154 158 54 20 141 17 190
-6z m-5 -175 c22 -15 24 -45 4 -86 -21 -45 -52 -68 -114 -84 l-38 -11 4 80 c3
66 7 83 23 95 20 15 102 19 121 6z m129 -33 c15 -3 21 -13 23 -44 3 -41 -24
-109 -43 -111 -39 -2 -106 -20 -140 -36 -26 -14 -40 -17 -43 -9 -2 6 -15 11
-30 11 -34 0 -19 12 40 34 55 20 81 50 105 117 12 34 24 49 38 51 11 2 22 0
25 -3 3 -4 14 -8 25 -10z m-299 -35 c-3 -26 -6 -60 -6 -76 0 -26 -2 -28 -27
-22 -16 4 -39 13 -52 21 -15 10 -35 13 -57 8 -20 -3 -34 -2 -34 4 0 16 39 48
74 62 17 7 42 21 55 31 42 32 55 24 47 -28z m-91 -135 c49 -8 70 -18 99 -45
40 -38 42 -45 21 -78 -13 -20 -21 -22 -68 -18 -46 4 -88 -2 -191 -25 -22 -4
-27 -3 -21 7 12 20 -26 -4 -54 -34 -14 -14 -29 -26 -34 -26 -5 0 -22 -9 -38
-21 l-29 -20 0 34 c0 39 39 118 78 161 31 33 116 76 151 76 13 0 52 -5 86 -11z
m488 -68 c78 -38 164 -170 93 -144 -11 4 -73 8 -136 7 -126 0 -177 -15 -273
-76 -26 -17 -50 -28 -53 -26 -9 10 17 104 42 145 66 113 205 153 327 94z
m-423 -122 c0 -72 -75 -159 -136 -159 l-37 0 6 63 c8 84 13 95 50 100 69 8
117 7 117 -4z m-207 -83 c-4 -47 -1 -79 11 -116 10 -29 15 -55 12 -58 -3 -3
-1 -11 5 -18 14 -18 -6 -28 -30 -14 -11 5 -27 10 -37 10 -9 0 -33 19 -53 42
-50 57 -57 69 -65 102 -6 23 -4 27 9 23 19 -8 67 13 62 27 -4 10 69 66 85 66
4 0 5 -29 1 -64z m642 34 c11 -18 -24 -105 -53 -133 -16 -15 -44 -29 -70 -33
l-42 -7 0 50 c0 88 9 112 44 122 43 13 114 13 121 1z m114 -26 c20 -15 22 -21
16 -68 -10 -72 -37 -120 -96 -166 -42 -33 -125 -70 -133 -58 -19 26 -46 82
-46 93 0 8 12 17 28 21 51 12 104 57 129 109 12 27 23 58 23 68 0 22 47 23 79
1z m-313 -103 c0 -79 5 -106 21 -138 l21 -40 -31 3 c-18 2 -44 13 -59 24 -15
11 -30 20 -33 20 -14 0 -54 57 -55 78 0 12 -4 22 -10 22 -17 0 -11 52 8 67 21
17 113 63 127 63 6 0 10 -40 11 -99z m-243 -27 c-18 -16 -16 -22 9 -26 12 -2
23 -8 25 -14 6 -18 -53 -55 -95 -61 -36 -5 -38 -3 -57 38 -27 59 -29 65 -20
57 10 -10 107 42 125 67 15 19 15 19 21 -15 3 -23 1 -39 -8 -46z m-1564 -71
c64 -15 118 -28 120 -30 10 -8 -174 -168 -193 -169 -12 -1 -26 -2 -32 -2 -18
-3 -26 -34 -12 -43 15 -10 40 9 31 24 -3 6 -1 7 5 3 8 -4 -9 -36 -47 -91 -71
-102 -106 -190 -97 -240 8 -40 16 -43 40 -16 12 13 14 21 6 26 -6 4 -8 15 -5
26 4 10 8 31 11 45 7 37 29 78 79 149 43 60 145 166 145 151 0 -4 -10 -16 -22
-26 -13 -10 -20 -21 -17 -25 11 -11 50 38 44 55 -3 10 16 37 55 75 l59 59 78
-17 c43 -9 94 -17 113 -17 43 0 290 -29 310 -37 8 -3 32 -5 53 -4 38 3 44 -3
28 -28 -5 -8 -16 -11 -26 -7 -21 8 -55 -1 -55 -15 0 -6 5 -7 11 -3 6 3 16 0
21 -7 7 -11 11 -11 15 -1 2 6 9 12 13 12 5 0 -12 -48 -37 -107 -46 -110 -67
-162 -103 -255 -22 -57 -70 -116 -70 -86 0 15 -3 15 -27 2 -33 -16 -47 -18
-38 -4 3 6 2 10 -4 10 -5 0 -13 -5 -16 -10 -5 -8 -11 -7 -20 0 -11 9 -17 7
-27 -9 -7 -12 -18 -21 -25 -21 -7 0 -13 -5 -13 -12 0 -7 -6 -6 -17 4 -17 15
-42 14 -53 -2 -3 -4 -34 -12 -69 -18 -35 -6 -77 -20 -95 -32 l-31 -20 28 0
c15 0 36 5 46 12 15 9 23 9 36 -2 16 -13 16 -15 -2 -21 -12 -4 -5 -7 20 -7 28
0 44 7 65 29 29 31 66 43 42 14 -17 -21 -10 -25 20 -13 14 6 38 12 54 13 17 2
35 9 40 17 13 17 76 22 76 6 0 -5 7 -7 16 -4 13 5 14 1 9 -27 -11 -49 -38 -90
-65 -98 -21 -6 -22 -7 -5 -9 11 -1 24 -2 28 -1 5 1 6 -20 3 -46 -4 -26 -9 -74
-11 -107 -2 -32 -6 -59 -7 -60 -49 -30 -59 -39 -51 -47 6 -6 21 -6 39 1 21 8
40 8 71 -1 57 -15 119 -6 150 23 41 37 82 106 76 129 -7 25 -23 12 -57 -45
-17 -28 -38 -48 -65 -61 -40 -18 -42 -18 -76 1 -28 15 -33 22 -29 41 4 15 2
23 -6 23 -10 0 -11 15 -6 57 7 60 27 93 56 93 10 0 21 7 24 16 8 20 -2 33 -12
18 -4 -6 -17 -16 -28 -22 -21 -11 -21 -10 -13 31 11 60 29 97 48 98 66 4 123
10 161 18 25 5 48 7 52 5 4 -3 26 0 49 6 26 7 45 8 51 2 6 -6 25 -6 50 -1 22
5 45 9 51 8 30 -5 97 15 97 27 0 8 9 14 20 14 11 0 20 -4 20 -10 0 -5 -4 -10
-10 -10 -22 0 -8 -18 17 -23 30 -5 49 11 33 27 -6 6 -10 20 -10 33 0 22 -3 22
-62 19 -35 -2 -65 -5 -68 -6 -3 -1 -9 -2 -13 -1 -5 1 -11 -8 -14 -19 -7 -26
-23 -26 -23 1 0 18 -2 20 -16 8 -12 -10 -17 -10 -23 0 -9 13 -23 1 -34 -31 -7
-20 -27 -25 -27 -7 0 6 -9 9 -20 6 -23 -6 -26 8 -6 29 17 16 30 19 21 4 -3 -5
-2 -10 3 -10 6 0 12 6 15 14 4 11 -2 13 -26 10 -17 -2 -34 1 -38 8 -4 6 -18 8
-35 4 -22 -6 -25 -9 -13 -17 11 -7 10 -9 -6 -7 -11 0 -35 0 -54 0 -27 -2 -32
-5 -28 -21 6 -24 -2 -37 -31 -46 l-24 -7 21 21 c18 18 19 24 9 41 -17 27 -47
25 -58 -4 -5 -13 -14 -27 -19 -31 -14 -8 -14 -7 4 46 17 48 16 48 110 50 28 1
44 4 38 6 -20 7 -15 31 7 38 11 3 20 11 20 16 0 13 -11 11 -31 -7 -10 -9 -34
-19 -53 -24 -31 -7 -36 -5 -36 10 0 10 6 21 13 23 7 4 6 6 -5 6 -15 1 -14 6 3
54 11 28 40 97 64 153 25 55 45 106 45 112 0 7 6 13 13 13 20 2 552 -3 554 -5
1 -1 -2 -19 -7 -41 -4 -22 -11 -68 -15 -103 l-7 -63 26 7 c14 3 37 7 50 8 13
0 23 3 21 5 -6 5 129 111 139 108 4 -1 18 -26 30 -54 19 -45 70 -114 130 -176
18 -19 18 -19 39 1 15 16 23 44 32 124 7 57 15 96 18 88 20 -52 43 -280 39
-380 -2 -37 -5 -42 -15 -30 -8 10 -31 15 -74 15 -33 0 -59 3 -56 7 2 5 -7 4
-21 -2 -17 -6 -26 -6 -28 2 -5 15 -139 12 -149 -4 -4 -6 -5 -18 -1 -26 3 -10
1 -13 -6 -8 -6 3 -13 2 -17 -4 -7 -11 39 -8 68 4 10 5 30 3 47 -4 23 -9 33
-10 44 -1 11 9 15 7 19 -9 5 -20 45 -29 60 -13 4 3 18 7 32 8 20 0 24 -3 19
-17 -5 -15 -1 -17 28 -11 18 3 36 10 39 15 9 13 19 -45 19 -106 -1 -69 -15
-125 -37 -147 -18 -18 -20 -18 -53 -1 -43 21 -93 111 -87 157 2 16 -2 35 -9
42 -7 7 -10 22 -7 34 9 34 -20 18 -32 -17 -5 -16 -14 -32 -20 -36 -6 -5 -1
-14 13 -23 12 -9 22 -25 22 -35 0 -10 11 -41 25 -68 14 -28 25 -55 25 -61 0
-6 7 -11 15 -11 9 0 18 -7 21 -15 4 -10 20 -15 45 -15 21 0 39 -4 39 -10 0 -5
8 -10 18 -9 10 0 12 3 4 6 -9 4 -8 12 7 36 27 45 49 138 60 260 1 5 9 6 19 3
10 -4 41 -8 69 -10 67 -6 135 -26 150 -43 7 -9 13 -11 18 -4 9 16 102 7 122
-12 13 -11 23 -13 35 -6 11 6 19 6 23 -1 3 -5 25 -7 50 -3 29 4 45 2 45 -5 0
-6 -8 -13 -17 -15 -10 -3 5 -5 34 -6 28 0 53 -5 55 -11 4 -12 152 -44 172 -37
22 9 20 28 -4 34 -24 6 -25 11 -3 35 15 17 15 18 -3 18 -29 0 -93 25 -116 44
-13 11 -29 15 -46 11 -15 -3 -42 -1 -59 4 -18 5 -35 6 -38 2 -10 -18 -75 -18
-164 -1 -52 10 -108 16 -124 13 -15 -2 -34 1 -41 7 -8 6 -45 13 -82 17 -38 3
-76 9 -84 14 -15 7 -38 99 -38 149 0 47 -21 235 -31 275 -18 68 -15 75 27 75
57 1 123 19 162 44 31 21 59 26 230 40 107 10 209 19 227 21 27 4 36 -1 67
-39 20 -25 36 -49 36 -55 0 -6 15 -34 34 -63 18 -29 40 -69 49 -88 57 -128 67
-153 67 -175 0 -23 -23 -55 -40 -55 -5 0 -15 -2 -23 -6 -24 -9 -74 42 -88 91
-15 51 -29 59 -29 16 0 -38 25 -95 52 -121 30 -28 89 -27 124 3 26 23 27 25
20 100 -5 46 -13 81 -22 88 -8 6 -14 17 -14 23 0 15 -39 91 -73 143 -15 24
-27 47 -27 53 0 5 -4 10 -9 10 -13 0 -50 79 -41 85 5 3 32 10 62 15 49 10 56
8 113 -21 33 -18 71 -44 85 -59 14 -15 55 -48 92 -73 87 -60 99 -70 172 -146
33 -35 73 -75 88 -89 16 -14 28 -29 28 -34 0 -5 20 -29 45 -54 25 -24 45 -51
45 -58 0 -8 3 -16 8 -18 22 -10 114 -163 173 -288 12 -25 25 -52 30 -60 23
-41 40 -81 59 -140 12 -36 35 -93 51 -128 16 -34 29 -71 29 -81 0 -11 4 -22 9
-25 5 -3 11 -20 14 -38 3 -18 15 -67 27 -108 24 -87 72 -298 72 -320 0 -8 4
-35 10 -59 5 -24 13 -85 18 -135 4 -50 11 -99 15 -108 5 -12 -2 -26 -21 -43
-30 -28 -283 -159 -291 -151 -3 3 -12 -1 -20 -9 -8 -8 -26 -18 -41 -21 -15 -4
-54 -19 -87 -34 -152 -71 -103 -65 -520 -65 -271 0 -391 -4 -420 -12 -37 -11
-260 -42 -414 -58 -197 -19 -896 8 -926 36 -5 5 -23 9 -40 9 -28 0 -271 44
-375 69 -211 49 -260 54 -450 46 -266 -11 -494 -13 -575 -4 -38 4 -113 13
-165 20 -52 6 -104 11 -115 11 -37 0 -150 20 -159 28 -5 5 -15 6 -22 3 -8 -3
-35 2 -61 11 -27 8 -81 25 -120 37 -40 11 -75 25 -79 30 -3 5 -9 7 -14 4 -4
-3 -13 2 -20 10 -7 8 -17 15 -22 15 -21 0 -166 104 -186 135 -19 27 -22 41
-17 86 12 110 47 240 71 259 7 7 14 24 14 39 0 36 11 49 40 47 19 -1 25 4 26
22 1 12 -4 22 -10 22 -6 0 2 9 19 20 27 18 30 18 39 3 7 -13 11 -10 22 16 8
18 23 35 34 38 19 5 90 94 90 113 0 6 6 10 14 10 8 0 16 6 19 13 2 6 8 9 12 5
4 -4 -7 -24 -24 -44 -18 -20 -30 -39 -27 -41 8 -8 36 17 36 32 0 7 7 15 15 19
8 3 15 11 15 18 0 7 16 26 35 41 19 15 35 34 35 42 0 14 11 19 36 16 16 -2 57
46 52 60 -3 9 -11 6 -26 -9 -25 -25 -32 -27 -32 -10 0 15 61 69 71 63 4 -3 14
3 21 13 7 11 23 22 36 26 12 4 22 13 22 20 0 7 10 12 22 12 15 -1 24 6 28 23
4 20 50 52 50 35 0 -11 69 77 75 95 5 17 28 32 69 45 14 5 16 10 9 17 -8 8
-17 8 -31 0 -29 -15 -31 -14 -25 12 4 18 3 19 -6 7 -7 -10 -11 -11 -11 -2 0
18 -17 15 -24 -5 -3 -10 -11 -26 -18 -36 -11 -14 -10 -19 2 -27 23 -14 -16
-53 -40 -40 -12 7 -26 6 -42 -3 -47 -26 -68 -42 -68 -54 0 -7 -6 -10 -12 -8
-7 3 -24 -11 -38 -30 -14 -19 -31 -35 -37 -35 -7 0 -13 -8 -13 -17 -1 -32 -28
-56 -60 -55 -26 1 -32 -4 -37 -29 -4 -22 -8 -27 -14 -17 -6 9 -9 6 -9 -10 0
-25 -26 -67 -72 -117 -15 -16 -28 -35 -28 -41 0 -15 -39 -64 -51 -64 -6 0 -8
4 -5 8 3 5 -11 8 -31 7 -29 -2 -43 -10 -67 -40 -23 -29 -27 -38 -15 -45 18
-12 6 -22 -26 -22 -19 0 -27 -7 -31 -27 -3 -14 -9 -35 -14 -46 -20 -46 -9 16
20 112 77 259 249 594 433 841 107 143 273 325 289 316 5 -3 7 -2 6 3 -3 8
114 123 177 176 55 45 187 137 197 137 6 0 63 -12 127 -27z m661 -478 c0 -8
-4 -15 -10 -15 -5 0 -7 7 -4 15 4 8 8 15 10 15 2 0 4 -7 4 -15z m-1302 -509
c-1 -14 -6 -22 -10 -20 -4 3 -8 -1 -9 -8 0 -9 -2 -10 -5 -1 -5 11 12 53 21 53
3 0 4 -11 3 -24z m-84 -42 c3 -8 2 -12 -4 -9 -6 3 -10 10 -10 16 0 14 7 11 14
-7z m-601 -1038 c13 5 57 -30 57 -46 0 -5 -5 -12 -10 -15 -13 -8 6 -35 24 -35
6 0 4 5 -4 11 -12 9 -12 10 3 5 10 -3 25 -6 33 -6 9 0 12 -5 8 -11 -5 -8 1
-10 19 -5 30 7 77 -11 77 -31 0 -7 -4 -13 -10 -13 -5 0 -10 6 -10 13 0 7 -12
13 -27 12 -21 0 -36 -11 -61 -45 -30 -41 -62 -69 -62 -55 0 3 11 23 25 45 14
22 25 44 25 50 0 16 -20 12 -26 -5 -9 -23 -23 -18 -16 7 3 14 2 19 -6 14 -7
-4 -12 -14 -12 -21 0 -8 -9 -19 -21 -25 -26 -14 -35 -7 -14 10 19 16 20 34 0
26 -25 -9 -38 31 -31 97 8 71 20 96 24 50 2 -20 8 -30 15 -27z m5164 -63 c-4
-3 2 -17 14 -29 11 -12 22 -33 23 -46 2 -19 -2 -24 -22 -26 -13 -1 -37 -13
-53 -26 -15 -13 -33 -26 -40 -28 -7 -2 -4 -17 11 -42 12 -22 18 -42 13 -45
-13 -10 -9 -36 7 -42 8 -4 21 -2 29 5 11 9 9 12 -10 17 l-24 7 25 1 c27 1 53
-38 43 -65 -3 -9 2 -14 15 -14 11 0 22 8 26 18 3 9 9 23 12 30 3 7 -2 12 -14
12 -13 0 -19 6 -18 17 0 10 -9 22 -22 28 -27 12 -40 51 -22 68 10 10 12 7 7
-13 l-6 -25 23 27 c13 15 26 32 28 39 7 21 27 0 34 -36 3 -20 10 -38 15 -41 5
-3 9 -14 9 -25 0 -11 9 -37 20 -58 10 -21 22 -68 26 -105 10 -99 -14 -99 -129
-2 -26 21 -44 43 -41 47 3 5 -1 6 -8 4 -8 -3 -31 13 -52 35 -25 26 -46 40 -63
40 -25 0 -26 0 -8 20 10 11 26 20 37 20 10 0 18 5 18 10 0 6 -7 10 -15 10 -8
0 -15 7 -15 16 0 14 -3 14 -15 4 -9 -7 -18 -10 -21 -7 -7 6 23 65 43 85 11 12
11 17 1 31 -12 14 -11 14 4 3 13 -10 22 -11 38 -2 12 6 20 16 17 23 -3 9 50
66 62 67 2 0 1 -3 -2 -7z m-5210 -85 c-3 -8 -6 -5 -6 6 -1 11 2 17 5 13 3 -3
4 -12 1 -19z m5063 -34 c0 -4 -8 -13 -17 -21 -10 -8 -12 -11 -4 -7 9 5 12 3 7
-4 -9 -14 -36 -16 -36 -3 0 5 7 17 16 25 16 16 34 21 34 10z m-4522 -23 c9 -5
44 -14 77 -21 33 -7 65 -16 70 -20 6 -4 42 -6 80 -5 75 2 95 -1 95 -17 0 -6
-13 -8 -29 -6 -17 2 -28 1 -26 -3 8 -12 -43 -157 -69 -197 -53 -83 -116 -119
-178 -101 -44 12 -85 48 -92 82 -6 27 8 39 17 15 4 -9 12 -5 26 12 11 14 21
20 21 15 0 -6 -5 -16 -11 -22 -6 -6 -9 -19 -7 -29 3 -15 7 -14 33 10 17 15 24
25 18 21 -8 -3 -13 0 -13 9 0 24 11 46 24 46 17 0 58 39 51 49 -6 10 -53 2
-61 -10 -3 -5 -14 -9 -25 -9 -10 0 -19 -6 -19 -13 0 -8 -9 -22 -19 -31 -31
-28 -36 0 -7 39 36 47 33 67 -4 27 -16 -18 -30 -40 -30 -48 0 -8 -6 -14 -14
-14 -27 0 -35 116 -14 195 12 46 13 46 50 41 21 -3 46 -10 56 -15z m4452 -1
c0 -5 -2 -10 -4 -10 -3 0 -8 5 -11 10 -3 6 -1 10 4 10 6 0 11 -4 11 -10z m-23
-43 c-6 -13 -24 -29 -39 -36 -31 -14 -37 -31 -12 -31 9 0 13 -5 10 -12 -3 -7
-9 -21 -12 -31 -4 -10 -12 -15 -18 -12 -6 3 -19 8 -28 11 -10 4 -18 13 -18 20
0 8 -4 14 -10 14 -15 0 -12 -26 4 -39 8 -7 12 -21 9 -32 -4 -15 -2 -18 11 -13
10 4 16 1 16 -7 0 -10 3 -10 8 -3 4 6 21 18 39 27 29 15 32 15 37 0 6 -14 10
-13 31 7 23 22 25 22 31 4 3 -10 11 -29 16 -41 6 -13 8 -40 4 -65 -4 -24 -7
-60 -6 -80 1 -47 -21 -90 -59 -117 -59 -43 -130 -17 -188 68 -17 25 -35 60
-39 76 -4 17 -9 34 -12 39 -5 8 -6 66 -3 114 0 15 9 26 21 29 11 3 20 9 20 13
0 13 -23 18 -63 14 -20 -3 -37 -2 -37 1 0 15 123 57 183 62 52 5 70 10 78 24
5 11 16 19 23 19 11 0 12 -5 3 -23z m-4651 -41 c-31 -42 -80 -80 -119 -95 -41
-16 -115 3 -144 37 -25 28 -40 69 -29 79 5 5 11 -7 32 -66 3 -10 8 -11 15 -4
8 8 17 5 31 -9 26 -26 62 -17 108 26 19 19 41 31 48 29 6 -3 12 1 12 9 0 10 2
10 8 0 6 -9 14 -7 33 11 34 33 37 24 5 -17z m1009 14 c3 -5 -1 -10 -10 -10 -9
0 -13 5 -10 10 3 6 8 10 10 10 2 0 7 -4 10 -10z m-382 -7 c4 -3 2 -12 -4 -20
-9 -11 0 -12 52 -9 35 2 70 -1 77 -7 9 -7 18 -3 31 12 14 15 20 18 24 9 3 -10
8 -11 26 0 29 17 33 15 26 -8 -9 -28 10 -25 30 6 9 14 19 23 23 20 3 -4 0 -12
-6 -18 -7 -7 -12 -18 -12 -25 0 -11 4 -11 23 -2 19 10 20 10 10 -2 -6 -8 -19
-45 -27 -82 -25 -106 -65 -172 -123 -201 -68 -34 -114 -11 -180 87 -37 55 -46
80 -54 138 -6 39 -7 74 -4 78 6 6 63 29 76 30 3 1 9 -2 12 -6z m207 3 c0 -3
-4 -8 -10 -11 -5 -3 -10 -1 -10 4 0 6 5 11 10 11 6 0 10 -2 10 -4z m240 -38
c1 -28 3 -31 13 -17 7 8 27 21 45 27 28 10 37 9 49 -4 9 -9 24 -12 37 -9 18 5
19 4 5 -7 -21 -17 -32 -48 -16 -45 13 2 11 -31 -4 -49 -12 -15 -101 -8 -111 9
-4 6 -3 17 3 23 6 8 3 13 -11 17 -12 3 -20 0 -20 -7 0 -6 -9 -19 -20 -29 -23
-20 -26 -62 -5 -71 8 -3 15 -2 15 2 0 4 21 8 46 9 35 1 47 -2 52 -16 10 -26
70 -8 82 24 5 14 15 25 21 25 7 0 9 9 5 22 -4 16 1 29 17 43 12 11 27 29 33
40 9 16 22 20 70 20 33 0 64 -2 69 -6 14 -9 128 -28 138 -22 4 2 3 13 -3 23
-7 13 -7 21 0 25 17 11 27 -3 22 -33 -5 -34 12 -49 34 -32 12 11 14 9 12 -11
-2 -15 3 -24 15 -27 10 -2 17 3 17 11 0 8 9 17 20 20 13 3 20 0 20 -10 0 -11
7 -9 31 8 27 19 36 21 60 12 16 -6 29 -8 29 -3 0 4 10 7 23 6 15 -1 21 -7 19
-19 -2 -9 2 -17 8 -17 5 0 10 5 10 12 0 6 2 9 5 6 6 -6 -15 -58 -24 -59 -3 0
-17 -2 -29 -3 -13 -2 -27 -8 -32 -15 -9 -15 -15 -7 -24 32 -3 15 -12 27 -18
27 -15 0 -68 -50 -68 -64 0 -6 5 -4 11 4 21 30 -3 -55 -30 -104 -55 -103 -165
-140 -229 -77 -42 42 -92 184 -92 261 0 58 -43 50 -55 -10 -8 -38 -64 -146
-85 -165 -10 -9 -36 -23 -57 -30 -32 -11 -44 -11 -73 1 -39 16 -90 66 -90 89
0 8 -4 15 -8 15 -4 0 -16 24 -26 53 -10 28 -23 62 -29 75 -9 18 -8 25 3 32 22
14 33 12 26 -5 -7 -19 8 -19 24 0 7 8 17 12 22 9 6 -4 6 -10 -1 -17 -18 -18
-12 -28 9 -17 11 6 20 20 20 30 0 11 5 20 10 20 6 0 10 -15 10 -32z m3625 -30
c6 -4 2 -8 -7 -8 -10 0 -18 7 -18 17 0 9 3 12 8 7 4 -5 12 -12 17 -16z m-65
-2 c0 -3 -4 -8 -10 -11 -5 -3 -10 -1 -10 4 0 6 5 11 10 11 6 0 10 -2 10 -4z
m-290 -18 c0 -25 -16 -39 -35 -32 -12 5 -16 4 -12 -3 7 -11 -62 -28 -95 -24
-9 1 -19 -2 -22 -7 -2 -4 -39 -8 -81 -7 -49 1 -79 -3 -86 -11 -6 -7 -24 -10
-47 -7 -30 3 -42 -1 -64 -21 -15 -14 -35 -26 -45 -26 -14 0 -15 2 -5 9 11 7
10 9 -3 14 -9 4 -18 1 -21 -8 -4 -8 -14 -15 -23 -15 -10 0 -21 -3 -25 -7 -4
-5 -31 -13 -59 -19 -29 -6 -51 -15 -50 -21 1 -6 -5 -14 -13 -17 -12 -4 -15 -2
-11 9 9 22 -7 26 -24 7 -21 -25 -30 -52 -18 -52 6 0 7 -5 4 -10 -6 -10 44 -35
52 -26 3 2 6 12 7 23 2 11 10 17 21 15 9 -2 14 1 11 6 -8 13 3 42 15 42 5 0
14 -11 19 -25 11 -29 16 -30 36 -10 18 18 47 19 76 4 17 -9 20 -9 16 2 -3 8 3
23 13 33 25 25 24 9 -2 -56 -39 -100 -124 -154 -202 -129 -70 23 -127 120
-127 216 0 66 13 89 47 83 10 -1 23 1 30 5 7 4 45 10 85 12 130 8 192 13 258
23 54 7 168 8 197 0 4 -1 33 2 63 7 30 5 59 8 63 7 4 -1 15 4 23 13 19 18 34
19 34 3z m-2218 -31 c6 -9 8 -9 8 0 0 7 9 10 23 6 12 -3 39 -8 59 -10 20 -3
39 -11 42 -18 6 -17 -20 -40 -29 -25 -11 17 -44 11 -55 -11 -11 -19 -12 -19
-24 -3 -9 12 -22 15 -45 12 -27 -4 -30 -2 -25 14 4 15 0 18 -25 18 -25 0 -31
4 -31 21 0 20 4 21 48 14 26 -4 50 -12 54 -18z m-177 -15 c-3 -3 -11 0 -18 7
-9 10 -8 11 6 5 10 -3 15 -9 12 -12z m1375 3 c0 -18 16 -20 23 -2 3 6 10 -2
17 -20 10 -27 15 -31 43 -28 18 1 45 6 61 10 l30 8 -23 -24 c-12 -13 -24 -23
-26 -22 -3 2 -22 -7 -42 -18 -43 -24 -89 -32 -111 -20 -10 5 -23 4 -34 -2 -29
-19 -44 4 -27 42 21 48 48 47 40 -1 -1 -10 12 -10 33 -2 21 8 21 24 0 24 -11
0 -14 5 -10 17 4 9 1 20 -6 25 -10 6 -10 10 2 18 21 14 30 12 30 -5z m255 6
c3 -5 1 -12 -5 -16 -5 -3 -10 1 -10 9 0 18 6 21 15 7z m798 -11 c-3 -11 -13
-25 -23 -30 -14 -8 -16 -5 -12 15 2 13 12 26 21 28 9 3 17 5 18 6 0 0 -1 -8
-4 -19z m-893 -5 c-7 -9 -15 -13 -19 -10 -3 3 1 10 9 15 21 14 24 12 10 -5z
m-308 -12 c14 -13 21 -14 30 -5 7 7 18 12 26 12 19 0 -38 -47 -63 -52 -26 -5
-24 -49 4 -80 12 -12 21 -29 21 -37 0 -11 5 -9 16 7 12 18 18 19 29 9 9 -8 10
-16 3 -25 -14 -17 -3 -26 19 -17 18 8 28 11 51 13 6 1 12 9 12 18 0 10 8 15
23 14 39 -4 45 0 40 19 -7 28 9 32 36 9 l25 -19 -25 -46 c-48 -89 -117 -112
-193 -62 -24 16 -51 41 -60 55 -25 37 -62 165 -57 197 2 13 44 7 63 -10z
m-1160 -28 l-4 -26 -16 22 c-12 17 -12 23 -1 29 19 13 27 4 21 -25z m1028 26
c0 -5 -5 -11 -10 -13 -6 -2 -12 -13 -13 -26 0 -12 -5 -22 -9 -22 -4 0 -8 -4
-8 -10 0 -5 7 -7 15 -4 34 13 3 -98 -48 -170 -29 -41 -95 -68 -137 -56 -36 10
-90 56 -90 76 0 7 -6 14 -12 17 -10 3 -10 12 0 41 16 42 15 44 -18 49 -24 4
-38 26 -39 63 -1 32 24 36 53 9 21 -20 31 -22 56 -15 36 10 85 -4 74 -21 -4
-7 4 -10 22 -8 16 2 34 0 41 -4 6 -4 14 -3 18 3 3 5 14 10 25 10 11 0 20 10
24 26 8 29 0 46 -10 21 -3 -9 -12 -13 -19 -11 -8 3 -11 13 -8 21 5 13 1 15
-21 9 -17 -4 -25 -3 -22 3 3 5 29 9 57 9 28 1 54 3 57 6 8 9 22 7 22 -3z
m-770 -45 c0 -8 -4 -18 -10 -21 -5 -3 -10 -14 -10 -23 0 -15 2 -15 10 -2 5 8
15 16 22 16 7 1 15 3 18 4 27 9 70 7 79 -4 7 -8 21 -12 31 -9 14 4 20 0 20
-12 0 -12 5 -15 21 -10 14 5 25 1 33 -10 9 -13 20 -16 44 -10 18 3 35 11 38
17 4 7 2 8 -4 4 -7 -4 -20 -2 -29 3 -17 10 -17 10 0 11 14 0 16 5 11 25 -6 23
-3 25 25 25 31 0 32 -1 25 -37 -3 -21 -18 -64 -32 -96 -65 -148 -187 -173
-266 -53 -33 50 -67 158 -58 184 5 17 32 15 32 -2z m615 -13 c-2 -10 -4 -19
-4 -21 -1 -2 -6 0 -11 3 -8 5 -7 11 1 21 15 18 18 18 14 -3z m-1015 -6 c0 -7
10 -18 21 -25 21 -13 21 -12 15 15 -4 15 -3 23 2 16 9 -14 54 -13 65 2 6 7 10
6 13 -2 3 -7 12 -9 20 -6 10 4 14 -2 14 -21 0 -18 6 -26 18 -27 9 0 25 -2 35
-4 10 -2 23 2 30 9 6 7 19 11 28 9 38 -10 -23 -115 -93 -159 -54 -35 -79 -31
-147 19 -35 25 -72 94 -84 155 -6 31 -6 32 28 32 22 0 35 -5 35 -13z m2460
-24 c-11 -59 -55 -154 -90 -195 -24 -29 -38 -38 -63 -38 -56 0 -109 37 -158
108 -38 57 -40 108 -3 122 34 13 37 13 60 -8 11 -10 31 -22 46 -25 22 -6 27
-3 32 18 4 16 13 25 25 25 11 0 26 3 34 6 10 3 17 -3 21 -20 3 -14 11 -26 16
-26 14 0 12 18 -2 22 -17 6 0 28 23 28 10 0 19 5 19 10 0 6 11 10 24 10 22 0
23 -3 16 -37z m-470 -19 c0 -10 -6 -14 -14 -11 -7 3 -19 0 -25 -6 -8 -8 -11
-8 -11 1 0 10 23 25 48 31 1 1 2 -6 2 -15z m-565 -24 c-3 -5 -14 -10 -23 -10
-15 0 -15 2 -2 10 20 13 33 13 25 0z m470 0 c-3 -5 -12 -10 -18 -10 -7 0 -6 4
3 10 19 12 23 12 15 0z"/>
<path d="M3200 3579 c0 -5 5 -7 10 -4 6 3 10 8 10 11 0 2 -4 4 -10 4 -5 0 -10
-5 -10 -11z"/>
<path d="M3165 3520 c-3 -5 -2 -10 4 -10 5 0 13 5 16 10 3 6 2 10 -4 10 -5 0
-13 -4 -16 -10z"/>
<path d="M3310 3185 c-7 -9 -8 -15 -2 -15 5 0 12 7 16 15 3 8 4 15 2 15 -2 0
-9 -7 -16 -15z"/>
<path d="M2015 2990 c-3 -5 -1 -10 4 -10 6 0 11 5 11 10 0 6 -2 10 -4 10 -3 0
-8 -4 -11 -10z"/>
<path d="M2130 2985 c0 -18 -17 -20 -23 -2 -2 6 -8 9 -12 5 -10 -9 3 -28 20
-28 8 0 29 9 47 20 l33 20 -32 0 c-23 0 -33 -5 -33 -15z"/>
<path d="M2250 2965 c-8 -9 -8 -15 -2 -15 12 0 26 19 19 26 -2 2 -10 -2 -17
-11z"/>
<path d="M2636 2964 c-6 -16 2 -18 22 -5 11 7 11 9 -1 14 -9 3 -18 -1 -21 -9z"/>
<path d="M2689 2966 c0 0 -2 -9 -4 -19 -3 -18 -2 -18 15 -2 16 14 19 15 22 1
3 -13 6 -13 26 2 22 17 22 17 -18 18 -22 1 -40 1 -41 0z"/>
<path d="M1920 2946 c0 -10 9 -16 21 -16 24 0 21 23 -4 28 -10 2 -17 -3 -17
-12z"/>
<path d="M2625 2929 c-4 -6 -5 -12 -2 -15 2 -3 7 2 10 11 7 17 1 20 -8 4z"/>
<path d="M1685 2909 c-11 -4 -14 -8 -7 -8 8 -1 10 -6 6 -13 -4 -7 1 -5 11 4
22 21 18 29 -10 17z"/>
<path d="M1370 2855 c0 -8 -7 -15 -15 -15 -8 0 -15 -9 -15 -20 0 -25 11 -26
31 -2 24 28 31 52 14 52 -8 0 -15 -7 -15 -15z"/>
<path d="M1297 2797 c-16 -11 -16 -15 -4 -31 14 -19 15 -19 27 3 15 29 1 46
-23 28z"/>
<path d="M2551 2783 c-1 -6 -4 -20 -7 -30 -5 -17 -5 -17 6 0 6 10 9 23 6 30
-3 9 -5 9 -5 0z"/>
<path d="M2576 2754 c-5 -12 -2 -15 10 -10 8 3 18 6 20 6 3 0 2 5 -1 10 -9 15
-22 12 -29 -6z"/>
<path d="M2265 2750 c3 -5 14 -10 23 -10 15 0 15 2 2 10 -20 13 -33 13 -25 0z"/>
<path d="M2870 2751 c0 -18 18 -21 30 -6 10 13 9 15 -9 15 -11 0 -21 -4 -21
-9z"/>
<path d="M2955 2750 c-8 -13 -1 -24 14 -19 6 3 7 10 2 18 -6 10 -10 10 -16 1z"/>
<path d="M3009 2740 l-24 -19 27 -1 c15 0 30 5 33 10 3 6 1 10 -5 10 -6 0 -8
5 -5 10 10 16 -1 12 -26 -10z"/>
<path d="M1281 2737 c-1 -11 -6 -15 -13 -11 -6 4 -8 3 -5 -4 10 -16 -3 -42
-22 -43 -9 0 -11 -3 -4 -5 15 -6 76 38 65 45 -5 3 -12 13 -15 21 -4 12 -6 11
-6 -3z"/>
<path d="M2230 2740 c0 -5 -7 -7 -15 -4 -8 4 -15 2 -15 -3 0 -14 -31 -48 -57
-61 -29 -16 -34 -15 -26 4 5 14 3 14 -15 3 -15 -10 -18 -16 -9 -21 9 -6 7 -12
-7 -23 -26 -20 -50 -19 -42 0 9 24 -10 18 -21 -7 -6 -15 -31 -28 -84 -44 -41
-13 -81 -24 -90 -24 -9 0 -22 -7 -29 -15 -10 -12 -15 -13 -28 -3 -9 8 -17 9
-19 3 -2 -6 -22 -9 -46 -7 -34 3 -44 -1 -55 -17 -7 -13 -8 -21 -2 -21 5 0 10
-7 10 -15 0 -22 20 -18 42 7 19 22 20 22 30 4 6 -10 13 -14 17 -9 3 6 17 14
29 18 l24 7 -26 -46 c-23 -42 -24 -46 -7 -46 22 0 55 35 47 49 -4 5 -2 13 4
16 8 5 7 11 -1 21 -9 12 -5 14 24 14 19 0 43 3 52 7 14 5 16 2 11 -15 -4 -12
-4 -27 -1 -33 9 -14 34 19 35 46 0 12 3 16 8 8 8 -13 80 -15 88 -2 3 5 -4 9
-15 9 -12 0 -21 4 -21 9 0 12 39 21 46 10 9 -15 22 -10 50 18 24 24 26 24 20
5 -5 -13 -3 -22 3 -22 6 0 11 5 11 10 0 6 3 9 8 9 31 -5 65 6 115 38 40 25 54
39 45 45 -22 13 -49 9 -66 -12 -22 -26 -72 -38 -72 -17 0 8 7 20 15 27 8 7 15
19 15 26 0 8 9 22 20 31 22 19 26 33 10 33 -5 0 -10 -4 -10 -10z"/>
<path d="M2335 2740 c-7 -12 2 -30 16 -30 5 0 9 9 9 20 0 21 -15 27 -25 10z"/>
<path d="M2651 2736 c-9 -10 -8 -16 4 -26 9 -7 15 -8 15 -2 0 6 3 17 6 26 8
20 -9 21 -25 2z"/>
<path d="M2733 2737 c-25 -8 -33 -16 -33 -33 0 -17 -6 -24 -20 -24 -11 0 -20
-5 -20 -11 0 -7 24 -9 73 -5 39 3 87 6 106 6 33 0 34 1 18 18 -10 10 -17 28
-17 40 0 18 -6 21 -37 20 -21 -1 -53 -6 -70 -11z"/>
<path d="M3265 2710 c-3 -5 -2 -10 4 -10 5 0 13 5 16 10 3 6 2 10 -4 10 -5 0
-13 -4 -16 -10z"/>
<path d="M2899 2673 c-12 -15 -12 -16 4 -10 10 4 23 7 28 7 6 0 7 5 4 10 -9
15 -21 12 -36 -7z"/>
<path d="M2350 2659 c0 -5 5 -7 10 -4 6 3 10 8 10 11 0 2 -4 4 -10 4 -5 0 -10
-5 -10 -11z"/>
<path d="M1219 2643 c-13 -15 -12 -15 9 -4 23 12 28 21 13 21 -5 0 -15 -7 -22
-17z"/>
<path d="M1586 2629 c-16 -16 -17 -19 -4 -19 9 0 19 7 22 16 9 24 4 24 -18 3z"/>
<path d="M1340 2629 c0 -5 5 -7 10 -4 6 3 10 8 10 11 0 2 -4 4 -10 4 -5 0 -10
-5 -10 -11z"/>
<path d="M2370 2630 c0 -5 5 -10 10 -10 6 0 10 5 10 10 0 6 -4 10 -10 10 -5 0
-10 -4 -10 -10z"/>
<path d="M1176 2608 c-17 -19 -17 -20 -1 -14 13 4 16 2 11 -9 -3 -8 -1 -15 4
-15 14 0 21 18 9 25 -5 4 -8 13 -5 21 7 19 4 18 -18 -8z"/>
<path d="M3186 2603 c-2 -2 -35 -6 -72 -8 -66 -4 -80 -11 -72 -36 2 -7 11 -5
23 7 18 18 18 18 11 -9 -5 -20 -3 -27 8 -27 8 0 17 -6 19 -12 3 -8 6 -7 6 4 1
9 6 20 11 23 7 4 8 -3 4 -22 -7 -27 -6 -28 13 -10 11 9 23 14 26 10 4 -3 7 1
7 10 0 8 -6 17 -12 20 -7 2 -1 4 14 3 22 -1 27 -5 22 -20 -4 -12 -2 -16 5 -12
15 9 82 -4 75 -15 -7 -13 26 1 59 23 15 11 27 25 27 32 0 14 -72 19 -80 6 -3
-5 -19 -11 -35 -15 l-30 -7 23 19 22 18 -35 11 c-19 6 -37 9 -39 7z"/>
<path d="M3398 2583 c7 -3 16 -2 19 1 4 3 -2 6 -13 5 -11 0 -14 -3 -6 -6z"/>
<path d="M1140 2565 c-10 -12 -10 -15 4 -15 9 0 16 7 16 15 0 8 -2 15 -4 15
-2 0 -9 -7 -16 -15z"/>
<path d="M1269 2543 c-13 -16 -12 -17 4 -4 9 7 17 15 17 17 0 8 -8 3 -21 -13z"/>
<path d="M4060 2550 c0 -5 9 -10 21 -10 11 0 17 5 14 10 -3 6 -13 10 -21 10
-8 0 -14 -4 -14 -10z"/>
<path d="M4123 2553 c-39 -14 15 -64 60 -56 15 3 24 9 22 14 -3 4 -17 4 -30
-1 -18 -7 -23 -6 -19 3 6 17 -18 46 -33 40z"/>
<path d="M1100 2525 c-7 -9 -11 -18 -8 -20 3 -3 11 1 18 10 7 9 11 18 8 20 -3
3 -11 -1 -18 -10z"/>
<path d="M1550 2530 c-20 -12 -5 -24 16 -12 9 5 12 12 7 15 -5 3 -15 2 -23 -3z"/>
<path d="M1636 2468 c-9 -37 -7 -43 9 -22 16 21 19 44 6 44 -5 0 -11 -10 -15
-22z"/>
<path d="M4205 2470 c-3 -5 1 -10 10 -10 9 0 13 5 10 10 -3 6 -8 10 -10 10 -2
0 -7 -4 -10 -10z"/>
<path d="M1182 2450 c-7 -11 -8 -20 -3 -20 9 0 24 30 18 36 -1 2 -8 -6 -15
-16z"/>
<path d="M1716 2435 c-21 -27 -23 -33 -9 -28 26 9 53 34 53 50 0 22 -16 14
-44 -22z"/>
<path d="M1650 2411 c0 -5 7 -11 14 -14 10 -4 13 -1 9 9 -6 15 -23 19 -23 5z"/>
<path d="M4610 2413 c23 -6 54 -74 39 -84 -17 -10 13 -39 40 -39 19 0 26 -11
22 -34 -1 -5 4 -13 11 -17 10 -7 9 -14 -5 -38 -22 -37 -15 -55 29 -76 36 -17
43 -32 19 -41 -16 -6 -21 -34 -7 -34 15 0 67 64 72 89 4 19 -4 34 -32 62 -27
27 -38 47 -38 68 0 26 -4 30 -32 33 -28 3 -33 7 -34 30 -1 34 -21 59 -40 51
-9 -3 -14 2 -14 16 0 15 -6 21 -22 20 -13 -1 -17 -3 -8 -6z"/>
<path d="M1187 2391 c-3 -12 -1 -21 3 -21 14 0 19 15 11 29 -6 9 -10 7 -14 -8z"/>
<path d="M1462 2390 c-12 -12 -22 -23 -22 -26 0 -7 38 15 45 27 13 20 -1 19
-23 -1z"/>
<path d="M3185 2390 c3 -5 11 -10 16 -10 6 0 7 5 4 10 -3 6 -11 10 -16 10 -6
0 -7 -4 -4 -10z"/>
<path d="M2737 2384 c-10 -11 3 -24 24 -24 23 0 25 15 3 24 -19 7 -19 7 -27 0z"/>
<path d="M3335 2380 c-3 -5 -1 -10 4 -10 6 0 11 5 11 10 0 6 -2 10 -4 10 -3 0
-8 -4 -11 -10z"/>
<path d="M3807 2373 c-4 -3 -7 -11 -7 -17 0 -6 5 -5 12 2 6 6 9 14 7 17 -3 3
-9 2 -12 -2z"/>
<path d="M3925 2370 c-3 -5 1 -10 9 -10 9 0 16 5 16 10 0 6 -4 10 -9 10 -6 0
-13 -4 -16 -10z"/>
<path d="M1590 2310 c0 -5 5 -10 10 -10 6 0 10 5 10 10 0 6 -4 10 -10 10 -5 0
-10 -4 -10 -10z"/>
<path d="M1937 2314 c-4 -4 -7 -14 -7 -23 0 -11 3 -12 11 -4 6 6 10 16 7 23
-2 6 -7 8 -11 4z"/>
<path d="M1516 2294 c-8 -22 -4 -25 11 -9 7 8 9 16 4 19 -5 3 -12 -1 -15 -10z"/>
<path d="M2004 2296 c-8 -22 3 -35 26 -29 12 3 20 12 18 22 -4 21 -36 27 -44
7z"/>
<path d="M1120 2275 c0 -8 -5 -14 -11 -12 -6 1 -14 -4 -16 -10 -6 -18 12 -16
27 2 7 8 19 15 26 15 8 0 14 5 14 10 0 6 -9 10 -20 10 -11 0 -20 -7 -20 -15z"/>
<path d="M4477 2284 c-11 -11 3 -24 27 -24 12 0 31 -8 42 -18 15 -14 23 -16
41 -7 32 16 10 35 -42 35 -23 0 -46 5 -51 10 -6 6 -13 7 -17 4z"/>
<path d="M1475 2259 c-11 -17 1 -21 15 -4 8 9 8 15 2 15 -6 0 -14 -5 -17 -11z"/>
<path d="M1062 2228 c-6 -16 -17 -28 -23 -28 -7 0 -9 -3 -6 -7 4 -3 2 -12 -4
-20 -17 -20 3 -15 29 7 17 14 22 27 20 47 l-4 28 -12 -27z"/>
<path d="M4633 2235 c-7 -8 -9 -16 -4 -19 5 -3 12 1 15 10 8 22 4 25 -11 9z"/>
<path d="M4650 2210 c-11 -20 -12 -20 37 -4 15 4 15 6 3 14 -22 14 -28 12 -40
-10z"/>
<path d="M996 2204 c-8 -21 -8 -24 3 -24 5 0 11 9 14 20 6 24 -8 27 -17 4z"/>
<path d="M1387 2189 c-4 -17 -3 -19 6 -10 6 6 20 11 32 11 16 0 17 2 5 10 -24
15 -37 12 -43 -11z"/>
<path d="M2948 2201 c-12 -4 -14 -11 -9 -19 7 -12 13 -12 36 0 24 13 25 16 9
20 -11 3 -27 2 -36 -1z"/>
<path d="M2830 2184 c0 -8 5 -12 10 -9 6 3 10 10 10 16 0 5 -4 9 -10 9 -5 0
-10 -7 -10 -16z"/>
<path d="M3180 2190 c-13 -8 -13 -10 2 -10 9 0 20 5 23 10 8 13 -5 13 -25 0z"/>
<path d="M3394 2185 c-10 -8 -31 -15 -46 -15 -15 0 -30 -5 -34 -11 -4 -7 2 -9
17 -7 13 2 29 -4 36 -12 10 -13 15 -13 42 3 16 9 35 16 42 15 6 -2 14 3 16 10
3 8 -6 12 -27 12 -18 0 -29 4 -25 10 9 14 2 12 -21 -5z"/>
<path d="M2746 2173 c-4 -10 -4 -14 0 -10 4 4 13 2 20 -4 9 -8 18 -5 33 10
l21 21 -34 0 c-23 0 -36 -6 -40 -17z"/>
<path d="M3046 2181 c-4 -5 -2 -12 3 -15 5 -4 12 -2 15 3 4 5 2 12 -3 15 -5 4
-12 2 -15 -3z"/>
<path d="M3080 2175 c0 -8 5 -15 10 -15 6 0 10 7 10 15 0 8 -4 15 -10 15 -5 0
-10 -7 -10 -15z"/>
<path d="M4622 2168 c-15 -15 -16 -32 -2 -23 6 4 19 -4 30 -17 16 -19 19 -20
20 -6 0 9 -6 21 -14 25 -7 4 -15 14 -17 21 -3 10 -7 10 -17 0z"/>
<path d="M2226 2153 c-4 -10 0 -13 14 -11 26 4 31 20 8 24 -9 1 -19 -5 -22
-13z"/>
<path d="M2426 2154 c-8 -20 -4 -25 11 -16 7 4 9 13 4 21 -6 10 -10 9 -15 -5z"/>
<path d="M4951 2161 c-15 -10 -6 -55 10 -46 5 3 18 1 29 -5 16 -9 25 -8 36 1
11 9 14 9 15 -2 0 -8 4 -4 9 9 5 12 16 22 25 22 8 0 15 4 15 10 0 5 -10 9 -22
8 -13 -1 -41 2 -63 5 -22 4 -46 3 -54 -2z"/>
<path d="M1820 2150 c-8 -5 -11 -12 -7 -16 4 -4 13 -2 19 4 15 15 7 24 -12 12z"/>
<path d="M2068 2153 c7 -3 16 -2 19 1 4 3 -2 6 -13 5 -11 0 -14 -3 -6 -6z"/>
<path d="M1962 2138 c-18 -18 -14 -26 13 -24 28 1 31 8 12 25 -10 8 -17 7 -25
-1z"/>
<path d="M1305 2130 c-3 -5 -1 -10 4 -10 6 0 11 5 11 10 0 6 -2 10 -4 10 -3 0
-8 -4 -11 -10z"/>
<path d="M3460 2130 c0 -5 9 -10 20 -10 11 0 20 5 20 10 0 6 -9 10 -20 10 -11
0 -20 -4 -20 -10z"/>
<path d="M5070 2120 c-12 -8 -10 -10 8 -10 13 0 20 4 17 10 -7 12 -6 12 -25 0z"/>
<path d="M1230 2097 c0 -19 16 -31 24 -18 3 5 -1 14 -9 21 -12 10 -15 10 -15
-3z"/>
<path d="M4811 2076 c-10 -12 -8 -13 9 -9 25 7 37 23 17 23 -8 0 -20 -6 -26
-14z"/>
<path d="M1007 2053 c-4 -3 -7 -11 -7 -17 0 -6 5 -5 12 2 6 6 9 14 7 17 -3 3
-9 2 -12 -2z"/>
<path d="M1910 2045 c0 -9 6 -12 15 -9 8 4 15 10 15 15 0 5 -7 9 -15 9 -8 0
-15 -7 -15 -15z"/>
<path d="M1579 2033 c-13 -16 -12 -17 4 -4 9 7 17 15 17 17 0 8 -8 3 -21 -13z"/>
<path d="M882 2028 c-7 -7 -12 -17 -12 -22 0 -8 3 -7 8 0 4 6 16 16 27 22 15
8 16 11 5 12 -9 0 -21 -5 -28 -12z"/>
<path d="M1155 2030 c-12 -4 -27 -15 -34 -24 -17 -21 -7 -21 13 0 9 8 27 17
41 18 14 1 27 5 30 7 7 8 -29 7 -50 -1z"/>
<path d="M4796 2023 c-9 -23 3 -35 20 -19 18 18 18 22 0 29 -8 3 -17 -1 -20
-10z"/>
<path d="M5020 2030 c-9 -6 -9 -13 -1 -29 7 -11 9 -21 5 -21 -3 0 -1 -7 6 -15
7 -8 10 -24 7 -36 -7 -24 29 -89 49 -89 24 0 15 -36 -11 -48 -15 -7 -25 -20
-25 -32 0 -21 15 -27 25 -10 9 15 25 12 25 -5 0 -8 -7 -15 -15 -15 -19 0 -20
-29 -1 -36 17 -6 72 20 78 37 2 7 18 12 36 11 40 -1 42 14 2 23 -29 6 -52 25
-31 25 6 0 11 8 11 18 0 22 -17 48 -26 39 -4 -3 -1 -13 6 -22 10 -12 10 -15
-4 -15 -9 0 -16 6 -16 14 0 7 -7 19 -15 26 -8 7 -15 23 -15 36 0 13 -4 24 -10
24 -5 0 -13 12 -16 28 -4 15 -11 32 -16 39 -5 7 -7 21 -4 31 7 21 -22 36 -44
22z m104 -251 c-3 -5 -10 -7 -15 -3 -5 3 -7 10 -3 15 3 5 10 7 15 3 5 -3 7
-10 3 -15z"/>
<path d="M4837 2013 c-4 -3 -7 -15 -7 -26 0 -16 2 -17 15 -7 21 18 32 3 13
-17 -21 -21 -4 -61 29 -69 17 -5 21 -10 13 -19 -12 -14 -3 -25 22 -25 10 0 18
7 18 15 0 8 -5 15 -11 15 -6 0 -9 6 -6 14 3 8 -3 24 -14 37 -10 12 -19 29 -19
38 -1 33 -36 62 -53 44z"/>
<path d="M2445 1995 c-22 -6 -49 -15 -60 -19 -38 -15 -44 -15 -76 1 -29 15
-32 14 -41 -1 -5 -9 -20 -21 -34 -26 -28 -11 -86 -2 -78 11 3 5 9 7 14 4 5 -3
12 0 16 6 5 9 -3 10 -29 5 -22 -4 -38 -2 -42 4 -5 8 -11 8 -20 0 -8 -7 -18 -9
-24 -6 -12 8 -61 -14 -61 -26 0 -5 -4 -6 -10 -3 -5 3 -10 1 -10 -4 0 -6 -5
-11 -11 -11 -6 0 -8 8 -4 19 4 15 0 19 -20 19 -14 0 -25 -4 -25 -8 0 -4 -9
-10 -20 -13 -24 -6 -28 -47 -5 -47 8 0 15 -7 15 -16 0 -14 -2 -14 -22 0 -15
11 -26 12 -40 5 -10 -5 -16 -14 -13 -19 3 -4 -5 -6 -16 -3 -14 4 -25 0 -31
-11 -12 -22 -42 -22 -34 0 5 14 4 15 -9 4 -10 -8 -15 -9 -15 -1 0 6 -5 11 -11
11 -6 0 -9 -6 -6 -14 3 -8 1 -17 -6 -20 -9 -3 -8 -7 2 -14 7 -5 10 -15 7 -21
-10 -16 9 -13 23 3 15 18 53 17 47 -1 -3 -7 1 -13 9 -13 8 0 15 4 15 9 0 10
31 23 60 26 8 1 37 9 63 18 26 10 57 17 67 17 11 0 28 4 38 9 30 15 88 31 133
37 24 3 52 7 61 8 10 1 26 10 36 19 10 9 27 17 38 16 10 0 13 -3 7 -6 -21 -8
-15 -26 7 -20 11 3 22 2 24 -2 5 -7 47 -7 62 0 5 3 23 5 39 4 31 -2 55 10 55
27 0 5 -5 6 -12 2 -7 -4 -21 -8 -32 -9 -12 -1 -34 -5 -50 -10 -45 -12 -28 17
20 33 69 23 76 46 9 27z m-320 -53 c-3 -3 -11 0 -18 7 -9 10 -8 11 6 5 10 -3
15 -9 12 -12z m-37 -9 c-2 -10 -13 -19 -26 -21 -24 -4 -25 -2 -16 22 9 23 46
21 42 -1z"/>
<path d="M2613 1994 c-7 -18 20 -44 46 -44 11 0 9 4 -6 15 -13 9 -20 22 -17
30 4 8 1 15 -5 15 -7 0 -14 -7 -18 -16z"/>
<path d="M4240 1994 c0 -8 5 -12 10 -9 6 4 8 11 5 16 -9 14 -15 11 -15 -7z"/>
<path d="M2834 1993 c-12 -2 -24 -13 -27 -24 -6 -23 11 -36 19 -14 4 8 13 14
22 13 9 -2 18 5 20 15 2 9 0 16 -5 16 -4 -1 -18 -4 -29 -6z"/>
<path d="M2780 1970 c0 -5 5 -10 10 -10 6 0 10 5 10 10 0 6 -4 10 -10 10 -5 0
-10 -4 -10 -10z"/>
<path d="M798 1891 c-20 -21 -24 -31 -15 -40 8 -8 8 -11 -1 -11 -6 0 -19 -14
-27 -31 -16 -29 -16 -30 4 -20 39 21 79 91 69 121 -1 5 -15 -3 -30 -19z"/>
<path d="M1705 1899 c-4 -6 -5 -13 -2 -16 7 -7 27 6 27 18 0 12 -17 12 -25 -2z"/>
<path d="M1750 1895 c0 -13 4 -14 20 -5 11 6 20 13 20 15 0 3 -9 5 -20 5 -11
0 -20 -7 -20 -15z"/>
<path d="M1575 1871 c-25 -6 -27 -8 -11 -14 15 -6 16 -10 6 -22 -17 -21 -6
-29 19 -15 12 6 21 19 21 30 0 10 8 21 18 23 28 8 -18 6 -53 -2z"/>
<path d="M1680 1860 c0 -5 5 -10 10 -10 6 0 10 5 10 10 0 6 -4 10 -10 10 -5 0
-10 -4 -10 -10z"/>
<path d="M1365 1841 c-3 -6 -14 -11 -24 -11 -15 0 -61 -41 -61 -55 0 -2 16 3
35 11 41 17 59 18 49 3 -3 -6 8 -3 26 6 20 10 30 22 28 33 -4 19 -43 29 -53
13z"/>
<path d="M1182 1764 c-23 -14 -51 -27 -62 -29 -11 -2 -28 -12 -38 -21 -16 -17
-17 -17 -20 0 -2 10 -11 16 -20 14 -10 -2 -22 3 -29 12 -10 13 -18 8 -55 -32
-24 -27 -52 -48 -61 -48 -9 0 -17 -4 -17 -9 0 -5 -3 -16 -6 -25 -5 -12 0 -16
20 -16 15 0 26 -6 26 -14 0 -7 9 -16 21 -19 15 -4 22 1 29 17 11 30 116 100
137 92 11 -5 14 -2 9 9 -3 10 -2 14 5 9 6 -3 17 3 25 15 8 12 22 21 31 21 18
0 73 31 73 42 0 15 -25 8 -68 -18z"/>
<path d="M1533 1754 c-7 -7 -13 -21 -13 -31 1 -13 5 -10 16 10 17 32 16 42 -3
21z"/>
<path d="M1490 1735 c-7 -9 -21 -13 -31 -10 -11 4 -29 -1 -41 -11 -20 -14 -20
-15 -3 -9 11 4 35 7 53 6 21 -1 34 4 38 14 9 22 -1 28 -16 10z"/>
<path d="M826 1723 c-6 -14 -5 -15 5 -6 7 7 10 15 7 18 -3 3 -9 -2 -12 -12z"/>
<path d="M2315 1719 c-10 -15 1 -23 20 -15 9 3 13 10 10 16 -8 13 -22 13 -30
-1z"/>
<path d="M2052 1713 c-22 -8 7 -33 37 -33 32 1 67 25 51 35 -6 4 -20 -1 -32
-12 -23 -20 -30 -21 -38 0 -3 8 -11 12 -18 10z"/>
<path d="M2189 1708 c-11 -8 -11 -9 2 -5 9 3 22 0 28 -6 8 -8 11 -8 11 0 0 16
-25 23 -41 11z"/>
<path d="M1833 1675 c-3 -9 -3 -18 -1 -21 3 -3 8 4 11 16 6 23 -1 27 -10 5z"/>
<path d="M1653 1673 c-7 -3 -13 -14 -13 -26 0 -21 0 -21 16 1 17 25 16 32 -3
25z"/>
<path d="M1755 1671 c-7 -12 31 -25 45 -16 5 3 10 10 10 16 0 12 -47 12 -55 0z"/>
<path d="M1530 1646 c0 -8 51 -13 56 -5 3 5 -9 9 -25 9 -17 0 -31 -2 -31 -4z"/>
<path d="M1876 1634 c-4 -10 -1 -14 6 -12 15 5 23 28 10 28 -5 0 -13 -7 -16
-16z"/>
<path d="M5200 1640 c0 -5 9 -10 21 -10 11 0 17 5 14 10 -3 6 -13 10 -21 10
-8 0 -14 -4 -14 -10z"/>
<path d="M695 1630 c-3 -5 -1 -10 4 -10 6 0 11 5 11 10 0 6 -2 10 -4 10 -3 0
-8 -4 -11 -10z"/>
<path d="M1195 1617 c-71 -35 -74 -37 -90 -37 -19 0 -20 -19 -1 -26 8 -3 24 4
36 16 12 12 29 20 38 18 16 -3 71 37 62 45 -3 2 -23 -6 -45 -16z"/>
<path d="M1470 1631 c0 -5 9 -7 20 -4 11 3 20 7 20 9 0 2 -9 4 -20 4 -11 0
-20 -4 -20 -9z"/>
<path d="M1275 1619 c-4 -6 -5 -12 -2 -15 2 -3 7 2 10 11 7 17 1 20 -8 4z"/>
<path d="M880 1590 c0 -5 5 -10 10 -10 6 0 10 5 10 10 0 6 -4 10 -10 10 -5 0
-10 -4 -10 -10z"/>
<path d="M5200 1590 c0 -5 5 -10 10 -10 6 0 10 5 10 10 0 6 -4 10 -10 10 -5 0
-10 -4 -10 -10z"/>
<path d="M991 1556 c-16 -19 -11 -29 8 -17 7 5 12 14 9 21 -3 9 -8 7 -17 -4z"/>
<path d="M1595 1560 c-3 -5 1 -10 9 -10 8 0 18 5 21 10 3 6 -1 10 -9 10 -8 0
-18 -4 -21 -10z"/>
<path d="M625 1549 c-4 -6 -5 -12 -2 -15 2 -3 7 2 10 11 7 17 1 20 -8 4z"/>
<path d="M5064 1530 c1 -17 16 -31 16 -15 0 3 0 12 0 20 0 8 -4 15 -9 15 -4 0
-8 -9 -7 -20z"/>
<path d="M5240 1535 c9 -11 9 -22 1 -46 -14 -41 -14 -39 9 -39 17 0 19 -5 14
-25 -5 -22 -3 -25 20 -25 29 0 37 27 10 37 -10 4 -14 13 -10 29 4 13 1 24 -7
27 -6 3 -2 6 11 6 12 1 22 5 22 10 0 5 3 16 6 25 5 13 -2 16 -41 16 -41 0 -46
-2 -35 -15z"/>
<path d="M5500 1536 c0 -9 5 -16 10 -16 6 0 10 4 10 9 0 6 -4 13 -10 16 -5 3
-10 -1 -10 -9z"/>
<path d="M1050 1525 c0 -8 5 -15 10 -15 6 0 10 7 10 15 0 8 -4 15 -10 15 -5 0
-10 -7 -10 -15z"/>
<path d="M1974 1518 c-8 -13 -1 -19 27 -20 59 -4 89 2 89 17 0 12 -4 13 -19 5
-23 -12 -54 -14 -48 -2 3 4 -6 8 -19 8 -13 1 -27 -2 -30 -8z"/>
<path d="M2156 1513 c-6 -14 -5 -15 5 -6 7 7 10 15 7 18 -3 3 -9 -2 -12 -12z"/>
<path d="M2190 1515 c-14 -16 -10 -18 14 -9 9 3 16 10 16 15 0 14 -16 11 -30
-6z"/>
<path d="M2238 1523 c7 -3 16 -2 19 1 4 3 -2 6 -13 5 -11 0 -14 -3 -6 -6z"/>
<path d="M5335 1519 c-4 -6 -5 -13 -2 -16 7 -7 27 6 27 18 0 12 -17 12 -25 -2z"/>
<path d="M2110 1496 c0 -8 5 -18 10 -21 6 -3 10 3 10 14 0 12 -4 21 -10 21 -5
0 -10 -6 -10 -14z"/>
<path d="M2255 1500 c-10 -16 4 -30 29 -30 15 0 26 7 29 20 4 17 0 20 -23 20
-16 0 -32 -4 -35 -10z"/>
<path d="M2646 1491 c-4 -5 -3 -17 0 -26 5 -13 8 -14 15 -3 5 7 9 19 9 26 0
14 -16 16 -24 3z"/>
<path d="M1761 1473 c-14 -9 -21 -11 -17 -5 10 17 -19 15 -34 -2 -6 -8 -23
-16 -38 -18 -16 -2 -28 -10 -30 -20 -3 -14 3 -18 27 -18 20 0 31 5 31 14 0 16
24 38 33 30 3 -4 2 -15 -4 -25 -14 -27 17 -26 33 1 14 22 39 27 36 8 -2 -7 5
-12 14 -10 9 1 19 -2 23 -8 4 -7 13 -7 26 1 15 7 29 7 51 0 40 -14 48 -14 48
2 0 24 -37 48 -81 54 -34 5 -41 3 -35 -8 4 -8 1 -6 -7 4 -18 22 -46 22 -76 0z
m139 -13 c0 -5 -4 -10 -10 -10 -5 0 -10 5 -10 10 0 6 5 10 10 10 6 0 10 -4 10
-10z"/>
<path d="M5476 1481 c-3 -4 -8 -29 -10 -55 -4 -35 -1 -46 10 -46 22 0 17 -18
-11 -36 -33 -22 -51 -13 -72 36 -18 41 -39 52 -49 25 -4 -8 -12 -15 -20 -15
-15 0 -9 -25 11 -50 7 -8 15 -30 18 -47 5 -25 3 -33 -8 -33 -18 0 -20 -20 -2
-21 6 -1 17 -2 22 -4 6 -1 19 -3 30 -4 14 -1 16 -4 7 -9 -9 -6 0 -13 27 -22
54 -18 72 -4 66 53 -4 47 11 107 27 107 6 0 8 7 5 15 -4 8 -2 17 3 20 13 8 13
45 1 45 -5 0 -12 -11 -15 -25 -4 -14 -13 -25 -21 -25 -19 0 -19 16 -2 27 8 4
17 23 20 41 6 27 4 32 -13 32 -10 0 -21 -4 -24 -9z m-65 -210 c-7 -12 -16 -21
-21 -21 -16 0 -17 25 -2 43 20 23 38 7 23 -22z"/>
<path d="M3065 1470 c-19 -8 -19 -9 3 -9 12 -1 22 4 22 9 0 6 -1 10 -2 9 -2 0
-12 -4 -23 -9z"/>
<path d="M3150 1476 c0 -2 7 -6 15 -10 8 -3 15 -1 15 4 0 6 -7 10 -15 10 -8 0
-15 -2 -15 -4z"/>
<path d="M5350 1475 c0 -18 19 -40 26 -32 4 4 0 15 -9 24 -9 10 -17 13 -17 8z"/>
<path d="M917 1453 c-4 -3 -7 -15 -7 -25 0 -10 -7 -18 -15 -18 -8 0 -15 -6
-15 -13 0 -8 14 -11 45 -9 41 4 44 6 34 24 -6 11 -8 26 -5 34 6 14 -24 20 -37
7z"/>
<path d="M1193 1442 c-25 -4 -38 -31 -23 -46 8 -8 14 -7 21 4 8 11 9 9 4 -9
-6 -20 -4 -23 10 -18 9 4 23 7 31 7 9 0 13 4 10 9 -3 4 6 6 19 3 21 -4 24 -1
19 13 -6 14 -3 16 14 10 25 -7 28 0 9 19 -12 12 -60 16 -114 8z"/>
<path d="M1567 1441 c-17 -6 -17 -8 -3 -20 20 -17 50 -10 54 12 4 18 -18 22
-51 8z"/>
<path d="M3207 1443 c-4 -3 -7 -11 -7 -17 0 -6 5 -5 12 2 6 6 9 14 7 17 -3 3
-9 2 -12 -2z"/>
<path d="M986 1425 c-3 -8 -1 -15 4 -15 6 0 10 7 10 15 0 8 -2 15 -4 15 -2 0
-6 -7 -10 -15z"/>
<path d="M1360 1425 c-10 -12 -9 -15 6 -15 32 0 64 12 58 21 -8 14 -50 10 -64
-6z"/>
<path d="M791 1414 c0 -11 3 -14 6 -6 3 7 2 16 -1 19 -3 4 -6 -2 -5 -13z"/>
<path d="M817 1423 c-4 -3 -7 -14 -7 -24 0 -10 -7 -25 -16 -33 -18 -18 -10
-38 14 -34 11 2 16 -3 16 -14 -1 -10 2 -18 7 -18 5 0 9 9 9 20 0 11 -5 20 -11
20 -10 0 -8 20 7 73 5 17 -6 23 -19 10z"/>
<path d="M1985 1420 c-3 -5 1 -10 9 -10 9 0 16 5 16 10 0 6 -4 10 -9 10 -6 0
-13 -4 -16 -10z"/>
<path d="M3080 1401 c-7 -15 -7 -21 0 -21 12 0 25 28 17 36 -3 3 -10 -4 -17
-15z"/>
<path d="M695 1368 c-11 -13 -20 -33 -20 -45 l-1 -22 24 24 c14 14 22 33 20
45 -3 21 -3 21 -23 -2z"/>
<path d="M1150 1370 c0 -5 4 -10 9 -10 6 0 13 5 16 10 3 6 -1 10 -9 10 -9 0
-16 -4 -16 -10z"/>
<path d="M615 1350 c-4 -6 -11 -8 -16 -5 -12 8 -11 -6 1 -25 9 -13 11 -13 20
0 10 15 13 40 6 40 -3 0 -8 -5 -11 -10z"/>
<path d="M1035 1330 c-3 -5 -1 -10 4 -10 6 0 11 5 11 10 0 6 -2 10 -4 10 -3 0
-8 -4 -11 -10z"/>
<path d="M864 1316 c-10 -8 -16 -18 -12 -22 4 -4 14 -1 23 6 12 10 15 10 15
-3 0 -16 35 -13 46 5 14 22 -45 34 -72 14z"/>
<path d="M946 1305 c-17 -25 -21 -56 -8 -54 30 3 47 19 48 47 2 39 -17 42 -40
7z"/>
<path d="M2027 1297 c-4 -10 4 -14 24 -14 23 0 26 3 18 14 -6 7 -17 13 -24 13
-7 0 -15 -6 -18 -13z"/>
<path d="M1168 1294 c-3 -3 -24 -5 -47 -6 -23 0 -41 -4 -41 -9 0 -14 103 -5
108 9 4 12 -10 17 -20 6z"/>
<path d="M1607 1294 c-3 -3 -36 -7 -73 -8 -48 -1 -69 -5 -72 -15 -3 -9 0 -11
7 -6 7 4 39 7 71 6 40 0 62 4 70 14 12 14 10 21 -3 9z"/>
<path d="M3280 1290 c0 -5 6 -10 14 -10 8 0 18 5 21 10 3 6 -3 10 -14 10 -12
0 -21 -4 -21 -10z"/>
<path d="M1280 1280 c0 -5 7 -10 16 -10 8 0 12 5 9 10 -3 6 -10 10 -16 10 -5
0 -9 -4 -9 -10z"/>
<path d="M1370 1279 c0 -6 6 -9 14 -6 7 3 19 0 25 -6 8 -8 11 -8 11 0 0 11
-22 23 -41 23 -5 0 -9 -5 -9 -11z"/>
<path d="M1655 1280 c3 -5 8 -10 11 -10 2 0 4 5 4 10 0 6 -5 10 -11 10 -5 0
-7 -4 -4 -10z"/>
<path d="M2670 1279 c0 -5 5 -7 10 -4 6 3 10 8 10 11 0 2 -4 4 -10 4 -5 0 -10
-5 -10 -11z"/>
<path d="M2740 1286 c0 -3 14 -11 30 -20 24 -11 30 -12 30 -1 0 7 -10 15 -22
19 -27 7 -38 7 -38 2z"/>
<path d="M2886 1282 c-11 -11 25 -32 56 -32 43 0 64 13 46 27 -13 11 -93 15
-102 5z"/>
<path d="M5206 1281 c-3 -5 1 -12 10 -15 20 -8 29 -1 19 13 -8 13 -22 14 -29
2z"/>
<path d="M2247 1273 c-12 -11 -8 -23 7 -23 7 0 19 7 26 15 10 12 9 15 -7 15
-11 0 -23 -3 -26 -7z"/>
<path d="M3025 1270 c-3 -5 -1 -10 4 -10 6 0 11 5 11 10 0 6 -2 10 -4 10 -3 0
-8 -4 -11 -10z"/>
<path d="M3055 1269 c-4 -6 -5 -12 -2 -15 7 -7 37 7 37 17 0 13 -27 11 -35 -2z"/>
<path d="M3197 1263 c6 -14 43 -18 43 -4 0 5 -11 11 -24 13 -17 4 -23 1 -19
-9z"/>
<path d="M5596 1267 c3 -10 9 -15 12 -12 3 3 0 11 -7 18 -10 9 -11 8 -5 -6z"/>
<path d="M647 1263 c-13 -12 -7 -33 8 -33 8 0 15 9 15 20 0 20 -11 26 -23 13z"/>
<path d="M865 1260 c3 -5 8 -10 11 -10 2 0 4 5 4 10 0 6 -5 10 -11 10 -5 0 -7
-4 -4 -10z"/>
<path d="M1960 1223 c0 -20 -50 -49 -59 -34 -6 9 -11 8 -21 -4 -7 -8 -22 -15
-34 -16 -11 0 -15 -3 -8 -6 24 -9 12 -19 -20 -16 -18 2 -27 0 -20 -3 6 -3 12
-12 12 -20 0 -16 36 -19 45 -4 3 6 17 10 31 10 14 0 27 7 30 15 5 11 10 12 24
3 14 -9 23 -8 43 5 19 12 27 13 37 4 9 -9 11 -8 8 8 -2 11 -14 25 -27 31 -13
7 -28 18 -32 26 -6 9 -9 10 -9 1z"/>
<path d="M2735 1221 c-39 -8 -40 -35 -2 -39 31 -4 57 12 57 34 0 15 -7 15 -55
5z"/>
<path d="M873 1197 c-42 -6 -63 -13 -63 -22 0 -17 17 -28 24 -16 3 5 25 12 48
15 46 7 76 21 62 28 -5 2 -37 0 -71 -5z"/>
<path d="M756 1191 c-4 -5 -3 -16 0 -25 5 -12 9 -13 25 -3 10 6 19 17 19 24 0
15 -36 18 -44 4z"/>
<path d="M2220 1190 c-8 -6 -27 -10 -42 -10 -16 0 -28 -4 -28 -10 0 -11 37
-13 104 -4 25 4 46 11 46 16 0 6 -11 7 -27 4 -14 -4 -29 -3 -32 3 -4 6 -12 7
-21 1z"/>
<path d="M2545 1190 c-3 -5 -1 -10 4 -10 6 0 11 5 11 10 0 6 -2 10 -4 10 -3 0
-8 -4 -11 -10z"/>
<path d="M2585 1191 c-3 -5 -1 -12 5 -16 5 -3 10 1 10 9 0 18 -6 21 -15 7z"/>
<path d="M2061 1181 c-8 -6 -9 -11 -3 -15 6 -3 14 -1 17 5 9 14 2 20 -14 10z"/>
<path d="M2790 1165 c0 -8 2 -15 4 -15 2 0 6 7 10 15 3 8 1 15 -4 15 -6 0 -10
-7 -10 -15z"/>
<path d="M5460 1171 c0 -5 -3 -16 -6 -25 -3 -9 -1 -16 5 -16 6 0 11 7 11 15 0
8 5 15 10 15 6 0 10 5 10 10 0 6 -7 10 -15 10 -8 0 -15 -4 -15 -9z"/>
<path d="M5458 1074 c-5 -40 3 -49 31 -34 26 13 37 50 20 61 -30 19 -47 10
-51 -27z"/>
<path d="M1570 1081 c0 -5 7 -11 14 -14 10 -4 13 -1 9 9 -6 15 -23 19 -23 5z"/>
<path d="M1625 1080 c-3 -5 -1 -10 4 -10 6 0 11 5 11 10 0 6 -2 10 -4 10 -3 0
-8 -4 -11 -10z"/>
<path d="M990 1044 c0 -8 5 -12 10 -9 6 3 10 10 10 16 0 5 -4 9 -10 9 -5 0
-10 -7 -10 -16z"/>
<path d="M3566 945 c-26 -9 -46 -11 -63 -4 -32 12 -33 12 -33 -6 0 -8 11 -22
25 -31 23 -15 27 -15 43 -1 9 8 29 19 45 22 15 4 29 11 32 15 10 16 -10 18
-49 5z"/>
<path d="M3844 849 c-3 -6 -3 -13 0 -16 3 -4 6 -1 6 7 0 10 3 10 15 0 9 -7 15
-8 15 -2 0 14 -28 23 -36 11z"/>
<path d="M5726 811 c-4 -6 3 -15 14 -21 23 -12 27 2 6 19 -9 8 -16 8 -20 2z"/>
<path d="M5660 700 c0 -5 5 -10 10 -10 6 0 10 5 10 10 0 6 -4 10 -10 10 -5 0
-10 -4 -10 -10z"/>
<path d="M5733 667 c-32 -12 -32 -12 -14 -35 15 -21 20 -22 44 -11 30 14 36
29 11 29 -10 0 -14 6 -10 15 3 8 4 15 3 14 -1 0 -16 -6 -34 -12z"/>
<path d="M1196 785 c-8 -22 -8 -27 3 -21 5 3 11 -4 14 -15 3 -12 10 -18 16
-14 6 3 9 10 6 15 -3 5 -1 11 5 15 5 3 10 13 10 22 0 13 -3 13 -16 2 -12 -10
-17 -10 -23 0 -6 10 -10 9 -15 -4z"/>
<path d="M1020 786 c0 -9 30 -14 35 -6 4 6 -3 10 -14 10 -12 0 -21 -2 -21 -4z"/>
<path d="M1157 763 c-12 -11 -8 -23 8 -23 8 0 15 7 15 15 0 16 -12 20 -23 8z"/>
<path d="M5270 693 c-23 -10 -40 -30 -40 -49 0 -17 1 -17 13 0 8 11 23 16 42
14 25 -2 31 1 33 20 3 22 -14 28 -48 15z"/>
<path d="M5420 645 c-46 -26 -52 -28 -59 -17 -4 7 -19 0 -41 -21 -28 -26 -31
-32 -16 -35 9 -2 25 0 34 4 9 4 26 9 37 11 10 2 22 8 26 15 4 6 11 8 16 5 9
-6 38 41 31 49 -2 2 -15 -3 -28 -11z"/>
<path d="M1585 696 c-2 -6 -6 -24 -9 -41 l-6 -30 25 28 c14 15 25 34 25 41 0
15 -31 17 -35 2z"/>
<path d="M1475 682 c-30 -6 -85 -63 -85 -88 0 -12 7 -25 16 -28 21 -8 24 -8
24 5 0 17 28 40 35 29 11 -17 23 -11 27 13 2 18 9 22 35 20 27 -2 30 0 26 17
-6 22 -18 26 -28 10 -10 -16 -23 -12 -27 8 -2 11 -10 16 -23 14z"/>
<path d="M1590 601 c-5 -11 -10 -22 -10 -25 0 -11 26 -6 46 9 16 13 17 16 4
25 -21 14 -28 13 -40 -9z"/>
<path d="M1960 740 c0 -5 -7 -10 -15 -10 -8 0 -15 -4 -15 -10 0 -16 15 -12 35
10 10 11 13 20 7 20 -7 0 -12 -4 -12 -10z"/>
<path d="M2210 606 c0 -9 5 -16 10 -16 6 0 10 4 10 9 0 6 -4 13 -10 16 -5 3
-10 -1 -10 -9z"/>
<path d="M2401 528 c-5 -15 -4 -26 2 -30 13 -8 27 9 27 35 0 24 -19 21 -29 -5z"/>
<path d="M3791 492 c-1 -7 -5 -11 -10 -8 -5 4 -7 -3 -4 -15 5 -19 7 -19 15 -5
5 9 7 22 4 29 -3 9 -5 8 -5 -1z"/>
<path d="M3671 458 c-11 -28 -6 -38 20 -38 13 0 18 4 13 12 -5 8 0 9 14 6 12
-4 22 -2 22 3 0 5 -7 9 -15 9 -9 0 -18 7 -21 15 -9 22 -23 18 -33 -7z"/>
<path d="M3635 460 c-3 -5 -1 -10 4 -10 6 0 11 5 11 10 0 6 -2 10 -4 10 -3 0
-8 -4 -11 -10z"/>
<path d="M3569 439 c-9 -18 -8 -20 9 -15 11 4 23 2 27 -4 12 -19 26 0 15 21
-14 25 -36 24 -51 -2z"/>
<path d="M3143 475 c-19 -21 -16 -27 7 -13 17 11 22 10 31 -2 9 -12 10 -12 5
3 -3 10 -6 21 -6 23 0 10 -26 2 -37 -11z"/>
<path d="M3241 461 c-10 -6 -10 -10 -1 -16 7 -4 19 0 28 9 14 13 14 16 2 16
-8 0 -21 -4 -29 -9z"/>
<path d="M3291 444 c0 -11 3 -14 6 -6 3 7 2 16 -1 19 -3 4 -6 -2 -5 -13z"/>
<path d="M3321 446 c-7 -8 -8 -17 -3 -20 6 -3 12 3 15 14 6 24 4 25 -12 6z"/>
<path d="M5100 545 c-8 -9 -8 -15 -2 -15 12 0 26 19 19 26 -2 2 -10 -2 -17
-11z"/>
<path d="M4964 495 c-42 -21 -53 -31 -56 -56 -4 -23 -1 -29 10 -24 8 3 21 -3
28 -12 7 -10 14 -13 14 -7 0 10 18 19 58 29 6 2 12 -1 12 -6 0 -6 4 -8 10 -4
5 3 6 13 3 21 -3 9 5 27 21 43 29 30 24 51 -6 24 -15 -13 -19 -14 -16 -3 5 24
-25 22 -78 -5z m53 -25 c0 -26 -3 -29 -21 -24 -12 4 -27 7 -33 7 -17 0 -16 7
4 29 26 29 50 23 50 -12z"/>
<path d="M2310 9050 c-13 -9 -13 -12 1 -23 9 -6 27 -28 40 -48 13 -20 45 -68
71 -106 64 -95 88 -140 88 -163 0 -11 -14 -35 -31 -55 -45 -51 -27 -56 22 -6
22 24 42 41 44 39 12 -14 67 -202 95 -333 31 -140 45 -413 30 -604 -8 -107 -9
-156 -1 -164 7 -7 13 -2 20 15 5 15 14 28 18 31 15 9 163 26 266 31 54 2 102
8 105 12 8 7 -252 -2 -332 -13 l-49 -6 7 159 c15 373 -44 694 -174 959 -63
126 -165 278 -190 282 -8 2 -22 -2 -30 -7z"/>
<path d="M2005 8990 c-3 -6 1 -7 9 -4 18 7 21 14 7 14 -6 0 -13 -4 -16 -10z"/>
<path d="M1924 8955 c-60 -64 -93 -194 -94 -364 0 -46 7 -110 15 -142 15 -56
15 -61 -6 -100 -11 -23 -39 -59 -61 -80 -23 -22 -36 -39 -29 -39 7 0 37 25 66
55 30 30 56 55 58 55 3 0 7 -14 11 -32 3 -17 8 -29 10 -27 2 2 -5 47 -17 99
-27 127 -29 328 -3 420 23 83 37 109 83 153 29 29 33 37 19 37 -10 0 -33 -16
-52 -35z"/>
<path d="M2110 8941 c0 -5 7 -12 16 -15 14 -5 15 -4 4 9 -14 17 -20 19 -20 6z"/>
<path d="M4603 8900 c-166 -43 -328 -134 -466 -261 -97 -89 -234 -274 -322
-434 -21 -38 -47 -80 -59 -93 -11 -12 -21 -30 -22 -39 -4 -23 -54 -142 -73
-172 l-15 -24 -14 41 c-7 23 -27 53 -45 68 -24 20 -29 29 -21 42 22 35 65 57
110 57 45 0 58 9 27 19 -43 13 -116 -3 -165 -36 -48 -33 -48 -33 -24 -43 82
-34 126 -156 78 -215 -16 -19 -21 -21 -41 -11 -28 15 -107 16 -145 2 -16 -7
-42 -23 -58 -36 -16 -14 -33 -23 -38 -20 -5 3 -16 25 -25 50 -21 55 -15 97 25
156 34 52 73 77 124 81 50 4 41 23 -9 22 -90 -4 -157 -60 -173 -145 -10 -54 2
-103 36 -148 l26 -34 -21 -39 c-12 -21 -17 -38 -12 -38 5 0 9 -9 9 -20 0 -25
30 -101 47 -118 18 -18 16 -6 -3 23 -42 63 7 195 87 236 59 30 142 20 187 -21
11 -11 25 -20 29 -20 5 0 19 33 32 73 49 153 185 413 302 578 114 162 329 359
433 399 15 5 53 22 84 36 71 33 129 54 162 60 14 2 36 7 50 10 14 4 35 8 47
10 12 1 30 7 40 13 32 18 -105 12 -184 -9z"/>
<path d="M2210 8840 c0 -18 92 -189 109 -203 23 -19 6 49 -22 87 -12 17 -28
45 -36 61 -24 53 -27 59 -39 63 -7 2 -12 -2 -12 -8z"/>
<path d="M4770 8770 c0 -5 5 -10 10 -10 6 0 10 5 10 10 0 6 -4 10 -10 10 -5 0
-10 -4 -10 -10z"/>
<path d="M5006 8718 c9 -174 7 -320 -4 -378 -17 -86 -79 -274 -105 -319 -11
-20 -31 -58 -44 -85 -45 -92 -283 -381 -369 -448 -28 -22 -31 -43 -8 -52 11
-4 31 9 64 44 51 54 61 58 84 35 24 -24 28 -52 12 -83 -12 -23 -26 -32 -66
-42 -38 -9 -50 -16 -50 -31 0 -24 27 -25 53 -2 10 10 42 20 70 23 l52 5 1 57
c0 48 5 63 26 85 45 50 58 77 58 120 0 32 -4 43 -15 43 -27 0 -15 34 35 100
193 253 298 626 246 875 -21 101 -44 131 -40 53z m-276 -1078 c0 -42 -48 -95
-78 -86 -12 4 -22 10 -22 14 0 11 81 102 91 102 5 0 9 -13 9 -30z"/>
<path d="M4820 8736 c0 -14 -4 -28 -10 -31 -5 -3 -10 -19 -10 -35 0 -16 -4
-31 -9 -35 -6 -3 -6 -18 0 -38 5 -17 9 -47 9 -64 0 -31 18 -48 21 -20 1 6 3
21 4 33 2 23 33 74 45 74 10 0 44 90 36 97 -3 4 -12 -2 -20 -12 -7 -10 -18
-15 -23 -12 -15 10 -22 56 -9 61 6 2 1 5 -11 5 -18 1 -23 -5 -23 -23z"/>
<path d="M4753 8715 c-15 -16 -16 -25 -5 -25 4 0 13 9 20 20 14 23 3 26 -15 5z"/>
<path d="M4385 8657 c-26 -30 -27 -39 -2 -21 26 18 35 34 20 34 -5 -1 -13 -6
-18 -13z"/>
<path d="M4922 8650 c-13 -22 -16 -60 -4 -60 4 0 18 9 31 19 20 15 22 21 12
39 -14 27 -23 28 -39 2z"/>
<path d="M2334 8616 c-7 -19 3 -36 22 -36 10 0 14 8 12 22 -4 26 -26 36 -34
14z"/>
<path d="M4629 8601 c-160 -77 -349 -278 -429 -455 -33 -72 -100 -289 -99
-320 0 -11 17 36 38 107 66 221 156 367 321 520 68 63 210 157 237 157 7 0 13
5 13 10 0 16 -21 11 -81 -19z"/>
<path d="M4280 8550 c0 -5 5 -10 10 -10 6 0 10 5 10 10 0 6 -4 10 -10 10 -5 0
-10 -4 -10 -10z"/>
<path d="M4798 8475 c-3 -6 -13 -46 -23 -90 -58 -268 -191 -480 -415 -666
-103 -86 -311 -239 -324 -239 -8 0 -20 -9 -27 -19 -8 -10 -30 -22 -50 -25 -36
-6 -37 -5 -43 28 -4 19 -15 45 -26 58 -19 23 -19 23 -4 -21 17 -50 13 -69 -24
-113 -15 -17 -36 -50 -48 -72 -16 -33 -29 -44 -70 -59 l-49 -18 58 4 57 4 10
-39 c13 -48 24 -50 16 -3 -11 56 9 108 57 152 48 45 103 67 148 61 28 -4 41 6
17 14 -24 8 4 39 107 115 230 168 327 256 425 383 72 94 87 108 96 86 9 -23
47 -20 71 7 27 29 39 105 18 113 -8 4 -27 -2 -42 -11 -31 -21 -32 -25 15 102
17 46 33 95 35 110 3 16 10 49 17 75 11 44 10 83 -2 63z"/>
<path d="M2410 8358 c0 -7 5 -20 10 -28 8 -12 10 -11 10 7 0 12 -4 25 -10 28
-5 3 -10 0 -10 -7z"/>
<path d="M2425 8295 c24 -70 6 -508 -26 -619 -6 -24 -7 -42 -1 -48 11 -11 27
87 43 266 13 147 7 374 -11 402 -11 18 -11 18 -5 -1z"/>
<path d="M4091 7784 c0 -11 3 -14 6 -6 3 7 2 16 -1 19 -3 4 -6 -2 -5 -13z"/>
<path d="M4081 7744 c0 -11 3 -14 6 -6 3 7 2 16 -1 19 -3 4 -6 -2 -5 -13z"/>
<path d="M4066 7674 c-4 -20 -5 -38 -3 -40 3 -3 8 11 11 32 4 20 5 38 3 40 -3
3 -8 -11 -11 -32z"/>
<path d="M3657 7667 c5 -31 1 -37 -47 -77 -28 -24 -62 -64 -76 -91 -17 -35
-30 -49 -45 -49 -11 0 -17 -4 -14 -10 3 -5 17 -10 29 -10 19 0 25 -7 30 -33 3
-19 13 -42 22 -53 15 -19 16 -19 9 1 -19 57 -17 86 9 139 30 60 83 103 139
113 40 6 41 23 1 23 -13 0 -25 5 -25 10 -4 33 -20 70 -29 70 -5 0 -6 -15 -3
-33z"/>
<path d="M3090 7668 c0 -5 26 -7 58 -7 61 1 55 6 -15 11 -24 2 -43 0 -43 -4z"/>
<path d="M3218 7663 c7 -3 16 -2 19 1 4 3 -2 6 -13 5 -11 0 -14 -3 -6 -6z"/>
<path d="M4273 7477 c-35 -20 -113 -131 -102 -148 10 -17 -27 -59 -52 -59 -32
0 -88 -59 -99 -103 -15 -59 -31 -87 -48 -87 -25 0 -6 -11 32 -20 l36 -8 0 47
c0 35 7 56 25 82 33 44 91 79 133 79 23 0 31 4 26 12 -11 18 -6 75 10 107 30
57 134 116 168 95 7 -4 8 -3 4 4 -10 16 -105 15 -133 -1z"/>
<path d="M4780 7250 c0 -37 -23 -85 -58 -123 -20 -21 -23 -30 -14 -39 15 -15
59 23 78 69 16 38 19 109 4 118 -6 4 -10 -7 -10 -25z"/>
<path d="M4333 7220 c-35 -21 -66 -72 -61 -98 3 -12 11 -4 26 26 12 23 26 42
30 42 4 0 21 11 37 25 37 30 14 34 -32 5z"/>
<path d="M4550 7085 c-4 -35 -12 -51 -36 -76 -15 -16 -33 -29 -38 -29 -6 -1
-24 -7 -41 -16 l-30 -14 44 5 c76 10 138 77 112 122 -6 10 -11 14 -11 8z"/>
<path d="M4045 7030 c3 -5 8 -10 11 -10 2 0 4 5 4 10 0 6 -5 10 -11 10 -5 0
-7 -4 -4 -10z"/>
<path d="M4767 6955 c-13 -74 -99 -145 -176 -145 -33 0 -42 -3 -31 -10 22 -14
96 -12 134 4 60 25 103 105 87 163 -7 27 -8 27 -14 -12z"/>
<path d="M4385 6970 c-3 -5 -1 -10 4 -10 6 0 11 5 11 10 0 6 -2 10 -4 10 -3 0
-8 -4 -11 -10z"/>
<path d="M4140 6961 c0 -6 6 -11 14 -11 10 0 15 -18 18 -65 5 -84 23 -104 24
-27 1 31 3 68 5 82 4 22 0 25 -28 28 -19 2 -33 -1 -33 -7z"/>
<path d="M4465 6820 c-21 -41 -83 -80 -142 -89 -45 -7 -46 -8 -18 -14 39 -9
135 -5 135 6 0 4 20 29 44 55 42 45 44 49 26 60 -27 16 -27 16 -45 -18z"/>
<path d="M4436 6685 c4 -8 8 -15 10 -15 2 0 4 7 4 15 0 8 -4 15 -10 15 -5 0
-7 -7 -4 -15z"/>
<path d="M2554 6220 c-46 -15 -119 -84 -139 -132 -40 -100 -18 -205 59 -282
57 -57 81 -66 171 -66 228 0 304 325 105 456 -44 29 -140 41 -196 24z m152
-85 c31 -8 48 -54 34 -91 -18 -47 -40 -64 -81 -64 -49 0 -84 39 -75 85 7 36
60 88 84 81 9 -2 27 -7 38 -11z"/>
<path d="M4034 6130 c-28 -11 -63 -62 -79 -113 -32 -109 18 -255 107 -310 88
-55 178 -32 228 55 33 56 35 181 6 242 -24 48 -81 104 -123 122 -36 15 -106
17 -139 4z m163 -92 c40 -33 -13 -128 -71 -128 -71 0 -85 74 -24 125 32 27 66
28 95 3z"/>
<path d="M3365 5423 c-27 -7 -65 -43 -65 -62 0 -10 9 -6 30 14 16 15 51 34 77
41 45 12 46 13 13 12 -19 0 -44 -2 -55 -5z"/>
<path d="M3586 5343 c-19 -37 -53 -68 -96 -86 -21 -9 -28 -16 -17 -16 26 -1
79 23 100 46 16 19 41 83 32 83 -3 0 -11 -12 -19 -27z"/>
<path d="M3425 5111 c-25 -50 -99 -95 -170 -104 -25 -3 -23 -4 10 -5 72 -3
195 75 195 122 0 26 -18 18 -35 -13z"/>
<path d="M3782 5060 c-37 -42 -51 -51 -105 -63 -56 -14 -58 -15 -24 -16 68 -2
135 36 164 92 22 44 12 40 -35 -13z"/>
<path d="M3178 5003 c7 -3 16 -2 19 1 4 3 -2 6 -13 5 -11 0 -14 -3 -6 -6z"/>
</g>
</svg>
