<?xml version="1.0" standalone="no"?>
<!DOCTYPE svg PUBLIC "-//W3C//DTD SVG 20010904//EN"
 "http://www.w3.org/TR/2001/REC-SVG-20010904/DTD/svg10.dtd">
<svg version="1.0" xmlns="http://www.w3.org/2000/svg"
 width="772.000000pt" height="1006.000000pt" viewBox="0 0 772.000000 1006.000000"
 preserveAspectRatio="xMidYMid meet">
<metadata>
Created by potrace 1.15, written by Peter Selinger 2001-2017
</metadata>
<style type="text/css" >
    <![CDATA[
        rect.rectClass {
            stroke: #000066;
            fill:   #00cc00;
        }
        path {
            stroke: #006600;
            fill:   #cc0000;
        }
    ]]>
</style>
<g transform="translate(0.000000,1006.000000) scale(0.100000,-0.100000)"
fill="#000000" stroke="none">
<path class="test1" d="M1975 9658 c-3 -24 -11 -72 -17 -107 l-11 -65 -46 52 c-25 29 -49 52
-54 52 -4 0 11 -29 34 -65 23 -36 39 -68 36 -71 -3 -3 -53 -13 -111 -21 -58
-9 -106 -20 -106 -23 0 -4 35 -13 78 -19 139 -22 142 -23 142 -39 0 -12 3 -13
12 -4 20 20 -2 31 -92 45 -92 15 -89 19 29 37 35 5 66 12 69 15 4 3 0 16 -7
28 -14 22 -13 22 7 4 20 -18 20 -18 33 73 14 98 23 99 33 5 10 -87 15 -99 32
-84 15 12 20 34 5 25 -13 -8 -17 7 -32 112 -7 51 -16 92 -20 92 -4 0 -10 -19
-14 -42z"/>
<path d="M2086 9550 c-20 -23 -34 -45 -31 -50 3 -5 0 -18 -7 -29 -7 -11 -10
-23 -6 -26 3 -3 42 -12 87 -19 44 -7 83 -15 86 -18 3 -3 -34 -10 -82 -17 -48
-7 -91 -15 -95 -17 -4 -3 0 -17 10 -32 9 -14 11 -23 5 -19 -28 17 -11 -11 32
-53 25 -24 45 -41 45 -37 0 5 -18 35 -40 68 -22 33 -40 62 -40 63 0 2 52 11
115 21 63 9 115 21 115 25 0 4 -41 13 -90 19 -50 7 -101 16 -115 19 l-25 7 42
63 c22 34 39 65 36 67 -3 3 -22 -13 -42 -35z"/>
<path d="M1935 9340 c-4 -6 -10 -8 -14 -5 -5 2 -25 -20 -45 -50 -45 -69 -31
-71 25 -5 23 28 44 48 46 46 4 -3 32 -178 33 -198 0 -5 4 -8 8 -8 5 0 14 41
21 91 6 51 16 100 21 110 7 11 7 20 0 24 -10 6 -15 -10 -30 -104 -5 -35 -11
-65 -13 -68 -3 -2 -8 25 -11 59 -13 113 -23 138 -41 108z"/>
<path d="M6358 9255 c-62 -34 -38 -127 35 -133 80 -7 108 96 36 133 -34 18
-37 18 -71 0z m89 -31 c32 -49 -13 -105 -72 -90 -52 13 -55 96 -3 115 31 11
57 3 75 -25z"/>
<path d="M5257 9162 c-9 -103 -64 -172 -137 -172 -11 0 -18 -4 -15 -10 3 -5
16 -10 29 -10 66 0 124 -85 125 -182 1 -68 17 -59 25 13 3 33 13 77 23 96 18
38 65 73 100 73 38 0 34 17 -5 24 -67 10 -122 97 -122 193 0 55 -17 37 -23
-25z m55 -130 c7 -8 26 -23 41 -33 l29 -17 -30 -18 c-32 -18 -72 -79 -72 -110
-1 -11 -12 5 -27 35 -17 35 -37 60 -61 74 -30 18 -32 21 -16 28 28 10 61 49
80 94 l17 40 13 -39 c8 -21 20 -46 26 -54z"/>
<path d="M4897 9113 c-12 -12 -7 -50 8 -63 17 -14 51 -5 59 16 13 35 -41 73
-67 47z m51 -27 c4 -21 -14 -37 -35 -29 -14 5 -18 35 -6 47 12 12 38 1 41 -18z"/>
<path class="test1" d="M3462 8977 c-6 -34 -14 -82 -18 -107 l-7 -45 -48 54 c-27 30 -51 52
-53 50 -3 -3 13 -33 36 -67 22 -34 39 -65 36 -67 -2 -3 -53 -12 -111 -21 -59
-9 -107 -20 -107 -24 0 -4 48 -15 107 -24 59 -9 109 -19 112 -21 2 -3 -15 -33
-37 -67 -23 -34 -39 -64 -36 -67 2 -2 26 20 53 50 l48 54 13 -88 c16 -106 16
-107 -85 -107 -98 0 -372 -25 -615 -56 -524 -65 -1038 -184 -1524 -351 -157
-54 -495 -187 -556 -218 -17 -9 -35 -13 -40 -10 -5 3 -11 1 -15 -5 -9 -14 -86
-53 -92 -46 -3 3 -10 41 -16 85 -6 45 -14 81 -19 81 -4 0 -8 -3 -8 -7 0 -8
-16 -115 -26 -172 l-5 -34 -48 47 c-45 44 -80 65 -49 29 8 -10 25 -35 37 -56
l23 -37 -44 -19 c-23 -11 -68 -23 -98 -27 -60 -7 -102 -23 -63 -24 48 0 27
-21 -87 -85 -66 -38 -120 -71 -120 -75 0 -5 62 27 138 70 l137 78 73 -11 c41
-6 72 -16 72 -22 0 -20 -41 -49 -160 -115 -142 -78 -262 -151 -256 -157 2 -2
35 15 72 38 106 65 297 170 301 166 2 -2 -6 -16 -18 -30 -32 -42 -9 -31 42 19
l46 46 7 -39 c4 -21 9 -50 12 -64 5 -24 -3 -30 -118 -94 -149 -82 -350 -206
-344 -212 2 -2 42 19 88 48 196 123 363 213 378 204 6 -4 10 -18 10 -33 0 -37
18 -15 22 27 2 28 10 39 43 57 23 14 49 22 62 19 14 -3 23 0 25 10 8 41 580
267 973 385 1138 340 2484 407 3710 184 858 -156 1690 -470 2313 -871 45 -29
85 -53 88 -53 18 0 -23 29 -154 108 -196 119 -212 127 -397 220 -830 415
-1729 649 -2785 723 -225 16 -856 16 -1075 0 -968 -70 -1836 -282 -2589 -630
-49 -22 -94 -41 -100 -41 -18 0 -68 90 -53 95 6 2 48 9 92 15 113 16 130 21
113 31 -7 5 -26 9 -43 9 -73 1 -54 18 92 80 650 277 1361 458 2113 539 316 34
344 35 359 17 19 -23 77 -20 102 5 20 20 34 21 312 26 1059 20 2103 -161 3014
-523 342 -135 626 -278 967 -484 22 -13 37 -19 33 -13 -4 6 -60 43 -125 81
-773 462 -1710 769 -2722 891 -373 46 -537 55 -1007 55 -431 1 -453 2 -453 19
0 51 -48 84 -98 66 -29 -10 -52 -44 -52 -78 0 -16 -12 -20 -87 -26 -730 -57
-1454 -215 -2098 -458 -108 -41 -226 -89 -385 -159 -68 -30 -137 -26 -132 7 3
20 2 20 -13 0 -20 -25 -11 -29 89 -44 44 -6 81 -13 83 -15 2 -2 -33 -9 -78
-15 -112 -17 -113 -18 -93 -50 17 -26 17 -26 -4 -8 -20 18 -20 18 -25 0 -3
-10 -9 -43 -13 -73 -12 -98 -20 -99 -32 -5 -7 48 -14 90 -17 93 -3 3 -12 -3
-21 -14 -14 -18 -15 -18 -4 4 6 12 9 26 6 31 -3 4 -47 14 -98 21 -101 14 -97
21 19 35 82 9 91 16 68 52 l-18 28 26 -23 25 -24 13 93 c13 98 21 98 33 -1 12
-87 15 -94 34 -76 10 8 20 14 24 13 3 -1 19 15 35 37 23 31 48 47 143 88 742
319 1518 506 2416 583 221 19 233 19 744 19 418 0 565 -7 895 -44 885 -100
1697 -328 2420 -680 146 -71 413 -216 467 -254 29 -20 49 -20 23 0 -27 21
-256 149 -385 216 -687 357 -1592 623 -2455 722 -374 44 -614 57 -1027 57
-224 0 -348 4 -348 10 0 18 23 154 27 158 2 3 26 -17 53 -44 28 -27 50 -46 50
-42 0 5 -18 35 -40 67 -22 32 -40 61 -40 63 0 3 52 13 115 22 63 10 115 21
115 25 0 4 -41 13 -90 19 -50 7 -102 16 -116 20 l-25 6 41 63 c22 34 40 66 40
69 0 4 -20 -13 -45 -37 -43 -42 -60 -70 -32 -53 6 4 4 -5 -5 -19 -10 -15 -14
-29 -9 -32 4 -3 41 -11 82 -17 41 -7 78 -15 82 -19 4 -4 -29 -12 -73 -18 -45
-7 -86 -14 -91 -17 -5 -3 -1 -18 8 -33 l17 -27 -22 19 c-26 22 -26 21 -42 -84
-6 -41 -12 -75 -14 -77 -1 -1 -8 38 -15 87 -7 50 -16 90 -20 90 -4 0 -13 -6
-21 -12 -12 -11 -12 -10 0 5 20 26 5 35 -90 50 -94 16 -91 19 23 37 75 13 89
22 67 48 -7 9 -7 9 2 2 22 -18 26 -11 39 76 14 94 22 91 34 -12 8 -67 12 -77
26 -68 6 4 6 10 1 17 -6 7 -15 54 -22 105 -7 51 -16 95 -20 97 -5 3 -13 -23
-18 -58z m-80 -564 c39 -35 11 -103 -43 -103 -43 0 -66 30 -59 80 4 38 69 53
102 23z m-2827 -643 c-10 -11 -22 -17 -28 -13 -6 4 -3 12 8 20 28 20 41 16 20
-7z m-140 -60 c-3 -5 -12 -10 -18 -10 -7 0 -6 4 3 10 19 12 23 12 15 0z m147
-157 c15 -15 28 -30 28 -35 0 -4 -19 -17 -41 -29 l-42 -21 7 32 c3 18 6 43 6
56 0 31 7 30 42 -3z"/>
<path d="M7287 8960 c-3 -8 -11 -53 -18 -100 -6 -47 -16 -91 -22 -98 -7 -9 -7
-16 0 -23 13 -13 19 3 29 81 12 96 20 99 32 10 7 -46 14 -86 17 -88 3 -3 15 3
26 14 l22 19 -18 -28 c-10 -15 -15 -30 -13 -33 3 -2 45 -11 93 -19 48 -7 89
-15 91 -18 2 -2 -37 -9 -86 -16 -49 -7 -93 -17 -96 -22 -3 -6 0 -18 7 -27 11
-14 11 -15 -1 -4 -8 6 -17 12 -21 12 -4 0 -13 -41 -20 -90 -6 -50 -13 -89 -15
-87 -2 1 -8 34 -14 72 -6 39 -13 78 -16 88 -6 18 -6 18 -26 0 -21 -18 -21 -18
-4 9 l18 27 -39 10 c-21 6 -64 13 -96 17 -71 8 -58 20 33 29 86 9 98 15 82 50
-7 15 -8 24 -2 20 25 -16 6 15 -35 55 -25 24 -45 41 -45 37 0 -3 18 -34 40
-69 46 -74 51 -69 -92 -88 -139 -19 -135 -24 47 -51 44 -6 82 -13 83 -15 2 -1
-15 -30 -38 -64 -23 -34 -40 -64 -37 -67 3 -2 24 16 47 41 24 25 46 46 49 46
4 0 13 -42 20 -94 7 -51 17 -99 21 -106 8 -13 10 -5 31 134 l12 79 48 -54 c26
-30 50 -52 52 -49 3 3 -12 32 -34 65 -21 33 -39 62 -39 66 0 3 37 11 83 18
129 19 148 23 142 30 -4 3 -54 13 -112 23 -57 9 -107 18 -109 21 -3 3 13 33
35 68 22 35 39 65 37 67 -2 1 -26 -21 -54 -49 l-50 -53 -11 75 c-17 108 -27
146 -34 129z"/>
<path d="M1394 8836 c-13 -22 -14 -29 -2 -53 25 -52 108 -35 108 22 0 53 -77
75 -106 31z m88 -11 c9 -21 8 -28 -7 -45 -31 -34 -75 -20 -75 25 0 48 62 63
82 20z"/>
<path d="M5689 8780 c-9 -5 -22 -23 -29 -39 -29 -72 65 -134 118 -78 59 63
-15 160 -89 117z m81 -20 c53 -53 -14 -136 -75 -96 -33 22 -35 78 -3 100 30
21 54 20 78 -4z"/>
<path d="M402 8177 c-31 -33 -29 -80 4 -106 67 -53 148 13 110 88 -25 47 -79
56 -114 18z m86 -3 c31 -22 30 -78 -2 -99 -64 -42 -130 41 -76 95 24 24 48 25
78 4z"/>
<path d="M3425 8064 c-252 -18 -373 -28 -510 -44 -861 -100 -1632 -323 -2340
-677 -195 -98 -575 -325 -575 -344 0 -4 44 20 98 55 771 500 1766 835 2832
955 353 40 479 46 915 46 436 0 566 -7 914 -46 723 -81 1389 -253 2011 -519
306 -131 683 -334 888 -478 34 -24 62 -39 62 -34 0 6 -48 41 -107 79 -772 499
-1743 832 -2789 958 -335 40 -452 46 -899 50 -247 1 -472 1 -500 -1z"/>
<path d="M3510 7904 c-30 -2 -127 -8 -215 -14 -1193 -80 -2322 -435 -3155
-992 -154 -103 -145 -96 -138 -103 2 -3 50 26 105 64 829 562 1901 911 3108
1012 354 29 950 27 1315 -5 1175 -104 2248 -458 3060 -1011 131 -88 130 -88
130 -77 0 9 -248 175 -385 258 -122 73 -502 263 -668 332 -665 281 -1362 445
-2197 518 -163 14 -830 27 -960 18z"/>
<path d="M3790 7818 c0 -29 -4 -58 -8 -64 -4 -7 -84 -13 -222 -17 -584 -18
-1201 -112 -1746 -268 -442 -126 -900 -311 -1235 -500 -48 -27 -89 -49 -93
-49 -3 0 -7 10 -7 23 -1 17 -3 16 -8 -7 -5 -24 -26 -42 -116 -99 -93 -58 -272
-180 -339 -232 -11 -8 -17 -17 -15 -20 3 -2 52 30 109 71 107 77 334 224 346
224 14 0 -7 -97 -32 -147 -31 -64 -71 -94 -144 -109 l-55 -11 33 -9 34 -9 -81
-58 c-109 -78 -205 -156 -210 -169 -2 -7 11 1 30 16 103 84 275 206 291 206
10 0 38 -20 63 -44 49 -50 69 -103 81 -221 l8 -70 11 92 c19 149 81 238 174
250 36 5 44 2 62 -21 41 -53 129 -18 129 51 0 32 -42 73 -75 73 -29 0 -75 -40
-75 -66 0 -37 -124 12 -157 63 -21 32 -18 35 127 115 273 150 599 292 925 400
174 58 182 59 253 53 39 -4 72 -9 72 -11 0 -2 -14 -26 -31 -54 -39 -64 -33
-73 11 -18 30 37 34 39 41 21 4 -11 10 -45 14 -77 12 -95 26 -82 40 37 4 31 9
57 11 57 2 0 20 -18 40 -40 20 -22 39 -39 41 -36 2 2 -10 26 -26 54 -17 27
-31 52 -31 54 0 3 24 8 53 12 145 18 152 29 32 46 -131 19 -120 25 125 80 402
90 857 149 1290 165 114 4 150 3 138 -5 -10 -6 -40 -14 -68 -17 -56 -6 -68
-23 -17 -23 40 0 105 -30 134 -61 38 -41 63 -114 70 -199 7 -92 23 -108 23
-22 0 155 74 265 188 279 28 3 52 9 52 13 0 4 -23 10 -50 13 -28 3 -58 11 -68
17 -36 23 518 -4 823 -41 50 -6 92 -13 94 -15 2 -1 0 -25 -4 -51 l-7 -48 -49
54 c-27 30 -51 53 -53 50 -3 -2 13 -33 35 -68 23 -34 39 -65 36 -67 -3 -3 -51
-12 -108 -21 -57 -8 -108 -19 -112 -23 -5 -4 44 -15 107 -25 64 -9 116 -20
116 -24 0 -3 -18 -33 -39 -66 -22 -33 -37 -62 -35 -65 3 -2 27 20 53 50 l48
54 12 -80 c25 -167 32 -171 51 -29 7 52 16 95 20 95 4 0 26 -21 50 -46 23 -25
44 -43 47 -41 3 3 -14 33 -37 67 -23 34 -40 63 -38 64 1 2 54 11 116 21 61 10
112 21 112 24 0 4 -50 14 -111 23 -61 9 -113 18 -116 21 -2 3 11 28 29 56 21
33 40 51 53 51 95 0 652 -127 938 -214 617 -188 1223 -494 1647 -831 121 -96
115 -92 107 -78 -11 18 -138 119 -242 194 -517 369 -1178 659 -1900 834 -129
31 -427 91 -502 101 -29 3 -53 9 -53 13 0 3 -25 7 -56 8 -31 1 -58 4 -61 7 -3
3 -8 26 -10 51 -8 63 -21 65 -29 4 l-7 -51 -41 6 c-193 27 -586 56 -772 56
l-142 0 -30 35 c-27 29 -52 88 -52 119 0 21 622 -12 940 -49 1113 -130 2142
-509 2873 -1057 43 -32 80 -58 83 -58 40 0 -329 254 -556 382 -856 485 -1952
767 -3090 796 l-255 7 -3 63 c-4 75 -22 83 -22 10z m30 -139 c15 -58 59 -113
112 -140 l41 -21 -40 -18 c-51 -23 -98 -80 -113 -139 -18 -63 -26 -69 -34 -23
-9 58 -63 133 -113 157 -49 23 -52 30 -19 39 59 15 136 120 136 186 0 34 15
14 30 -41z m-46 24 c-12 -49 -21 -68 -49 -101 -26 -31 -28 -32 -114 -32 -237
0 -853 -61 -1062 -105 -23 -5 -26 -3 -22 18 6 28 -17 50 -49 45 -26 -3 -37
-41 -18 -64 7 -7 10 -14 8 -14 -14 0 -256 -52 -326 -69 -44 -12 -83 -21 -87
-21 -4 0 3 16 15 35 29 46 10 45 -29 -2 -17 -20 -32 -35 -34 -32 -3 2 -9 34
-14 72 l-10 67 36 10 c339 89 872 172 1291 200 233 15 253 16 368 18 l102 2
-6 -27z m1121 -251 c10 -87 24 -101 117 -115 42 -7 79 -15 82 -18 3 -3 -31
-11 -76 -18 -46 -7 -86 -15 -91 -18 -4 -3 0 -17 9 -31 17 -27 17 -27 -3 -9
-25 22 -29 17 -37 -54 -14 -117 -21 -121 -35 -21 -7 50 -16 92 -20 92 -4 0
-13 -6 -21 -12 -12 -11 -12 -10 0 5 20 27 4 36 -88 49 -46 6 -79 14 -75 18 4
4 43 12 86 18 43 5 81 13 84 16 3 3 -2 18 -12 33 -18 28 -18 28 2 11 11 -10
22 -18 25 -18 3 0 12 39 19 86 14 94 22 91 34 -14z m-2385 52 c11 -12 11 -18
-2 -30 -18 -18 -48 -8 -48 15 0 33 28 42 50 15z m-555 -61 c-12 -90 -12 -90
-56 -47 -47 46 -50 38 -9 -21 17 -24 30 -46 30 -48 0 -3 -40 -11 -90 -18 -53
-7 -90 -16 -90 -23 0 -6 -78 -38 -172 -70 -95 -32 -240 -85 -323 -118 -168
-67 -505 -230 -635 -306 -47 -27 -88 -48 -92 -45 -8 4 -22 55 -32 114 l-7 37
141 77 c289 159 681 322 1025 427 351 108 318 104 310 41z m3023 37 c11 0 6
-10 -16 -33 -31 -32 -43 -55 -21 -41 8 4 8 0 0 -15 -13 -24 -26 -29 -18 -7 3
8 2 16 -2 18 -4 2 -11 23 -14 47 l-5 43 30 -6 c17 -3 38 -6 46 -6z m-2974
-152 c5 -11 26 -18 67 -23 32 -4 61 -10 64 -15 2 -4 -22 -10 -54 -14 -72 -8
-86 -23 -96 -101 -8 -67 -19 -57 -30 27 -7 55 -18 64 -93 74 -63 8 -60 19 10
28 64 9 76 18 83 65 18 112 18 111 30 41 6 -36 15 -72 19 -82z m-1475 -631
c13 -22 41 -45 70 -60 l49 -24 -43 -21 c-54 -26 -92 -75 -114 -149 l-18 -58
-8 35 c-10 46 -48 121 -71 141 -11 9 -37 26 -59 37 -32 17 -36 21 -17 22 12 0
43 20 71 48 40 38 53 59 67 110 l18 63 16 -55 c10 -30 27 -70 39 -89z m286
-32 c30 -29 31 -45 4 -79 -25 -32 -55 -33 -86 -4 -30 28 -29 62 3 87 34 27 50
26 79 -4z"/>
<path d="M6379 6959 c-14 -14 -19 -28 -15 -42 3 -12 6 -25 6 -28 0 -3 12 -11
26 -17 19 -9 30 -9 47 -1 42 23 49 57 17 89 -26 26 -55 25 -81 -1z m71 -9 c24
-24 24 -30 7 -54 -18 -25 -67 -18 -78 12 -6 17 -4 27 11 42 25 25 35 25 60 0z"/>
<path d="M5118 6323 c-9 -54 -19 -106 -23 -115 -4 -10 -3 -18 3 -18 12 0 19
26 28 103 4 31 10 57 14 57 4 0 10 -24 14 -52 14 -108 17 -119 32 -107 15 13
19 34 5 25 -11 -7 -16 13 -31 122 -7 45 -15 82 -19 82 -4 0 -14 -44 -23 -97z"/>
<path d="M5000 6305 c0 -6 11 -26 23 -45 13 -19 31 -47 41 -61 l17 -26 -116
-18 c-63 -9 -115 -20 -115 -24 0 -4 39 -13 88 -20 112 -17 132 -21 132 -32 0
-5 -16 -34 -37 -64 -20 -31 -34 -58 -31 -60 8 -9 79 75 73 85 -3 5 0 18 7 29
7 11 10 23 7 26 -3 3 -43 11 -87 17 -45 7 -82 15 -82 19 0 3 24 9 53 13 115
15 116 15 114 49 -1 20 -16 46 -44 76 -23 25 -42 41 -43 36z"/>
<path d="M5236 6269 c-19 -23 -33 -46 -30 -51 3 -5 0 -16 -7 -24 -19 -23 1
-35 85 -46 42 -6 76 -14 76 -18 0 -4 -37 -12 -82 -18 -45 -7 -84 -14 -87 -17
-3 -3 1 -16 8 -28 14 -22 13 -22 -7 -4 -20 18 -20 18 -32 -55 -17 -109 -16
-106 -23 -88 -3 8 -11 48 -17 88 -10 61 -14 71 -26 61 -15 -13 -19 -34 -5 -24
12 7 17 -11 31 -117 7 -49 16 -88 20 -88 4 0 13 39 20 88 17 133 18 134 69 73
24 -29 46 -50 48 -47 3 3 -12 32 -32 66 -20 34 -35 63 -32 66 5 5 178 33 205
34 6 0 12 4 12 9 0 4 -48 16 -107 25 -58 9 -109 18 -111 21 -3 3 12 32 33 66
20 33 35 62 32 65 -2 3 -21 -14 -41 -37z"/>
<path d="M7167 6290 c-3 -8 -10 -48 -17 -88 l-12 -72 -39 42 c-46 51 -50 40
-9 -22 35 -52 32 -56 -60 -65 -114 -11 -114 -26 0 -41 93 -11 94 -12 60 -64
-41 -62 -37 -73 9 -24 l39 41 11 -62 c6 -34 11 -71 11 -83 0 -12 4 -22 9 -22
5 0 15 39 22 86 l13 87 39 -42 c21 -23 41 -40 43 -38 3 3 -9 26 -27 51 -17 26
-29 49 -27 52 3 2 42 11 88 19 46 8 85 16 87 19 5 5 -31 13 -98 21 -84 10 -88
15 -51 71 17 27 29 50 27 53 -3 2 -22 -16 -44 -40 l-38 -44 -8 63 c-9 80 -21
122 -28 102z m39 -176 c8 3 11 0 8 -9 -6 -15 8 -20 86 -31 l55 -8 -50 -8 c-92
-16 -97 -18 -91 -33 3 -9 0 -12 -9 -9 -10 4 -15 -11 -21 -63 -7 -72 -15 -67
-28 20 -4 26 -12 47 -17 47 -6 0 -8 4 -5 9 4 5 -25 14 -64 21 -38 6 -70 13
-70 15 0 2 32 9 70 15 39 7 68 16 64 21 -3 5 -1 9 4 9 6 0 13 17 16 38 17 98
20 101 29 29 7 -50 13 -67 23 -63z"/>
<path d="M1240 6218 c-6 -40 -14 -88 -18 -107 l-7 -34 -44 51 c-23 29 -47 52
-52 52 -5 0 9 -29 32 -65 23 -36 39 -68 37 -70 -3 -4 -195 -35 -213 -35 -3 0
-5 -4 -5 -8 0 -4 48 -16 107 -25 59 -10 109 -19 111 -22 3 -2 -14 -33 -36 -67
-23 -34 -39 -64 -36 -67 2 -2 26 20 53 50 l48 54 11 -65 c6 -36 14 -84 17
-108 4 -23 10 -40 15 -37 4 3 13 49 20 104 11 84 16 99 30 98 10 -1 16 -6 14
-12 -3 -6 14 -28 36 -50 22 -21 40 -36 40 -32 0 3 -18 35 -40 69 l-41 63 25 6
c14 4 66 13 116 20 49 6 90 15 90 19 0 4 -52 15 -115 25 -63 9 -115 19 -115
22 0 2 18 31 40 63 22 32 40 62 40 67 0 4 -20 -13 -45 -37 -43 -42 -60 -70
-32 -53 6 4 4 -5 -5 -19 -10 -16 -14 -29 -8 -33 5 -3 45 -11 90 -17 44 -7 80
-15 80 -18 0 -3 -37 -11 -82 -18 -100 -14 -112 -26 -122 -112 -12 -106 -21
-112 -34 -20 -7 46 -14 85 -17 88 -2 3 -12 -1 -21 -9 -16 -13 -16 -12 -5 9 10
20 9 23 -11 31 -13 4 -45 11 -73 15 -92 13 -93 19 -6 32 94 14 111 24 90 51
-13 16 -12 17 4 4 9 -8 19 -12 21 -10 2 2 11 45 18 94 l15 90 12 -75 c16 -98
20 -111 32 -104 6 3 6 10 1 17 -5 7 -15 56 -22 110 -8 53 -17 97 -21 97 -4 0
-12 -33 -19 -72z m80 -289 c0 -6 -4 -7 -10 -4 -5 3 -10 11 -10 16 0 6 5 7 10
4 6 -3 10 -11 10 -16z"/>
<path d="M6538 6243 c-20 -5 -31 -33 -22 -57 5 -12 16 -16 38 -14 25 2 32 8
34 30 3 29 -20 48 -50 41z m37 -38 c0 -25 -40 -33 -49 -10 -9 24 2 37 27 33
14 -2 22 -10 22 -23z"/>
<path d="M2920 6150 c-35 -35 -25 -92 20 -115 36 -19 83 -4 99 31 16 35 14 47
-10 78 -26 33 -79 36 -109 6z m95 -4 c11 -8 18 -26 18 -46 0 -38 -23 -60 -64
-60 -29 0 -59 31 -59 60 0 49 63 77 105 46z"/>
<path d="M3249 5965 l-12 -86 -44 43 c-51 50 -55 44 -12 -18 16 -24 28 -48 25
-52 -3 -5 -44 -14 -91 -21 -48 -8 -83 -17 -78 -21 4 -4 44 -13 87 -19 44 -6
82 -13 84 -16 2 -2 -10 -27 -27 -54 -35 -58 -25 -68 16 -16 31 39 43 44 43 18
0 -35 22 -143 30 -143 4 0 10 26 14 57 4 31 9 68 13 81 6 23 6 23 44 -14 47
-45 50 -36 9 26 l-30 45 63 12 c34 7 74 12 90 13 49 0 28 18 -36 29 -35 6 -73
11 -84 11 -33 0 -34 11 -3 56 42 60 37 76 -7 25 -43 -50 -46 -47 -58 57 -4 34
-11 64 -15 67 -4 3 -14 -34 -21 -80z m35 -57 c4 -27 12 -48 17 -48 6 0 8 -4 5
-9 -8 -12 10 -18 80 -27 65 -8 56 -18 -28 -29 -56 -7 -66 -18 -74 -81 -10 -76
-20 -83 -28 -18 -9 73 -20 89 -71 98 -102 17 -104 19 -30 31 55 8 70 14 69 27
-1 10 4 14 11 11 10 -3 15 14 21 64 7 72 15 67 28 -19z"/>
<path d="M4640 5460 c-30 -30 -27 -83 6 -109 30 -24 43 -26 77 -10 71 32 47
139 -30 139 -20 0 -41 -8 -53 -20z m94 -9 c27 -30 18 -83 -18 -100 -25 -12
-31 -11 -55 6 -33 26 -39 65 -12 92 26 26 63 27 85 2z"/>
<path d="M2693 3985 c0 -8 4 -12 9 -9 5 3 6 10 3 15 -9 13 -12 11 -12 -6z"/>
<path d="M5215 3821 c-3 -5 -2 -12 3 -15 5 -3 9 1 9 9 0 17 -3 19 -12 6z"/>
<path d="M379 3706 c-6 -6 -310 -46 -348 -46 -17 0 -31 -5 -31 -11 0 -7 12 -9
32 -6 18 3 110 15 203 27 168 21 246 38 179 39 -17 1 -33 -1 -35 -3z"/>
<path d="M7440 3590 c0 -5 17 -10 38 -10 27 0 33 3 22 10 -20 13 -60 13 -60 0z"/>
<path d="M7523 3566 c0 -11 5 -13 19 -5 12 7 18 6 18 -1 0 -6 5 -8 10 -5 6 3
10 0 10 -7 0 -10 2 -10 9 1 5 7 13 11 19 7 19 -11 102 -24 107 -16 3 4 -34 15
-83 24 -106 20 -109 20 -109 2z"/>
<path d="M6577 1877 c-14 -164 -79 -250 -196 -259 -38 -3 -54 -18 -19 -18 123
0 204 -100 216 -262 2 -43 8 -78 12 -78 4 0 10 35 12 78 12 165 77 244 218
264 18 3 9 8 -32 17 -79 17 -118 46 -151 114 -22 44 -30 78 -34 138 -3 43 -9
79 -13 79 -4 0 -10 -33 -13 -73z m23 -69 c0 -62 71 -164 130 -188 l31 -13 -40
-18 c-46 -20 -96 -84 -113 -143 -14 -51 -28 -68 -28 -35 0 33 -43 119 -74 148
-13 13 -41 28 -62 36 l-37 12 36 12 c51 17 112 90 128 152 12 45 29 67 29 37z"/>
<path d="M7266 1899 c-50 -39 -23 -129 38 -129 38 0 56 10 72 42 19 37 5 80
-32 97 -35 16 -48 14 -78 -10z m92 -17 c21 -27 15 -70 -13 -88 -49 -32 -106
11 -91 69 11 44 74 56 104 19z"/>
<path d="M560 1860 c-24 -24 -25 -48 -4 -78 18 -26 41 -28 71 -7 32 23 35 54
8 81 -29 29 -49 30 -75 4z m76 -26 c8 -32 0 -50 -25 -57 -25 -6 -61 18 -61 43
0 24 36 49 61 43 10 -3 22 -16 25 -29z"/>
<path d="M1238 1785 c-9 -92 -32 -167 -65 -205 -33 -40 -93 -70 -138 -70 -19
0 -35 -4 -35 -10 0 -5 10 -10 23 -10 50 0 103 -24 139 -61 42 -44 63 -104 76
-214 l8 -70 12 90 c21 157 80 237 185 251 54 8 63 24 14 24 -47 0 -118 39
-145 79 -26 40 -47 109 -59 201 l-9 65 -6 -70z m63 -202 c21 -30 60 -60 95
-73 l28 -11 -40 -18 c-55 -25 -102 -84 -121 -154 l-17 -58 -13 51 c-19 73 -60
131 -110 155 -23 11 -42 22 -42 25 0 3 19 14 42 25 51 24 93 82 109 152 l13
52 20 -62 c11 -34 27 -72 36 -84z"/>
<path d="M3694 1785 c-51 -59 -62 -58 -63 8 -1 15 -5 27 -10 27 -6 0 -7 -24
-4 -55 l6 -56 -54 22 c-94 37 -102 40 -105 36 -2 -1 26 -29 61 -61 36 -31 65
-53 65 -47 0 5 -18 24 -40 41 -23 18 -39 34 -37 37 3 2 27 -5 54 -16 38 -15
53 -17 62 -8 6 6 11 8 11 3 0 -4 18 14 40 39 45 52 49 48 21 -18 -11 -25 -18
-53 -17 -63 1 -9 23 -35 47 -56 38 -33 40 -38 19 -34 -14 3 -5 -4 18 -15 24
-11 46 -19 48 -16 3 2 -21 26 -53 52 -32 26 -58 52 -58 59 0 6 -4 15 -10 19
-6 5 -1 6 10 3 11 -3 36 4 55 15 19 11 26 17 15 15 -65 -16 -75 -18 -75 -12 0
4 11 34 25 68 14 34 23 63 21 65 -2 2 -26 -21 -52 -52z"/>
<path d="M2414 1809 c-29 -15 -54 -61 -54 -101 0 -94 116 -139 184 -72 87 88
-18 227 -130 173z m105 -15 c13 -9 29 -32 37 -50 12 -29 12 -39 0 -68 -18 -43
-66 -70 -106 -61 -37 8 -80 59 -80 93 1 78 88 128 149 86z"/>
<path d="M5270 1795 c-26 -32 13 -81 48 -59 34 22 22 74 -18 74 -10 0 -23 -7
-30 -15z m57 -11 c3 -8 -2 -23 -11 -32 -15 -15 -17 -15 -33 0 -13 14 -14 20
-3 32 16 20 39 20 47 0z"/>
<path d="M3520 1625 c-51 -27 -42 -32 19 -10 22 8 41 12 41 9 0 -3 -13 -36
-30 -75 -27 -65 -28 -87 0 -54 6 8 8 20 4 26 -4 7 -3 9 3 6 10 -6 83 67 83 81
-1 4 -19 -13 -40 -38 -44 -50 -50 -44 -21 23 17 40 18 46 4 51 -18 7 -9 10
-63 -19z"/>
<path d="M4566 1619 c-54 -43 -23 -129 47 -129 77 0 101 107 30 139 -34 16
-47 14 -77 -10z m88 -12 c38 -28 10 -107 -38 -107 -34 0 -66 28 -66 57 0 53
60 82 104 50z"/>
<path d="M3646 1593 c-3 -16 -2 -44 3 -63 8 -32 9 -31 10 24 1 51 3 57 19 51
38 -15 46 -16 22 -1 -36 22 -48 20 -54 -11z"/>
<path d="M1612 1549 c-30 -11 -39 -54 -17 -79 25 -28 61 -25 81 5 30 47 -10
94 -64 74z m56 -25 c20 -36 -10 -71 -48 -59 -24 8 -32 32 -20 56 13 23 56 25
68 3z"/>
<path d="M5297 1518 c-2 -8 -10 -55 -17 -106 -7 -50 -16 -92 -20 -92 -5 0 -27
23 -50 50 -24 28 -45 49 -48 46 -2 -3 10 -28 28 -56 18 -28 35 -48 38 -45 3 3
14 -2 23 -11 23 -20 24 -18 39 86 6 41 12 76 14 77 2 2 9 -37 15 -87 7 -49 17
-90 21 -90 15 0 23 22 12 29 -6 4 -18 51 -27 106 -17 106 -20 114 -28 93z"/>
<path d="M5396 1371 c-22 -22 -35 -44 -31 -51 4 -6 1 -18 -6 -26 -18 -22 -1
-30 100 -45 92 -14 87 -21 -26 -34 -81 -9 -89 -15 -68 -51 l17 -29 -20 23
c-11 12 -22 22 -25 22 -2 0 -10 -42 -17 -92 -15 -100 -22 -96 -36 21 -8 69
-12 75 -32 59 -13 -12 -14 -10 -3 9 13 26 14 26 -104 43 -38 6 -71 13 -73 14
-1 2 35 9 80 16 105 16 113 20 93 45 -15 20 -16 20 -13 0 3 -17 -6 -21 -77
-32 -138 -21 -151 -24 -135 -32 8 -5 58 -14 110 -21 52 -7 98 -16 102 -19 4
-4 -10 -33 -32 -66 -54 -81 -50 -92 9 -26 27 29 51 50 53 45 3 -5 11 -49 18
-99 20 -140 24 -135 55 64 l7 43 54 -53 c30 -29 54 -50 54 -46 0 5 -19 35 -41
69 -31 46 -38 62 -28 68 7 5 51 14 98 20 92 12 125 19 119 26 -2 2 -51 11
-109 20 -57 9 -108 20 -113 24 -4 4 11 35 33 69 48 70 42 79 -13 22z"/>
<path d="M225 1275 c-30 -30 -32 -64 -4 -99 42 -54 129 -19 129 51 0 22 -8 38
-26 52 -35 28 -69 26 -99 -4z m90 -10 c14 -13 25 -30 25 -38 0 -23 -40 -67
-61 -67 -24 0 -69 43 -69 65 0 21 44 65 65 65 9 0 27 -11 40 -25z"/>
<path d="M3038 1294 c-3 -5 -11 -53 -18 -106 -7 -54 -17 -98 -22 -98 -6 0 -8
-7 -4 -15 8 -22 -2 -18 -15 6 -9 17 -8 20 2 13 18 -11 -24 46 -55 75 -36 34
-33 22 14 -51 30 -45 37 -64 28 -69 -7 -4 -59 -12 -115 -19 -57 -7 -103 -16
-103 -20 0 -4 52 -16 115 -26 108 -17 115 -19 110 -38 -6 -21 -6 -21 10 -1 21
26 8 32 -96 47 -91 13 -85 22 22 34 84 9 104 30 114 115 12 105 20 110 33 19
7 -46 14 -86 17 -88 3 -3 15 3 26 14 l22 19 -18 -28 c-10 -15 -15 -30 -12 -33
2 -3 44 -12 92 -19 48 -8 90 -16 92 -19 2 -2 -22 -7 -54 -10 -73 -9 -133 -24
-133 -34 0 -5 5 -13 10 -20 7 -9 7 -9 -2 -2 -7 6 -15 10 -19 10 -3 0 -12 -41
-19 -90 -7 -50 -14 -89 -16 -87 -2 1 -8 36 -14 77 -15 104 -16 106 -39 86 -9
-9 -20 -14 -23 -10 -3 3 -20 -16 -37 -42 -43 -62 -31 -68 20 -11 22 26 44 47
48 47 5 0 14 -42 21 -92 7 -51 15 -99 20 -107 4 -7 15 36 25 99 l18 113 44
-52 c25 -28 49 -51 54 -51 5 0 -9 29 -32 65 -23 36 -40 67 -38 69 2 2 53 11
114 20 60 9 111 19 114 21 6 7 -15 12 -123 28 -54 9 -100 18 -103 21 -3 2 14
32 37 66 22 35 39 64 37 67 -3 2 -27 -20 -55 -48 l-49 -53 -13 90 c-14 97 -24
132 -32 118z"/>
<path d="M4720 1195 c-26 -32 13 -81 48 -59 34 22 22 74 -18 74 -10 0 -23 -7
-30 -15z m50 -10 c15 -18 6 -45 -13 -45 -8 0 -20 7 -27 15 -10 12 -10 18 0 30
16 19 24 19 40 0z"/>
<path d="M3480 1163 c-26 -10 -58 -44 -70 -73 -27 -65 31 -140 108 -140 47 0
96 41 105 87 6 33 -12 81 -40 106 -22 19 -78 30 -103 20z m103 -41 c60 -56 14
-162 -70 -162 -81 0 -124 106 -67 163 42 42 90 42 137 -1z"/>
<path d="M6189 1121 c-49 -40 -18 -131 46 -131 37 0 75 37 75 74 0 64 -71 97
-121 57z m91 -11 c36 -36 21 -89 -31 -105 -25 -8 -69 19 -70 43 -5 71 55 108
101 62z"/>
<path d="M840 1103 c-51 -19 -68 -85 -30 -123 45 -45 123 -13 123 51 0 46 -52
86 -93 72z m64 -29 c20 -20 20 -68 0 -88 -35 -36 -104 -7 -104 42 0 53 68 83
104 46z"/>
<path d="M1721 896 c-16 -19 -6 -52 19 -59 28 -7 53 15 48 44 -4 29 -47 39
-67 15z m54 -21 c0 -23 -34 -33 -45 -14 -13 20 1 40 24 37 13 -2 21 -10 21
-23z"/>
<path d="M5923 900 c-50 -20 -49 -93 2 -106 34 -8 53 0 67 31 19 43 -26 91
-69 75z m51 -26 c18 -18 18 -17 10 -38 -19 -48 -84 -37 -84 14 0 40 44 55 74
24z"/>
<path d="M2506 834 c-33 -32 -9 -94 35 -94 39 0 59 19 59 55 0 24 -6 38 -19
45 -28 14 -57 12 -75 -6z m72 -6 c7 -7 12 -21 12 -33 0 -47 -62 -63 -81 -21
-22 47 33 90 69 54z"/>
</g>
</svg>
