<?xml version="1.0" standalone="no"?>
<!DOCTYPE svg PUBLIC "-//W3C//DTD SVG 20010904//EN"
 "http://www.w3.org/TR/2001/REC-SVG-20010904/DTD/svg10.dtd">
<svg version="1.0" xmlns="http://www.w3.org/2000/svg"
 width="600.000000pt" height="600.000000pt" viewBox="0 0 600.000000 600.000000"
 preserveAspectRatio="xMidYMid meet">
<metadata>
Created by potrace 1.15, written by Peter Selinger 2001-2017
</metadata>
<style type="text/css" >
    <![CDATA[
        rect.rectClass {
            stroke: #000066;
            fill:   #00cc00;
        }
        path {
            stroke: #006600;
            fill:   #cc0000;
        }
    ]]>
</style>
<g transform="translate(0.000000,600.000000) scale(0.100000,-0.100000)"
fill="#000000" stroke="none">
<path d="M2351 5154 c-1 -7 -24 -10 -63 -9 -74 3 -184 -28 -199 -56 -6 -12
-16 -16 -27 -12 -13 5 -15 3 -5 -7 9 -10 21 -10 55 -1 50 13 140 23 216 25 29
1 56 6 60 11 9 13 46 20 38 7 -3 -5 5 -7 18 -5 13 3 26 1 30 -5 3 -5 27 -6 63
0 32 5 95 7 140 4 52 -3 83 0 85 6 3 7 16 5 35 -6 21 -10 34 -12 38 -5 5 7 11
7 20 -1 7 -6 53 -15 101 -21 49 -5 114 -14 144 -18 32 -5 62 -5 72 0 24 13
160 19 174 8 6 -5 40 -12 75 -15 35 -3 71 -8 79 -11 22 -9 28 -10 51 -12 11 0
17 -5 14 -11 -3 -5 1 -10 10 -10 9 0 13 5 10 10 -3 6 1 10 9 10 9 0 16 -4 16
-10 0 -5 11 -10 24 -10 13 0 29 -7 36 -15 7 -8 27 -17 46 -21 21 -4 31 -10 27
-18 -3 -6 0 -6 8 2 16 15 30 16 26 1 -1 -6 4 -14 12 -17 8 -3 11 0 7 7 -5 8 0
8 19 1 35 -13 37 -13 26 8 -24 45 105 -8 332 -136 135 -77 204 -126 297 -214
37 -35 88 -81 115 -103 39 -33 156 -179 237 -296 30 -44 118 -223 118 -242 0
-10 4 -15 10 -12 6 3 11 3 11 -2 12 -76 28 -142 39 -162 5 -11 10 -31 10 -45
0 -13 6 -27 13 -29 9 -4 9 -7 0 -14 -8 -6 -9 -20 -4 -43 4 -19 7 -82 5 -140
-1 -59 2 -113 8 -125 16 -30 44 -54 54 -47 13 10 11 89 -3 137 -6 22 -13 117
-15 210 -2 94 -6 172 -10 175 -3 3 -8 19 -11 35 -11 61 -42 132 -85 195 -25
36 -53 83 -64 105 -23 51 -60 116 -73 132 -5 7 -16 19 -22 27 -7 8 -13 20 -13
26 0 5 -4 10 -8 10 -4 0 -13 12 -20 28 -22 49 -39 72 -93 130 -55 59 -224 198
-269 222 -14 7 -27 16 -30 19 -9 10 -81 49 -190 103 -58 28 -122 62 -143 75
-24 15 -70 29 -120 38 -45 7 -93 17 -107 23 -14 5 -49 13 -77 17 -29 4 -55 11
-59 16 -3 5 -15 9 -27 9 -12 0 -50 9 -84 20 -34 10 -79 20 -100 21 -47 1 -213
-10 -222 -15 -3 -2 -26 0 -51 5 -135 27 -195 36 -198 29 -1 -4 -24 -3 -50 2
-26 5 -57 6 -69 3 -12 -3 -24 -1 -27 3 -5 8 -102 10 -110 2 -2 -3 -80 -1 -172
3 -116 6 -174 6 -186 -2 -12 -7 -18 -7 -21 2 -4 7 -6 8 -6 1z m569 -24 c0 -5
-5 -10 -11 -10 -5 0 -7 5 -4 10 3 6 8 10 11 10 2 0 4 -4 4 -10z m-21 -27 c2
-2 -3 -3 -11 -3 -9 0 -19 7 -22 16 -6 15 -4 15 11 3 10 -7 20 -15 22 -16z"/>
<path d="M1926 5027 c3 -10 9 -15 12 -12 3 3 0 11 -7 18 -10 9 -11 8 -5 -6z"/>
<path d="M1840 4982 c0 -13 -3 -13 -12 -4 -17 17 -31 15 -24 -3 4 -12 0 -14
-18 -9 -17 4 -23 1 -23 -11 0 -10 6 -14 14 -10 8 3 23 5 33 5 10 0 25 6 32 14
8 8 23 16 34 18 15 3 13 5 -8 10 -21 4 -28 1 -28 -10z"/>
<path d="M1568 4879 c-10 -5 -24 -9 -30 -8 -39 5 -58 -2 -58 -21 0 -23 25 -27
34 -5 3 8 14 15 24 15 10 0 27 7 38 15 22 17 17 19 -8 4z"/>
<path d="M5040 3321 c0 -5 7 -12 16 -15 22 -9 24 -8 24 9 0 8 -9 15 -20 15
-11 0 -20 -4 -20 -9z"/>
<path d="M5044 3263 c2 -16 5 -34 5 -40 1 -18 41 -16 41 2 0 8 -6 15 -14 15
-16 0 -29 27 -20 41 3 5 0 9 -6 9 -6 0 -9 -12 -6 -27z"/>
<path d="M5008 3060 c-1 -30 -1 -66 0 -80 0 -14 2 -45 3 -70 1 -25 4 -49 8
-55 3 -5 6 -27 7 -47 1 -21 2 -39 3 -40 1 -2 4 -18 6 -36 3 -39 9 -46 29 -39
18 7 31 98 22 159 -3 24 -8 59 -10 79 -3 19 -10 47 -15 61 -5 14 -7 28 -4 32
10 10 -8 77 -19 70 -5 -4 -14 0 -19 7 -6 9 -9 -5 -11 -41z"/>
<path d="M294 2615 c3 -9 6 -22 6 -28 0 -7 4 -18 9 -26 7 -11 13 -11 32 3 19
13 20 16 6 16 -11 0 -16 7 -14 22 1 17 -4 24 -22 26 -19 3 -22 0 -17 -13z"/>
<path d="M5013 2574 c-10 -45 -9 -53 25 -199 24 -100 38 -126 104 -189 62 -60
98 -102 98 -116 0 -6 5 -10 10 -10 6 0 10 -7 10 -15 0 -8 5 -15 10 -15 6 0 10
-7 10 -15 0 -8 4 -15 9 -15 5 0 14 -14 21 -30 7 -17 22 -37 34 -45 11 -8 17
-15 13 -15 -23 0 157 -179 241 -240 34 -24 62 -50 62 -57 0 -17 -52 -17 -132
1 -35 7 -110 15 -168 15 -58 1 -125 5 -150 7 -140 16 -244 34 -250 44 -4 7
-10 11 -14 11 -31 -5 -147 41 -211 85 -32 22 -60 33 -78 32 -15 -1 -27 -6 -27
-10 0 -3 -8 -9 -17 -12 -25 -9 -133 -109 -133 -124 0 -6 -6 -12 -13 -12 -16 0
-60 -44 -51 -52 3 -4 -3 -9 -14 -12 -11 -4 -22 -14 -25 -24 -2 -10 -31 -27
-71 -41 -36 -14 -66 -28 -66 -32 0 -7 -69 -52 -82 -53 -4 -1 -15 -9 -25 -18
-10 -9 -29 -27 -42 -39 -21 -19 -22 -23 -8 -36 19 -19 61 -11 85 17 9 11 20
20 25 20 5 0 23 10 40 22 33 23 35 25 63 27 8 0 12 6 9 11 -3 6 1 10 9 10 9 0
16 4 16 9 0 6 12 16 28 23 15 8 26 21 26 31 -1 9 4 17 10 17 7 0 28 14 46 30
18 17 39 30 45 30 6 0 21 13 33 29 25 34 90 69 100 55 4 -6 23 -18 43 -27 20
-9 42 -24 50 -33 45 -55 136 -93 154 -64 9 15 113 12 201 -6 48 -10 100 -14
134 -11 30 3 111 -1 180 -9 69 -8 132 -15 140 -15 55 -3 151 -23 180 -39 58
-30 99 -35 115 -13 23 29 17 55 -19 93 -38 39 -76 105 -76 132 0 9 -13 29 -30
45 -16 15 -30 34 -30 41 0 7 -4 10 -10 7 -5 -3 -10 1 -10 9 0 8 -30 41 -67 73
-106 91 -182 172 -232 248 -25 39 -46 73 -46 78 0 9 -60 80 -134 158 -50 53
-56 65 -77 148 -13 50 -32 99 -42 109 -19 19 -19 19 -29 -24z"/>
<path d="M331 2486 c-16 -20 24 -106 83 -176 25 -30 49 -63 52 -72 3 -10 10
-18 15 -18 5 0 9 -5 9 -11 0 -6 18 -33 40 -59 22 -26 40 -51 40 -54 0 -4 11
-19 25 -34 14 -15 42 -61 62 -102 21 -41 40 -77 43 -80 11 -10 50 -69 50 -75
0 -4 7 -13 15 -22 8 -8 13 -18 10 -23 -3 -5 6 -17 20 -28 14 -11 25 -25 25
-31 0 -6 4 -11 8 -11 11 0 68 -47 124 -102 26 -25 56 -49 67 -53 12 -3 21 -10
21 -15 0 -5 8 -11 18 -14 9 -3 40 -27 67 -52 71 -65 114 -93 241 -158 61 -31
133 -77 161 -101 28 -25 54 -45 57 -45 3 0 46 -26 95 -59 49 -32 120 -70 158
-84 150 -57 263 -97 273 -97 6 0 59 -11 118 -25 332 -76 322 -75 557 -77 252
-1 326 4 375 28 19 10 45 19 59 20 91 8 202 29 236 43 22 10 42 18 45 18 15 0
90 45 90 53 0 5 15 16 34 24 18 8 37 19 40 25 4 6 16 11 26 11 10 0 23 6 27
13 4 7 20 20 35 30 15 9 37 27 50 40 13 13 35 27 48 30 30 8 82 51 73 61 -3 3
-1 6 5 6 7 0 13 10 13 23 1 18 2 18 6 4 3 -10 10 -16 16 -14 47 21 68 34 73
49 3 10 11 18 18 18 8 0 19 6 25 14 10 11 8 16 -7 20 -24 8 -71 -9 -78 -28 -3
-8 -11 -13 -18 -10 -7 3 -25 -7 -42 -21 -16 -14 -49 -35 -72 -46 -24 -11 -42
-23 -39 -25 11 -11 -42 -52 -114 -87 -42 -21 -85 -47 -97 -57 -12 -11 -42 -22
-69 -26 -26 -3 -50 -9 -53 -14 -3 -5 -18 -12 -33 -15 -15 -4 -30 -11 -33 -16
-3 -5 -24 -9 -47 -9 -50 0 -165 -26 -183 -41 -19 -15 -588 -16 -634 -1 -68 22
-206 53 -275 62 -129 16 -493 152 -549 205 -17 16 -116 75 -126 75 -5 0 -13 6
-17 13 -9 15 -100 77 -112 77 -5 0 -11 6 -14 14 -6 16 -69 52 -157 89 -36 16
-92 51 -124 78 -32 27 -67 54 -78 60 -11 6 -29 19 -41 29 -12 10 -33 28 -46
39 -13 12 -28 21 -33 21 -11 0 -32 17 -66 54 -15 16 -35 37 -45 45 -63 55
-105 100 -111 119 -4 12 -11 22 -16 22 -4 0 -22 29 -40 65 -18 36 -36 68 -41
71 -5 3 -22 31 -37 64 -16 32 -47 80 -69 107 -22 26 -48 62 -59 78 -10 17 -21
32 -24 35 -4 3 -21 28 -40 55 -62 92 -86 109 -109 81z"/>
</g>
</svg>
