<?xml version="1.0" standalone="no"?>
<!DOCTYPE svg PUBLIC "-//W3C//DTD SVG 20010904//EN"
 "http://www.w3.org/TR/2001/REC-SVG-20010904/DTD/svg10.dtd">
<svg version="1.0" xmlns="http://www.w3.org/2000/svg"
 width="600.000000pt" height="600.000000pt" viewBox="0 0 600.000000 600.000000"
 preserveAspectRatio="xMidYMid meet">
<metadata>
Created by potrace 1.15, written by Peter Selinger 2001-2017
</metadata>
<style type="text/css" >
    <![CDATA[
        rect.rectClass {
            stroke: #000066;
            fill:   #00cc00;
        }
        path {
            stroke: #006600;
            fill:   #cc0000;
        }
    ]]>
</style>
<g transform="translate(0.000000,600.000000) scale(0.100000,-0.100000)"
fill="#000000" stroke="none">
<path d="M3154 5148 c-3 -4 -15 -6 -27 -3 -12 3 -43 2 -69 -3 -26 -5 -49 -6
-50 -2 -3 7 -63 -2 -198 -29 -25 -5 -48 -7 -51 -5 -9 5 -174 16 -219 15 -19
-1 -69 -11 -110 -22 -69 -19 -96 -26 -220 -58 -25 -6 -82 -18 -127 -26 -48 -8
-97 -24 -120 -38 -21 -13 -85 -47 -143 -75 -109 -54 -181 -93 -190 -103 -3 -3
-16 -12 -30 -19 -45 -24 -214 -163 -269 -222 -54 -58 -71 -81 -93 -130 -7 -16
-16 -28 -20 -28 -4 0 -8 -5 -8 -10 0 -6 -6 -18 -12 -26 -7 -8 -17 -20 -23 -27
-5 -7 -17 -25 -25 -42 -8 -16 -20 -37 -28 -47 -7 -9 -15 -23 -16 -32 -1 -8
-27 -52 -57 -98 -53 -81 -85 -153 -96 -213 -3 -16 -8 -32 -11 -35 -4 -3 -8
-81 -10 -175 -2 -93 -9 -188 -15 -210 -14 -48 -16 -127 -3 -137 10 -7 38 17
54 47 6 12 9 66 8 125 -2 58 1 121 5 140 5 23 4 37 -4 43 -9 7 -9 10 1 14 6 2
12 16 12 29 0 14 5 34 10 45 11 20 27 86 39 162 0 5 6 5 11 2 6 -3 10 2 10 12
0 19 88 198 118 242 81 117 198 263 237 296 27 22 78 68 114 103 36 34 92 81
124 105 116 85 425 250 484 259 28 4 31 2 22 -14 -11 -21 -9 -21 26 -8 19 7
24 7 19 -1 -4 -7 -1 -10 7 -7 8 3 13 11 12 17 -4 15 10 14 26 -1 8 -8 11 -8 8
-2 -4 8 6 14 27 18 19 4 39 13 46 21 7 8 23 15 36 15 13 0 24 5 24 10 0 6 7
10 16 10 8 0 12 -4 9 -10 -3 -5 1 -10 10 -10 9 0 13 5 10 10 -3 6 3 11 14 11
23 2 29 3 51 12 8 3 44 8 79 11 35 3 69 10 75 15 14 11 150 5 174 -8 10 -5 40
-5 72 0 30 4 95 13 143 18 48 6 93 13 99 17 6 4 23 8 37 9 14 1 34 5 44 9 10
5 17 4 17 -2 0 -7 30 -9 83 -6 45 3 108 1 140 -4 36 -6 60 -5 63 0 4 6 17 8
30 5 13 -2 21 0 18 5 -8 13 29 6 38 -7 4 -5 31 -10 60 -11 76 -2 166 -12 216
-25 34 -9 46 -9 55 1 10 10 8 12 -5 7 -11 -4 -21 0 -27 12 -15 27 -125 59
-196 56 -34 -1 -63 3 -67 9 -5 7 -8 7 -8 -2 0 -9 -4 -9 -18 -1 -12 8 -66 9
-186 2 -92 -4 -170 -6 -172 -3 -8 8 -105 6 -110 -2z m-59 -18 c3 -5 1 -10 -4
-10 -6 0 -11 5 -11 10 0 6 2 10 4 10 3 0 8 -4 11 -10z m39 -15 c-4 -8 -13 -15
-22 -15 -13 0 -12 3 4 15 24 18 25 18 18 0z"/>
<path d="M4065 5029 c-4 -6 -5 -12 -2 -15 2 -3 7 2 10 11 7 17 1 20 -8 4z"/>
<path d="M4130 4989 c-24 -7 -24 -7 -2 -8 12 -1 22 -5 22 -10 0 -5 12 -12 28
-15 15 -4 34 -9 43 -12 10 -2 16 2 16 12 0 11 -7 14 -23 10 -18 -5 -22 -3 -18
9 7 18 -11 20 -22 3 -5 -8 -9 -8 -13 3 -4 11 -13 13 -31 8z"/>
<path d="M4424 4876 c11 -9 28 -16 38 -16 10 0 21 -7 24 -15 9 -22 34 -18 34
5 0 19 -19 26 -57 21 -7 -1 -23 3 -35 9 -22 11 -22 10 -4 -4z"/>
<path d="M920 3315 c0 -17 2 -18 24 -9 23 9 20 24 -4 24 -11 0 -20 -7 -20 -15z"/>
<path d="M944 3281 c9 -14 -4 -41 -20 -41 -8 0 -14 -7 -14 -15 0 -18 40 -20
41 -2 0 6 3 24 5 40 3 15 0 27 -6 27 -6 0 -9 -4 -6 -9z"/>
<path d="M981 3101 c0 -7 -7 -11 -16 -8 -10 5 -16 -4 -21 -29 -3 -19 -4 -37
-1 -40 3 -4 1 -18 -4 -32 -5 -14 -12 -42 -15 -61 -2 -20 -7 -55 -10 -79 -9
-61 4 -152 22 -159 20 -7 26 0 29 39 2 18 5 34 6 36 1 1 2 19 4 40 1 20 5 45
9 55 5 9 6 23 3 31 -3 7 -2 31 3 52 4 22 5 68 0 104 -4 36 -8 59 -9 51z"/>
<path d="M5674 2624 c-7 -3 -10 -14 -7 -24 4 -15 0 -20 -13 -20 -16 0 -15 -2
5 -16 19 -14 25 -14 32 -3 5 8 9 19 9 26 0 6 3 18 6 27 6 16 -8 20 -32 10z"/>
<path d="M957 2597 c-10 -10 -28 -59 -41 -108 -21 -83 -27 -95 -77 -148 -74
-78 -134 -149 -134 -158 0 -5 -21 -39 -46 -78 -51 -77 -115 -146 -226 -244
-40 -35 -73 -70 -73 -78 0 -8 -4 -11 -10 -8 -5 3 -10 -1 -10 -9 0 -9 -9 -21
-20 -28 -11 -7 -20 -21 -20 -31 0 -10 -4 -15 -10 -12 -5 3 -10 -2 -10 -12 0
-27 -38 -93 -76 -133 -36 -38 -42 -64 -19 -93 16 -22 57 -17 115 13 29 16 125
36 180 39 8 0 71 7 140 15 69 8 150 12 180 9 34 -3 86 1 134 11 88 18 192 21
201 6 18 -29 109 9 154 64 8 9 30 24 50 33 20 9 39 21 43 27 10 14 75 -21 100
-55 12 -16 27 -29 33 -29 6 0 27 -13 45 -30 18 -16 39 -30 46 -30 6 0 11 -8
10 -17 0 -10 11 -23 27 -31 15 -7 27 -17 27 -23 0 -5 7 -9 16 -9 8 0 12 -5 9
-10 -3 -6 1 -11 9 -11 28 -2 30 -4 63 -27 17 -12 35 -22 40 -22 5 0 16 -9 25
-20 24 -28 66 -36 85 -17 14 13 13 17 -8 36 -13 12 -32 30 -42 39 -10 9 -21
17 -25 18 -13 1 -82 46 -82 53 0 4 -30 18 -66 32 -40 14 -69 31 -71 41 -3 10
-14 20 -25 24 -11 3 -17 8 -14 12 9 8 -35 52 -51 52 -7 0 -13 6 -13 12 0 15
-108 115 -132 124 -10 3 -18 9 -18 12 0 4 -12 9 -27 10 -18 1 -46 -10 -78 -32
-64 -44 -180 -90 -211 -85 -4 0 -10 -4 -14 -11 -9 -15 -239 -47 -360 -50 -107
-2 -151 -6 -195 -14 -16 -3 -56 -9 -87 -12 -77 -9 -77 8 2 65 33 24 72 56 88
70 15 14 39 35 53 46 14 11 29 27 35 37 5 9 24 32 42 52 18 20 29 36 25 36 -5
0 0 5 10 11 11 6 25 26 33 45 8 19 19 34 24 34 6 0 10 7 10 15 0 8 5 15 10 15
6 0 10 7 10 15 0 8 5 15 10 15 6 0 10 4 10 10 0 14 36 56 98 116 70 67 95 115
108 208 2 21 7 44 11 49 15 25 20 91 9 130 -11 41 -12 42 -29 24z"/>
<path d="M5614 2477 c-11 -12 -35 -44 -54 -72 -19 -27 -37 -52 -40 -55 -4 -3
-12 -15 -19 -27 -6 -12 -34 -50 -62 -83 -27 -33 -47 -65 -44 -70 3 -6 2 -10
-3 -10 -4 0 -19 -20 -31 -45 -12 -24 -26 -47 -31 -50 -4 -3 -18 -26 -31 -53
-44 -91 -87 -146 -179 -225 -8 -8 -27 -27 -42 -43 -34 -37 -55 -54 -66 -54 -5
0 -20 -9 -33 -21 -13 -11 -33 -28 -44 -37 -11 -10 -36 -27 -55 -39 -19 -12
-54 -39 -78 -61 -23 -21 -72 -52 -110 -68 -90 -38 -152 -74 -159 -90 -3 -8 -9
-14 -14 -14 -12 0 -103 -62 -112 -77 -4 -7 -12 -13 -17 -13 -10 0 -109 -59
-126 -75 -56 -53 -420 -189 -549 -205 -69 -9 -207 -40 -275 -62 -46 -15 -615
-14 -634 1 -18 15 -133 41 -183 41 -23 0 -44 4 -47 9 -3 5 -18 12 -33 16 -15
3 -30 10 -33 15 -3 5 -27 11 -53 14 -27 4 -57 15 -69 26 -12 10 -55 36 -97 57
-72 35 -125 76 -114 87 3 2 -15 14 -39 25 -23 11 -56 32 -72 46 -17 14 -35 24
-42 21 -7 -3 -15 2 -18 10 -7 19 -54 36 -78 28 -15 -4 -17 -9 -7 -20 6 -8 17
-14 25 -14 7 0 15 -8 18 -17 5 -16 26 -29 73 -50 6 -2 13 4 16 14 4 14 5 14 6
-4 0 -13 6 -23 13 -23 6 0 8 -3 5 -6 -9 -10 43 -53 73 -61 13 -3 35 -17 48
-30 13 -13 35 -31 50 -40 15 -10 31 -23 35 -30 4 -7 17 -13 27 -13 10 0 22 -5
26 -11 3 -6 22 -17 40 -25 19 -8 34 -19 34 -24 0 -8 58 -43 85 -51 6 -1 28
-10 50 -20 34 -14 145 -35 236 -43 14 -1 40 -10 59 -20 49 -24 123 -29 375
-28 235 2 225 1 557 77 59 14 112 25 118 25 10 0 123 40 273 97 38 14 109 52
158 84 49 33 93 59 97 59 4 0 30 21 57 45 28 25 100 70 160 101 126 65 170 93
240 158 28 25 58 49 68 52 9 3 17 9 17 14 0 5 9 12 21 15 11 4 41 28 67 53 56
55 113 102 124 102 4 0 8 5 8 11 0 6 11 20 25 31 14 11 23 23 20 28 -3 5 2 15
10 23 8 9 15 18 15 22 0 8 43 69 53 73 4 2 7 12 7 22 0 10 5 22 11 25 5 4 21
30 34 58 13 29 35 64 49 79 15 15 26 30 26 34 0 3 18 28 40 54 22 26 40 53 40
59 0 6 4 11 9 11 5 0 12 8 15 18 3 9 27 42 52 72 59 70 99 156 83 176 -16 20
-31 17 -55 -9z"/>
</g>
</svg>
